{"glyphs":{"0":{"ha":622,"x_min":0,"x_max":535,"o":"m 535 478 q 465 179 535 329 q 244 0 379 0 q 110 40 175 0 q 24 146 47 81 q 0 331 0 208 q 54 667 0 489 q 249 904 126 904 q 363 860 282 904 l 464 803 q 514 651 490 793 q 535 478 535 532 m 481 532 q 440 736 481 651 q 281 844 388 844 q 124 607 188 844 q 74 290 74 419 q 106 129 74 197 q 232 42 147 42 q 432 233 363 42 q 481 532 481 375 z "},"1":{"ha":233,"x_min":14,"x_max":158,"o":"m 158 801 q 149 754 158 782 q 136 707 138 721 q 100 371 113 515 q 88 126 88 226 q 90 44 88 82 q 97 -21 92 7 q 78 -29 97 -29 q 14 44 14 -29 q 19 153 14 85 q 36 322 25 222 q 53 563 57 508 q 24 607 24 585 q 46 715 24 644 q 64 784 57 756 q 72 831 71 813 q 108 836 89 836 q 158 801 158 836 z "},"2":{"ha":558,"x_min":-24,"x_max":518,"o":"m 518 24 q 493 -7 518 -7 q 506 -6 507 -7 q 492 -5 504 -6 q 460 -3 481 -4 q 414 -1 439 -1 q 364 0 386 0 q 324 0 342 0 q 258 -5 296 0 q 171 -19 219 -10 q 39 -40 75 -40 q -24 13 -24 -40 q 13 46 -24 22 q 51 71 36 60 q 74 89 67 82 q 177 225 131 153 q 263 378 224 297 q 351 708 351 560 q 313 797 351 764 q 215 831 274 831 q 152 791 169 831 q 118 660 135 751 q 99 560 106 594 q 92 524 93 526 q 39 440 72 440 q 4 489 4 440 q 19 578 4 513 q 37 640 26 606 q 61 713 47 674 q 118 839 93 803 q 189 872 140 872 q 356 817 282 872 q 439 667 439 756 q 318 336 439 536 q 216 184 269 256 q 103 47 163 113 q 311 51 211 51 q 358 49 328 51 q 431 42 388 47 q 518 24 518 31 z "},"3":{"ha":565,"x_min":-33,"x_max":479,"o":"m 479 246 q 408 32 479 119 q 208 -60 331 -60 q 38 8 122 -60 q -33 99 -33 68 q -11 153 -33 151 q 4 147 -1 153 q 22 124 11 140 q 46 82 32 108 q 86 19 72 31 q 199 -18 128 -18 q 344 74 282 -18 q 400 246 400 158 q 381 344 400 299 q 307 403 353 403 l 172 371 q 151 400 151 376 q 172 446 151 425 q 218 467 193 467 q 233 466 225 467 q 251 464 240 465 q 279 464 269 463 q 344 575 321 497 q 364 706 364 642 q 260 833 364 833 q 165 794 192 833 q 144 690 144 763 q 76 460 144 460 q 43 488 56 460 q 32 533 32 513 q 86 747 32 611 q 138 836 111 810 q 231 872 174 872 q 375 832 315 872 q 442 703 442 786 q 317 443 442 578 q 432 369 394 407 q 479 246 479 321 z "},"4":{"ha":649,"x_min":-17,"x_max":589,"o":"m 589 275 q 519 244 589 244 q 499 244 513 244 q 464 246 486 244 q 397 246 422 247 q 391 196 393 222 q 388 140 389 169 q 386 83 386 104 q 385 57 386 64 q 399 -11 382 32 q 417 -50 417 -56 q 379 -60 417 -60 q 328 44 328 -60 q 328 77 328 58 q 331 122 329 96 q 333 168 332 149 q 333 201 333 188 q 333 227 333 215 q 331 249 332 239 q 186 235 267 253 q 90 215 128 222 q 38 207 53 208 q -17 297 -17 275 q 32 388 -17 314 q 92 481 67 439 q 136 556 118 524 q 271 771 183 643 q 292 803 282 786 q 314 836 303 819 q 368 882 344 879 q 431 853 393 879 q 468 804 468 825 q 457 751 468 793 q 447 715 450 729 q 443 693 444 700 q 397 301 397 353 l 554 297 q 589 275 589 296 m 361 792 q 282 692 342 781 q 223 605 244 636 q 196 567 201 574 q 106 411 151 510 q 65 300 65 322 q 104 281 65 281 q 161 285 124 281 q 194 289 181 288 q 218 290 208 290 q 243 291 228 290 q 278 293 258 292 q 338 297 317 297 q 354 556 342 407 q 363 701 361 642 q 361 792 364 760 z "},"5":{"ha":604,"x_min":-33,"x_max":515,"o":"m 515 239 q 433 35 515 113 q 224 -40 351 -40 q 74 -11 158 -40 q -33 74 -33 22 q 4 99 -33 99 q 85 50 19 99 q 196 3 149 3 q 378 85 307 3 q 444 275 444 161 q 410 389 444 349 q 301 435 369 435 q 185 406 243 435 q 145 383 171 399 q 81 342 119 368 q 47 367 65 342 q 29 410 29 393 q 31 451 29 426 q 39 510 33 476 q 47 568 44 543 q 49 610 49 593 q 49 700 49 676 q 47 707 49 725 q 64 801 49 769 q 257 833 69 814 q 426 846 388 846 q 486 833 478 846 q 460 801 486 819 q 419 782 435 785 q 256 765 297 771 q 124 728 146 750 q 100 545 108 615 q 92 444 92 475 q 120 453 100 447 q 172 471 140 460 q 243 489 221 489 q 435 419 354 489 q 515 239 515 351 z "},"6":{"ha":588,"x_min":0,"x_max":506,"o":"m 506 288 q 444 89 506 174 q 264 0 375 -3 q 64 89 132 0 q 0 303 0 169 q 67 661 0 446 q 256 928 147 928 q 356 900 289 928 q 439 849 422 872 q 469 740 469 806 q 446 629 469 696 q 393 654 403 629 q 386 718 386 671 q 376 824 386 796 q 304 876 357 876 q 215 806 257 876 q 190 758 206 786 q 154 693 175 731 q 82 439 103 606 q 281 547 188 547 q 446 467 382 547 q 506 288 506 393 m 439 310 q 401 443 439 389 q 283 503 360 503 q 119 426 175 503 q 68 249 68 358 q 258 39 68 39 q 393 138 340 39 q 439 310 439 221 z "},"7":{"ha":472,"x_min":-31,"x_max":463,"o":"m 463 879 q 443 836 463 860 q 394 769 410 796 q 69 53 69 213 q 75 24 69 33 q 8 54 8 24 q 165 486 8 140 l 322 832 q 267 850 322 850 q 214 847 247 850 q 133 839 181 844 q 90 831 113 836 q 40 815 67 825 l -8 796 q -31 828 -31 796 q 26 885 -31 869 q 71 892 38 888 q 160 903 104 896 q 303 917 240 913 q 411 921 367 921 q 463 879 426 921 z "},"8":{"ha":690,"x_min":0,"x_max":600,"o":"m 600 860 q 549 751 600 808 q 460 659 504 700 q 374 586 417 618 q 313 535 313 540 q 314 529 313 531 q 488 404 436 453 q 581 221 581 315 q 482 49 581 118 q 286 -12 393 -12 q 93 50 178 -12 q 0 224 0 118 q 65 396 0 306 q 117 458 85 424 q 193 536 149 493 q 94 706 94 626 q 154 869 94 792 q 300 954 218 954 q 421 894 353 954 q 514 822 497 829 q 564 892 553 851 q 566 908 565 900 q 568 926 567 917 q 600 860 600 926 m 475 781 q 410 875 422 861 q 335 903 382 903 q 207 817 265 903 q 158 697 158 743 q 185 622 158 663 q 244 576 211 576 q 363 668 258 576 q 475 781 467 761 m 511 256 q 260 500 514 383 q 47 208 49 318 q 119 93 47 136 q 257 57 181 57 q 428 107 354 57 q 511 256 511 163 z "},"9":{"ha":567,"x_min":0,"x_max":525,"o":"m 525 860 q 501 799 508 849 l 457 474 q 439 268 443 361 q 438 97 435 175 q 464 10 438 85 q 451 -1 458 1 q 435 0 454 0 q 374 147 375 0 q 378 244 374 179 q 382 340 382 308 q 368 347 382 347 q 311 338 349 347 q 254 328 274 328 q 74 382 140 328 q 0 553 0 443 q 78 786 0 654 q 260 932 165 932 q 426 842 283 932 q 440 897 426 897 q 464 889 449 897 q 525 860 525 878 m 422 768 q 376 822 422 781 q 285 871 324 871 q 131 724 206 871 q 64 503 64 592 q 235 376 63 376 q 314 388 267 376 q 383 422 368 403 l 422 768 z "}," ":{"ha":292,"x_min":0,"x_max":0,"o":""},"!":{"ha":279,"x_min":119,"x_max":244,"o":"m 244 881 q 175 328 175 689 q 177 224 175 267 q 185 153 179 181 q 157 156 165 142 q 124 249 131 203 q 119 350 119 279 q 123 444 119 379 q 133 608 126 508 q 158 903 149 822 q 192 917 164 917 q 244 881 217 917 m 206 24 q 194 -6 206 11 q 171 -22 183 -22 q 135 -9 151 -22 q 119 24 119 4 q 136 65 119 36 q 164 94 154 94 q 196 68 186 94 q 206 24 206 49 z "},"\"":{"ha":344,"x_min":67,"x_max":279,"o":"m 278 906 q 239 786 267 846 q 210 731 224 758 q 182 676 196 704 q 154 646 168 646 q 138 663 138 646 q 163 724 138 671 l 210 824 q 226 869 215 843 q 253 931 238 896 q 278 906 279 911 m 204 925 q 140 765 200 890 q 86 675 99 675 q 67 694 67 675 q 139 836 67 714 q 154 883 144 856 q 179 950 164 911 q 204 925 206 933 z "},"#":{"ha":631,"x_min":0,"x_max":592,"o":"m 592 692 q 563 657 592 663 l 422 628 l 407 507 l 561 532 q 586 519 586 532 q 576 498 586 510 q 557 485 567 486 l 399 457 l 386 351 q 387 337 388 346 q 385 317 386 328 q 338 283 368 283 q 328 292 328 283 l 349 446 l 226 425 l 208 301 q 209 287 210 296 q 207 267 208 278 q 160 242 196 242 q 142 253 144 242 l 167 414 l 64 390 q 25 379 44 379 q 0 404 0 379 q 28 442 0 431 l 176 469 l 194 576 l 64 549 q 25 538 44 538 q 0 563 0 538 q 28 600 0 589 l 203 638 l 222 768 q 253 803 228 804 q 274 789 274 800 q 269 747 274 782 q 258 647 265 711 l 378 671 l 397 810 q 426 844 403 851 q 440 811 440 840 q 428 681 440 797 l 567 704 q 592 692 592 704 m 251 592 l 233 478 l 356 499 l 374 617 l 251 592 z "},"$":{"ha":369,"x_min":3,"x_max":340,"o":"m 340 185 q 283 60 340 96 q 240 44 261 53 q 199 28 219 36 q 203 -18 203 7 q 194 -101 203 -54 q 164 -65 165 -108 q 162 -38 164 -65 q 157 44 160 -11 l 83 92 q 3 225 38 131 q 78 168 28 235 q 199 93 136 93 q 254 119 233 93 q 275 181 275 146 q 217 296 275 243 q 107 397 113 388 q 49 592 49 472 q 160 779 49 768 q 175 904 160 850 q 200 861 199 904 q 199 817 199 839 q 199 772 199 794 q 286 706 263 739 q 317 601 317 667 q 275 460 317 460 q 249 531 254 460 q 246 575 247 553 q 243 619 244 597 q 172 738 229 738 q 117 676 136 738 q 101 588 101 631 q 157 425 101 476 l 314 274 q 340 185 340 249 z "},"&":{"ha":826,"x_min":69,"x_max":788,"o":"m 788 318 q 775 296 788 310 l 679 296 q 597 219 653 296 q 513 117 533 132 q 592 29 539 89 q 650 -10 610 8 q 637 -23 650 -17 q 615 -29 624 -29 q 571 -1 596 -29 l 485 90 q 257 -17 353 -17 q 124 36 179 -17 q 69 168 69 88 q 132 347 69 260 l 261 497 q 219 714 219 624 q 250 849 219 786 q 350 928 288 928 q 463 875 414 928 q 510 758 510 824 q 439 606 510 694 q 406 568 435 600 q 321 474 376 536 q 338 426 325 460 q 375 338 351 393 l 671 339 q 788 318 779 336 m 468 785 q 460 824 468 804 q 440 859 453 843 q 409 885 426 875 q 372 896 392 896 q 289 814 321 896 q 267 689 267 756 q 301 542 267 629 q 372 615 318 554 q 468 785 468 721 m 490 293 q 460 293 475 293 q 429 292 444 293 l 400 292 q 438 235 415 265 q 488 168 460 204 q 536 221 500 168 q 571 293 571 274 l 490 293 m 449 126 q 353 290 443 146 q 299 294 333 290 q 244 299 258 299 q 245 310 244 306 q 247 321 246 315 q 328 338 271 322 q 282 446 315 356 q 107 132 107 331 q 147 53 107 89 q 235 18 188 18 q 381 65 304 18 q 449 126 449 107 z "},"'":{"ha":0,"x_min":-99,"x_max":14,"o":"m 14 896 q -39 757 14 867 q -76 694 -62 694 q -99 717 -97 694 q -19 943 -71 776 q 14 896 14 919 z "},"(":{"ha":301,"x_min":96,"x_max":313,"o":"m 313 -151 q 283 -158 296 -158 q 142 53 199 -158 q 96 394 96 225 q 163 817 96 664 q 178 867 169 842 q 194 915 186 892 q 249 989 222 989 q 263 985 254 989 q 278 977 271 982 q 292 967 286 972 q 297 957 297 961 l 264 921 q 189 733 228 864 q 140 429 140 567 q 153 253 140 363 q 183 82 168 131 q 264 -114 236 -81 q 288 -134 272 -125 q 313 -151 304 -143 z "},")":{"ha":243,"x_min":13,"x_max":178,"o":"m 178 346 q 164 146 178 210 q 133 -29 157 57 q 43 -164 96 -164 q 18 -147 24 -164 q 33 -134 25 -142 q 50 -117 40 -126 q 132 346 132 40 q 101 704 132 600 q 33 919 44 901 q 13 969 13 957 q 40 989 13 989 q 93 961 82 989 l 143 699 q 178 346 178 526 z "},"*":{"ha":301,"x_min":0,"x_max":214,"o":"m 214 832 q 204 813 210 818 q 138 803 181 813 q 160 767 139 796 q 179 739 179 739 q 163 729 179 729 q 110 793 149 729 q 60 729 86 747 q 51 746 51 739 q 58 766 51 749 q 67 790 65 783 q 41 783 61 789 q 15 778 21 778 q 0 790 0 778 q 33 813 0 801 l 83 829 q 54 899 74 846 q 67 907 60 907 q 113 850 72 907 q 156 908 132 883 q 172 886 172 892 q 156 861 172 882 q 143 844 147 850 q 138 838 139 839 q 156 840 147 839 q 172 840 165 840 q 214 832 199 840 z "},"+":{"ha":525,"x_min":58,"x_max":513,"o":"m 513 228 q 415 214 471 225 q 289 183 360 203 l 289 94 q 304 8 289 58 q 296 3 303 3 q 261 25 275 3 q 250 65 250 44 q 254 97 250 81 q 252 133 254 110 q 250 168 250 156 q 215 163 231 165 q 186 161 200 161 q 94 211 133 161 q 58 311 58 258 q 85 393 58 358 q 158 433 114 433 q 272 321 232 433 q 301 439 282 371 q 326 451 306 451 q 346 436 346 451 q 342 425 346 432 q 335 410 339 418 q 327 394 331 401 q 324 382 324 386 q 317 351 322 374 q 304 292 313 328 q 288 214 288 222 q 371 236 313 217 q 451 257 431 257 q 507 232 474 257 l 513 228 m 257 235 q 233 331 257 279 q 147 397 201 397 q 104 373 121 397 q 88 321 88 349 q 124 236 88 269 q 213 203 161 203 q 257 235 257 203 z "},",":{"ha":214,"x_min":-43,"x_max":81,"o":"m 81 46 q 43 -26 81 38 q -18 -115 -4 -115 q -43 -96 -43 -115 q 6 -4 -43 -90 q 22 33 13 11 q 44 85 31 56 q 81 46 81 68 z "},"-":{"ha":407,"x_min":68,"x_max":368,"o":"m 368 292 q 350 266 368 278 q 315 251 332 254 q 235 249 275 250 q 154 244 194 247 q 129 242 144 243 q 94 239 114 242 q 68 247 68 238 q 99 278 68 272 q 171 285 99 278 q 222 288 189 286 q 306 292 256 289 q 322 294 313 293 q 346 297 332 294 q 368 292 368 301 z "},".":{"ha":175,"x_min":38,"x_max":121,"o":"m 121 40 q 79 -12 121 -12 q 38 26 38 -12 q 51 59 38 43 q 79 75 64 75 q 121 40 121 75 z "},"/":{"ha":542,"x_min":-6,"x_max":536,"o":"m 501 903 q 523 892 510 903 q 536 874 536 882 q 479 796 536 857 q 363 646 428 743 q 217 407 297 549 q 35 0 51 115 q 21 -12 32 -12 q 2 -1 10 -12 q -6 24 -6 11 q 161 388 19 133 q 268 572 218 489 q 363 719 318 654 l 433 822 q 501 903 488 897 z "},":":{"ha":203,"x_min":64,"x_max":153,"o":"m 153 328 q 115 292 153 292 q 86 304 99 292 q 74 333 74 317 q 80 358 74 344 q 96 372 86 372 q 153 328 153 357 m 138 40 q 99 1 138 1 q 64 40 64 1 q 74 66 64 54 q 99 78 85 78 q 138 40 138 78 z "},";":{"ha":253,"x_min":1,"x_max":167,"o":"m 167 311 q 128 279 167 279 q 83 318 83 279 q 121 360 83 343 q 153 345 140 360 q 167 311 167 331 m 144 25 q 94 -43 144 17 q 17 -118 33 -118 q 1 -100 1 -118 q 28 -61 1 -79 q 76 -4 57 -40 q 92 29 83 13 q 108 63 100 46 q 144 25 144 47 z "},"<":{"ha":533,"x_min":-6,"x_max":453,"o":"m 446 603 q 399 546 453 576 q 64 347 249 415 q 343 276 168 290 q 440 246 439 268 q 392 229 442 229 q 219 246 303 229 q 156 262 197 251 q 56 290 115 272 q -1 361 -6 318 q 18 392 0 383 q 58 400 26 394 q 171 447 85 404 q 358 561 286 503 q 392 586 374 574 q 429 613 410 599 q 446 603 442 618 z "},"=":{"ha":533,"x_min":38,"x_max":426,"o":"m 426 469 q 407 442 426 454 q 371 426 388 429 q 242 423 318 425 q 64 415 165 421 q 38 425 38 414 q 69 458 38 450 q 101 463 83 461 q 143 465 119 464 q 231 468 176 467 q 361 472 285 469 q 378 474 368 474 q 404 478 389 475 q 426 469 426 479 m 426 314 q 407 286 426 299 q 371 271 388 274 q 242 267 318 269 q 64 260 165 265 q 38 269 38 258 q 69 303 38 294 q 101 307 83 306 q 143 310 119 308 q 231 313 176 311 q 361 317 285 314 q 378 319 368 318 q 404 322 389 319 q 426 314 426 324 z "},">":{"ha":533,"x_min":35,"x_max":482,"o":"m 474 326 q 449 300 469 304 q 408 300 442 297 q 135 222 306 294 q 49 190 54 189 q 38 207 35 190 q 99 246 40 226 q 190 288 133 264 q 410 354 310 336 q 122 475 319 418 q 42 522 35 499 q 89 531 43 535 q 315 465 207 518 l 426 408 q 474 326 482 371 z "},"?":{"ha":543,"x_min":-49,"x_max":474,"o":"m 474 760 q 442 621 474 682 q 407 567 431 599 q 349 496 383 536 q 260 389 300 438 q 192 300 221 340 l 167 213 q 175 185 167 199 q 183 168 183 172 q 165 156 183 156 q 135 233 135 156 q 211 415 135 313 q 269 492 235 446 q 351 601 304 539 q 428 801 428 707 q 336 900 428 900 q 110 738 243 900 q 56 669 78 699 q 24 619 35 640 q -12 489 -12 554 q -12 475 -12 482 q -11 463 -12 469 q -49 510 -49 454 q 8 686 -49 585 q 125 835 60 771 q 332 944 236 944 q 440 885 401 944 q 474 760 474 832 m 211 44 q 197 3 211 22 q 163 -15 183 -15 q 125 25 125 -15 q 135 61 125 43 q 163 79 146 79 q 211 44 211 79 z "},"@":{"ha":758,"x_min":29,"x_max":719,"o":"m 453 603 q 418 667 447 667 q 376 600 394 667 q 364 560 371 585 q 347 503 357 535 q 325 293 325 418 q 335 249 325 269 q 367 222 347 222 q 425 329 396 240 q 453 453 453 413 q 461 517 453 475 q 469 581 469 560 l 453 603 m 453 315 q 360 185 418 185 q 281 389 276 185 q 290 460 282 415 q 317 569 299 504 q 385 714 357 714 q 463 682 446 714 l 488 632 l 536 615 q 492 358 496 492 q 510 297 490 335 q 554 261 531 261 q 592 276 576 261 q 653 390 631 315 q 672 519 672 460 q 608 725 672 631 q 432 829 536 831 q 254 742 340 828 q 92 321 93 581 q 157 110 90 196 q 350 15 229 18 q 551 113 453 14 q 590 139 578 139 q 607 115 607 139 q 601 83 607 100 q 369 -18 499 -18 q 110 82 211 -18 q 31 304 32 160 q 214 772 29 583 q 431 867 306 864 q 642 754 556 869 q 719 521 719 649 q 700 379 719 460 q 674 303 688 333 q 642 253 660 272 q 602 227 624 235 q 553 219 581 219 q 489 251 521 219 q 453 315 465 279 z "},"A":{"ha":939,"x_min":-36,"x_max":925,"o":"m 925 8 q 900 -6 925 -6 q 851 1 883 -6 q 746 314 801 67 q 582 301 688 306 q 483 297 524 299 q 419 292 443 294 q 372 211 400 260 q 303 99 343 163 q 126 -35 215 -35 q -36 65 11 -35 q -25 76 -29 75 q -14 76 -21 79 q 0 75 -8 75 q 68 33 0 33 q 247 113 172 33 q 356 286 290 160 q 335 288 344 288 q 318 289 326 289 q 292 285 308 289 q 268 282 276 282 q 235 301 235 282 q 385 328 235 311 q 544 674 454 442 q 625 919 625 878 q 622 930 625 924 q 619 940 619 936 q 663 958 619 958 q 715 935 676 958 q 754 899 754 913 q 751 866 754 888 q 749 833 749 844 q 807 367 749 643 q 851 176 831 257 q 892 44 872 96 q 910 20 897 28 q 925 8 922 13 m 719 460 q 674 772 679 701 q 672 801 672 792 q 671 811 671 811 q 654 844 664 836 q 617 761 642 821 q 557 603 593 701 q 492 442 521 507 q 442 338 464 376 l 738 344 q 719 460 738 353 z "},"B":{"ha":729,"x_min":-37,"x_max":764,"o":"m 764 788 q 725 697 764 749 q 653 626 692 650 q 578 586 631 613 q 440 519 525 560 q 661 292 661 479 q 553 75 661 189 q 342 -39 444 -39 q 206 -8 293 -39 q 128 22 118 22 q 115 -17 128 -17 q 58 122 58 -14 l 58 181 q 60 236 60 221 q 60 244 60 253 q 64 519 60 388 q 78 775 68 650 l 85 864 q 24 864 82 867 q -31 893 -12 861 q 83 921 -37 907 q 108 979 83 979 q 151 935 151 979 q 469 963 299 963 q 654 924 568 963 q 764 788 764 874 m 700 813 q 479 913 700 913 q 419 908 460 913 q 315 897 378 904 q 218 885 258 890 q 153 874 178 879 q 132 486 132 704 q 490 585 228 492 q 622 678 553 607 q 700 813 700 756 m 604 328 q 376 474 604 474 q 136 414 183 474 q 118 314 118 392 q 118 275 118 299 q 119 222 118 253 q 122 169 121 192 q 122 132 122 147 q 122 101 122 117 q 121 72 122 86 q 155 60 132 69 q 210 32 178 50 q 288 1 267 1 q 506 121 399 1 q 604 328 604 232 z "},"C":{"ha":593,"x_min":0,"x_max":582,"o":"m 563 176 q 582 160 582 174 q 569 122 582 153 q 432 21 522 61 q 260 -17 342 -17 q 61 78 131 -17 q 0 296 0 164 q 60 636 0 449 q 239 935 132 865 q 319 953 265 953 q 468 910 396 953 q 529 854 514 883 q 550 736 550 817 q 533 599 550 688 q 486 488 513 488 q 457 515 468 488 q 447 557 447 536 q 471 685 447 594 q 494 818 494 776 q 436 892 494 864 q 339 915 389 915 q 150 682 235 915 q 71 260 71 467 q 243 26 71 26 q 540 136 397 26 l 563 176 l 563 176 z "},"D":{"ha":761,"x_min":-31,"x_max":754,"o":"m 754 631 q 710 386 754 543 q 589 101 660 214 q 410 -35 503 -35 q 357 -15 383 -35 l 307 21 q 246 46 289 31 l 246 18 q 250 3 250 10 q 232 -11 250 -11 q 192 38 192 -11 q 190 74 192 53 q 186 124 189 96 q 182 211 182 182 q 187 402 182 310 q 201 583 192 494 l 219 765 q 218 790 219 783 q 8 688 94 744 q 0 667 0 681 q -4 640 -1 647 q -22 647 -14 636 q -31 669 -31 658 q 92 778 -31 715 q 126 794 92 778 q 231 844 160 811 q 219 924 231 917 q 256 940 219 940 q 317 885 317 940 q 467 915 414 915 q 569 906 542 915 q 653 849 610 893 q 697 800 679 821 q 721 765 714 779 q 754 631 754 708 m 688 660 q 624 826 688 779 q 444 867 567 867 q 307 832 347 867 q 240 114 271 719 l 304 58 q 381 26 349 26 q 593 247 493 26 q 688 660 688 460 z "},"E":{"ha":828,"x_min":0,"x_max":815,"o":"m 815 149 q 643 24 815 78 q 410 -19 506 -19 q 143 38 257 -19 q 0 250 0 110 q 76 419 0 347 q 238 525 129 469 q 136 578 169 549 q 96 679 96 615 q 310 890 96 819 q 636 940 461 940 q 725 931 700 940 q 774 867 774 915 q 757 825 774 825 q 710 864 740 840 q 643 876 686 876 q 344 835 492 876 q 135 663 135 775 q 206 588 135 614 q 317 569 256 569 q 446 578 335 569 q 524 583 494 581 q 565 583 554 585 q 582 542 583 571 q 560 506 579 513 q 511 525 528 525 q 240 464 390 525 q 39 244 39 381 q 181 81 39 132 q 415 43 282 43 q 550 57 468 43 q 679 90 643 71 q 771 149 771 138 q 767 151 771 151 l 767 178 q 815 149 815 178 z "},"F":{"ha":618,"x_min":-19,"x_max":825,"o":"m 825 893 q 807 882 825 883 q 761 882 796 879 q 728 883 742 883 q 707 883 715 883 q 651 881 685 883 q 569 874 617 879 l 375 854 q 313 461 313 618 q 333 463 319 463 q 367 464 347 464 q 431 463 393 464 q 519 458 469 461 q 521 449 521 454 q 422 415 521 418 q 308 407 315 414 q 304 336 308 458 q 302 235 303 274 q 301 178 301 196 q 318 -4 301 38 q 293 -8 303 -8 q 246 81 246 -8 l 246 325 q 247 346 246 333 q 248 372 247 358 q 249 397 249 385 q 250 418 250 410 q 178 422 218 419 q 90 432 139 425 q 89 438 88 433 q 92 443 92 443 q 178 454 121 454 q 207 454 193 454 q 233 453 222 454 l 249 453 q 282 844 258 586 q 176 833 231 839 q 63 819 122 826 q 36 808 49 817 q 21 798 26 801 q 14 793 15 794 q -17 825 7 793 q -19 842 -19 839 q 32 874 -19 868 q 88 878 54 875 q 165 883 121 881 q 410 905 296 897 q 624 915 524 913 q 701 910 667 913 q 760 910 735 908 q 825 893 825 913 z "},"G":{"ha":729,"x_min":0,"x_max":728,"o":"m 728 404 q 600 369 728 390 q 593 319 597 347 q 582 254 589 290 q 465 72 563 151 q 263 -7 367 -7 q 64 74 132 -7 q 0 282 0 147 q 157 810 0 549 q 224 897 196 874 q 326 931 263 931 q 500 871 363 931 q 553 825 526 860 q 588 729 588 782 q 543 538 588 538 q 492 638 492 538 q 496 704 492 660 q 500 771 500 747 q 446 850 500 814 q 351 883 397 883 q 211 749 283 883 q 71 264 71 492 q 246 36 71 36 q 440 119 344 36 q 536 301 536 204 q 513 365 536 350 q 131 331 233 365 q 176 376 131 365 q 613 425 419 425 q 728 404 728 425 z "},"H":{"ha":731,"x_min":-31,"x_max":731,"o":"m 731 393 q 696 372 731 382 q 671 366 682 368 q 653 363 660 364 q 596 358 622 360 q 546 356 569 357 q 542 265 546 325 q 540 213 540 235 q 539 175 539 190 q 588 -3 539 58 q 526 -25 553 -25 q 493 0 515 -25 q 458 39 472 24 q 433 63 443 54 q 365 121 403 90 q 282 186 326 151 q 128 281 158 281 q 123 197 125 231 q 121 143 121 163 q 125 63 121 100 q 136 -6 129 26 q 75 14 86 -12 q 65 88 74 17 q 61 168 61 122 q 65 264 61 211 l 69 317 l 10 317 q -31 342 -31 319 q 8 376 -31 368 q 33 381 18 379 q 69 386 47 383 q 103 789 103 674 q 94 882 103 850 q 165 858 147 876 q 182 786 182 839 q 177 706 182 754 q 163 593 172 658 q 148 479 153 528 q 143 399 143 431 q 197 396 161 396 q 290 397 235 396 l 494 403 q 498 444 496 417 q 503 513 500 472 l 529 872 q 526 890 529 878 q 524 908 524 901 q 565 939 524 939 q 614 923 590 939 q 638 882 638 907 q 625 833 638 868 q 613 799 618 813 q 607 781 608 786 q 592 690 600 744 q 572 558 583 635 l 551 406 q 629 401 599 403 q 675 399 660 399 q 710 408 694 408 q 731 393 731 408 m 490 349 q 429 353 474 351 q 310 354 385 354 q 200 354 231 354 q 189 356 171 354 q 131 332 131 353 q 151 313 131 322 q 181 299 169 306 q 199 289 192 293 q 258 251 222 274 q 343 197 294 228 q 492 47 436 136 l 490 349 z "},"I":{"ha":418,"x_min":-36,"x_max":451,"o":"m 451 885 q 412 868 426 874 q 392 861 397 863 l 253 838 q 204 517 222 740 q 188 150 188 317 q 194 35 188 56 q 199 35 186 35 q 249 38 213 36 q 356 22 356 42 q 288 -4 343 8 q 96 -24 207 -24 q -36 -6 -35 -24 q 38 15 -36 7 l 136 26 q 135 47 136 35 q 132 74 133 60 q 129 101 131 88 q 128 122 128 114 q 132 231 128 136 q 143 508 136 326 q 151 833 156 817 q 4 838 67 833 q 29 856 15 847 q 61 875 43 865 q 317 900 296 900 q 340 900 326 900 q 374 899 354 900 q 407 897 393 897 q 432 897 422 897 q 451 885 444 897 z "},"J":{"ha":500,"x_min":-47,"x_max":451,"o":"m 451 875 q 449 901 451 907 q 440 854 446 896 q 419 654 429 779 q 411 543 414 588 q 408 472 408 499 q 408 422 408 453 q 410 353 408 393 q 412 283 411 313 q 413 233 413 253 q 400 86 413 129 q 301 0 376 0 q 100 61 231 0 q -44 190 -40 131 q -12 219 -47 219 q 47 178 7 219 q 124 99 111 107 q 228 57 175 57 q 336 149 308 57 q 356 367 356 215 q 355 494 356 428 q 353 633 354 560 l 350 826 q 343 854 350 836 q 336 881 336 872 q 375 914 336 914 q 451 875 451 914 z "},"K":{"ha":649,"x_min":-24,"x_max":681,"o":"m 681 850 q 581 729 649 793 q 538 692 569 718 q 457 622 507 665 q 330 522 394 569 q 199 429 265 474 q 99 361 99 364 q 306 197 99 308 q 575 86 501 94 q 596 85 586 85 q 618 85 607 85 q 651 69 649 83 q 647 64 651 69 q 631 47 642 58 q 600 25 613 25 q 476 69 585 25 q 306 147 400 101 q 96 256 211 193 q 96 146 96 188 q 97 92 96 106 q 118 10 100 31 q 93 -3 118 -3 q 38 117 40 -3 l 38 201 q 39 254 39 233 q 39 288 39 276 q -24 342 -6 313 l -14 374 q 13 386 -3 378 q 49 406 28 394 q 52 472 49 426 q 63 588 56 517 q 72 697 69 651 q 72 771 74 743 l 67 882 q 128 949 110 949 q 163 904 163 949 q 158 931 163 940 q 147 868 154 922 q 133 761 140 822 q 119 622 126 700 q 108 498 113 544 q 104 433 104 451 q 176 480 144 460 q 232 515 208 500 q 444 678 358 600 q 647 907 603 819 q 669 886 660 907 q 681 850 679 865 z "},"L":{"ha":932,"x_min":-17,"x_max":975,"o":"m 975 -92 q 921 -114 961 -114 q 754 -46 857 -114 q 588 63 649 24 q 508 111 526 101 q 478 58 493 79 q 453 25 464 36 q 269 -37 388 -37 q 74 49 167 -37 q -17 239 -17 136 q -9 268 -17 253 q 10 295 -1 283 q 35 315 21 307 q 65 322 50 322 q 290 278 164 322 q 365 247 319 267 q 474 197 411 228 q 496 449 496 285 q 472 447 488 449 q 442 442 457 444 q 411 437 426 439 q 388 435 396 435 q 328 456 328 435 q 343 482 328 467 q 389 471 358 471 q 503 494 456 471 q 549 753 540 719 q 678 974 604 974 q 817 847 742 974 q 853 785 851 789 q 867 717 867 756 q 818 628 867 681 q 739 560 785 590 q 669 520 711 542 q 572 475 628 499 q 558 359 569 439 q 525 154 547 279 q 624 90 574 124 q 725 19 674 57 q 803 -35 771 -14 q 853 -65 835 -56 q 975 -92 913 -96 m 793 747 q 772 843 793 793 q 707 904 744 904 q 579 524 635 904 q 726 601 679 560 q 793 747 793 657 m 461 146 q 110 281 267 281 q 43 236 43 281 q 118 94 43 174 q 308 3 203 3 q 367 14 339 3 q 415 44 394 25 q 449 89 436 63 q 461 146 461 115 z "},"M":{"ha":1046,"x_min":-114,"x_max":1044,"o":"m 1044 -92 q 1015 -121 1029 -121 q 899 88 936 -121 q 874 356 874 222 q 878 554 874 439 q 880 623 879 594 q 879 671 881 651 q 861 618 874 658 q 822 481 846 563 q 767 290 799 400 q 600 0 675 0 q 456 293 501 0 q 438 431 449 349 q 413 622 428 513 q 339 422 397 607 q 213 107 272 213 q 3 -57 119 -57 q -114 6 -67 -57 l -104 13 q -26 -1 -56 3 q 10 -6 3 -6 q 103 38 54 -6 q 169 121 142 72 q 314 476 249 261 q 382 851 382 701 q 424 914 382 914 q 508 872 451 914 q 494 678 494 839 q 501 468 494 565 q 521 285 507 371 q 613 71 554 71 q 743 338 653 71 q 811 558 783 457 q 854 742 839 658 q 856 775 856 751 q 857 838 856 799 q 875 889 858 883 q 994 853 990 889 q 954 582 975 810 q 940 408 944 481 q 936 290 936 335 q 1044 -92 936 -62 z "},"N":{"ha":742,"x_min":-68,"x_max":740,"o":"m 740 949 q 738 936 740 944 q 731 918 735 928 q 722 899 726 908 q 717 886 718 890 q 688 726 701 824 q 661 496 674 629 q 644 263 650 368 q 638 71 638 157 q 641 47 638 63 q 644 25 644 32 q 582 -7 644 -7 q 494 44 525 -7 q 449 169 483 58 q 380 428 413 278 q 317 778 347 579 q 293 654 307 742 q 260 428 279 567 q 189 106 229 206 q 22 -35 132 -35 q -68 11 -68 -35 q -50 33 -68 33 q -36 28 -42 33 q -42 18 -42 22 q -4 1 -42 1 q 235 514 158 1 q 276 906 276 789 q 275 928 276 924 q 329 963 297 963 q 401 913 401 963 q 460 310 401 569 q 569 68 514 68 q 596 143 593 68 l 604 331 q 618 483 610 393 q 638 696 626 574 q 713 969 661 901 q 740 949 740 965 z "},"O":{"ha":606,"x_min":0,"x_max":572,"o":"m 572 586 q 521 213 572 367 q 271 -19 443 -19 q 65 92 139 -19 q 0 328 0 190 q 32 607 0 464 q 138 865 69 771 q 160 899 149 882 q 183 931 172 915 q 246 972 217 972 q 278 961 253 972 q 296 968 289 968 q 572 586 572 950 m 521 593 q 485 806 521 718 q 325 925 435 925 q 139 686 218 925 q 74 331 74 488 q 261 24 74 24 q 521 593 521 24 z "},"P":{"ha":686,"x_min":-35,"x_max":760,"o":"m 760 746 q 540 465 760 581 q 176 347 394 389 l 169 149 q 208 -3 169 22 q 195 -5 204 -3 q 182 -7 186 -7 q 133 15 147 -7 q 119 76 125 29 q 115 169 117 104 q 113 335 113 233 q 83 338 100 333 l 89 369 l 117 376 q 125 653 115 468 l 135 821 q 82 807 108 815 q 28 785 56 799 q -24 753 -11 765 q -11 831 -35 807 q 61 863 4 847 q 112 877 93 872 q 135 883 131 882 l 140 950 q 186 964 156 965 q 229 919 229 963 q 228 903 229 908 q 492 938 389 938 q 669 894 597 938 q 760 746 760 842 m 688 778 q 521 893 688 893 q 324 868 463 893 q 287 860 313 865 q 221 847 261 856 q 189 603 203 797 q 176 389 176 442 q 289 422 243 408 q 363 446 335 436 q 553 542 490 492 q 688 778 688 651 z "},"Q":{"ha":576,"x_min":0,"x_max":557,"o":"m 557 574 q 525 275 557 439 q 361 -19 479 47 q 533 -56 461 -56 q 547 -54 544 -56 l 540 -76 q 526 -79 538 -79 q 474 -76 506 -79 q 403 -68 443 -74 q 331 -60 363 -62 q 279 -57 300 -57 q 99 -75 169 -57 q 67 -92 90 -76 q 42 -106 47 -106 q 32 -89 32 -106 q 79 -44 32 -62 q 154 -12 146 -18 q 0 394 0 79 q 81 782 0 582 q 146 908 118 876 q 260 960 189 958 q 433 897 333 963 q 544 760 521 842 q 557 574 557 715 m 489 529 q 447 833 489 756 q 401 863 440 843 q 374 884 383 876 q 364 893 365 892 q 317 906 343 906 q 219 865 257 906 q 157 756 192 833 q 71 338 71 556 q 106 124 71 210 q 263 1 153 1 q 450 215 392 1 q 489 529 489 354 z "},"R":{"ha":775,"x_min":-31,"x_max":853,"o":"m 853 735 q 778 613 853 689 q 660 518 714 546 q 331 376 457 410 q 393 268 339 344 q 474 167 443 197 q 526 119 499 142 q 585 78 554 97 q 715 31 661 31 q 740 37 724 31 q 764 43 757 43 q 772 33 772 43 q 711 0 753 19 q 590 31 657 0 q 482 96 528 57 q 293 289 411 156 q 239 350 251 350 q 211 276 218 350 q 211 229 211 253 q 210 182 211 206 q 208 141 208 154 q 207 126 207 128 q 224 -32 207 57 q 204 -50 218 -50 q 168 -19 182 -50 q 156 28 156 3 q 156 156 154 81 q 163 332 158 232 q 170 513 168 438 q 172 638 172 589 q 174 667 172 647 q 178 717 175 686 q 182 765 181 747 q 183 788 183 782 q 76 747 161 788 q -6 692 -6 707 q 3 679 -6 688 q -11 672 -4 672 q -31 701 -31 672 q 71 790 -31 743 l 179 840 q 183 882 185 850 q 183 909 182 899 q 185 925 183 919 q 232 913 222 918 q 256 871 250 901 q 597 915 503 915 q 764 871 686 915 q 853 735 853 819 m 767 763 q 600 871 767 871 q 256 810 456 871 q 246 674 251 742 q 233 536 240 607 q 226 456 228 489 q 224 403 224 422 q 383 442 282 410 q 471 472 432 457 q 539 503 510 488 q 686 608 619 542 q 767 763 767 689 z "},"S":{"ha":596,"x_min":-36,"x_max":557,"o":"m 557 88 q 483 -11 557 22 q 351 -39 424 -39 q -4 43 153 -39 q -36 83 -36 60 q -21 104 -36 97 q -8 92 -17 101 q 17 68 1 83 q 110 40 24 61 q 333 11 228 11 q 483 97 483 11 q 444 164 483 147 l 125 301 q 29 468 29 343 q 144 826 29 593 q 272 938 201 938 q 422 874 354 938 q 499 729 493 810 q 503 638 501 682 q 506 551 506 594 q 475 468 506 468 q 443 515 443 468 q 431 736 443 615 q 392 836 424 789 q 307 893 354 893 q 167 713 239 893 q 103 468 103 556 q 128 381 103 422 q 196 324 154 340 l 444 219 q 557 88 557 171 z "},"T":{"ha":772,"x_min":-24,"x_max":986,"o":"m 985 864 q 956 842 983 842 q 568 825 768 842 q 531 553 558 775 q 502 303 513 413 q 488 110 492 193 q 497 -24 485 54 q 481 -19 490 -22 q 460 -10 471 -15 q 432 97 432 22 q 453 429 432 208 q 469 622 464 540 q 475 760 475 704 q 474 788 475 775 q 472 811 474 800 q 329 807 435 815 q 17 724 17 783 q 142 679 17 679 q 404 717 281 679 q 346 667 379 675 q 125 635 215 635 q 19 654 54 635 q -24 746 -24 681 q 47 826 -24 807 l 219 849 q 380 863 279 856 q 624 876 481 869 q 819 884 739 882 q 947 886 900 886 q 985 864 986 886 z "},"U":{"ha":753,"x_min":-24,"x_max":742,"o":"m 742 807 q 729 782 736 799 q 715 740 722 765 q 699 667 701 690 l 654 233 l 654 93 q 685 -54 658 -33 q 656 -61 675 -61 q 603 47 611 -61 q 601 92 603 47 q 594 225 599 136 q 542 120 563 158 q 511 68 521 82 q 368 -19 449 -19 q 151 324 151 -19 q 206 671 151 451 q 49 593 104 593 q -24 628 11 593 q -11 626 -17 626 q 1 626 -6 626 q 301 918 169 626 q 374 874 374 896 q 350 836 374 864 q 322 799 326 807 q 218 311 218 550 q 238 125 218 190 q 368 18 274 18 q 513 146 446 18 q 553 234 535 186 q 586 340 571 282 q 639 721 639 540 q 633 813 639 786 q 629 838 629 826 q 656 853 638 853 q 742 807 681 853 z "},"V":{"ha":763,"x_min":-29,"x_max":738,"o":"m 738 885 q 674 268 738 542 q 481 -51 600 -51 q 321 89 371 -51 q 285 321 285 190 q 289 417 285 360 q 300 550 293 474 q 317 781 317 704 q 272 876 317 876 q 126 743 219 876 q 18 556 43 624 q 1 494 14 546 q -12 465 -6 465 q -29 493 -29 465 q 83 772 -29 593 q 267 931 185 931 q 354 874 317 931 q 388 771 388 824 q 383 669 388 731 q 369 525 379 608 q 353 276 353 360 q 376 114 353 201 q 468 0 410 0 q 633 336 563 0 q 678 616 664 479 q 693 883 693 753 q 694 890 693 886 q 696 900 694 893 q 696 917 697 910 q 688 935 694 924 q 710 946 703 946 q 738 885 738 946 z "},"W":{"ha":778,"x_min":0,"x_max":747,"o":"m 747 714 q 686 222 747 438 q 504 -19 617 -19 q 357 158 406 -19 q 335 219 340 221 q 179 -44 283 -44 q 0 433 0 -44 q 5 590 0 496 q 19 813 10 685 q 14 844 14 825 q 47 893 14 893 q 92 878 68 893 q 115 842 115 863 q 97 740 115 807 q 74 635 75 660 q 63 497 67 572 q 60 333 60 422 q 81 149 60 242 q 172 11 111 11 q 268 117 222 11 q 313 264 300 192 q 335 462 326 344 q 347 738 344 579 q 344 763 347 746 q 342 788 342 779 q 389 797 365 797 q 447 771 426 797 q 394 306 394 718 q 399 222 394 263 q 414 140 404 181 q 501 18 443 18 q 638 249 578 18 q 693 539 674 385 q 701 657 700 601 q 701 703 701 676 q 700 764 701 731 l 697 869 q 689 901 697 885 q 681 935 681 918 q 694 947 681 947 q 725 926 714 947 q 747 714 747 888 z "},"X":{"ha":690,"x_min":0,"x_max":744,"o":"m 415 458 q 522 121 474 208 q 547 74 532 101 q 581 10 561 46 q 686 -44 615 -42 q 678 -62 686 -61 q 656 -64 676 -64 q 493 44 561 -64 q 430 177 463 93 q 363 382 397 261 q 147 0 147 54 l 153 -44 q 93 6 93 -40 q 217 240 93 50 q 342 451 342 429 q 308 631 321 565 q 290 714 296 696 q 217 817 261 817 q 89 679 153 817 q 35 507 33 558 q 42 475 42 486 q 25 456 42 456 q 0 497 0 456 q 60 731 0 611 q 201 864 124 864 q 315 808 276 864 q 330 781 322 799 q 347 736 338 764 q 377 638 363 690 q 403 526 392 586 q 732 899 568 763 q 744 883 744 892 q 708 826 744 869 l 658 772 q 500 582 561 660 q 415 458 439 504 z "},"Y":{"ha":558,"x_min":-82,"x_max":540,"o":"m 540 883 q 513 763 524 815 q 496 675 501 711 q 479 511 485 600 q 474 315 474 422 q 476 240 474 285 q 481 136 478 196 q 489 -42 489 17 q 421 -261 489 -158 q 233 -376 343 -376 q 56 -332 178 -376 q -82 -236 -82 -281 q -46 -211 -82 -211 q 47 -275 -33 -211 q 182 -339 128 -339 q 425 65 425 -339 q 423 156 425 101 q 415 286 421 211 q 344 106 368 147 q 201 -3 283 -3 q 50 89 97 -3 q 13 274 13 161 q 17 375 13 314 q 28 519 21 436 q 44 765 44 683 q 43 792 44 774 q 42 818 42 810 q 67 861 42 861 q 135 814 78 861 q 124 765 135 814 q 119 748 121 756 q 117 733 118 740 q 87 498 97 611 q 76 276 76 385 q 189 31 76 31 q 335 168 265 31 q 415 439 396 289 q 437 647 426 535 q 454 893 447 760 q 493 918 456 919 q 540 883 539 917 z "},"Z":{"ha":647,"x_min":-31,"x_max":653,"o":"m 653 758 q 603 711 653 736 l 594 707 q 231 333 556 688 q 122 197 196 296 q 39 60 39 82 q 92 43 39 43 q 240 60 136 43 q 333 74 293 69 q 400 78 372 78 q 513 69 451 78 q 599 40 599 58 q 564 18 599 18 q 543 19 556 18 q 517 23 531 21 q 492 26 504 25 q 471 28 479 28 q 405 24 443 28 q 318 13 367 19 l 178 -8 q 149 -15 167 -10 q 104 -26 131 -19 q 32 -42 51 -42 q -14 -15 3 -42 q -31 36 -31 6 q 51 197 -31 74 q 126 301 89 253 q 199 390 163 350 l 411 632 q 525 778 525 763 q 475 796 525 796 q 117 746 296 796 q 74 711 72 733 q 42 733 42 711 q 113 792 42 768 q 261 825 154 804 q 434 854 365 844 q 535 864 503 864 q 617 835 582 864 q 653 758 653 806 z "},"[":{"ha":404,"x_min":101,"x_max":358,"o":"m 358 -100 q 326 -131 358 -131 q 232 -139 294 -131 q 179 -147 201 -144 q 143 -149 157 -149 q 121 -133 121 -149 l 119 388 q 115 699 119 571 q 104 901 111 826 q 165 928 101 926 l 326 928 q 351 910 351 928 q 336 868 351 881 q 328 864 332 864 q 316 866 324 864 q 299 872 308 868 q 279 877 289 875 q 264 879 269 879 q 176 864 218 879 q 165 772 169 826 q 161 642 161 717 q 163 733 163 797 q 163 388 163 671 q 189 -83 163 44 q 219 -92 203 -89 q 242 -92 229 -93 q 254 -90 249 -90 q 264 -90 261 -90 q 299 -87 276 -90 q 335 -85 322 -85 q 358 -100 358 -85 z "},"\\":{"ha":139,"x_min":4,"x_max":188,"o":"m 28 33 q 99 174 53 33 q 157 379 129 265 q 176 411 165 411 q 188 390 188 411 q 133 179 188 343 q 36 -3 72 -3 q 4 10 4 -3 q 13 26 4 21 q 28 33 22 31 z "},"]":{"ha":375,"x_min":54,"x_max":311,"o":"m 308 -111 q 247 -137 311 -136 l 86 -137 q 61 -119 61 -137 q 76 -78 61 -90 q 85 -74 81 -74 q 97 -76 89 -74 q 114 -81 104 -78 q 133 -87 124 -85 q 149 -89 142 -89 q 235 -74 193 -89 q 251 147 249 -1 q 250 182 250 119 q 250 401 250 246 q 225 874 250 740 q 194 882 206 881 q 171 882 185 883 q 157 881 164 881 q 149 881 151 881 q 113 878 136 881 q 78 875 90 875 q 54 890 54 875 q 86 921 54 921 q 179 929 118 921 q 233 937 211 935 q 269 939 256 939 q 292 924 292 939 l 293 401 q 297 91 293 218 q 308 -111 301 -36 z "},"^":{"ha":433,"x_min":89,"x_max":433,"o":"m 433 535 q 419 521 433 521 q 335 651 394 521 q 293 753 311 701 q 261 861 275 806 q 242 849 249 854 q 235 843 236 844 q 226 811 229 838 q 216 786 225 808 q 190 721 207 764 q 163 638 179 688 q 122 522 146 589 q 99 503 111 503 q 89 553 89 503 q 114 657 89 594 q 142 727 132 700 q 154 765 151 754 q 192 883 178 861 q 292 933 222 939 q 315 867 308 917 q 382 683 333 821 q 406 616 396 644 q 425 568 417 588 q 433 535 433 549 z "},"_":{"ha":694,"x_min":-3,"x_max":699,"o":"m -3 -167 l -3 -108 l 699 -108 l 699 -167 l -3 -167 z "},"`":{"ha":325,"x_min":-11,"x_max":131,"o":"m 115 714 l 51 751 q 42 756 49 753 q 26 765 36 760 q -11 808 -11 788 q 15 838 -11 832 q 63 817 46 843 q 74 806 65 814 q 96 785 82 797 q 131 742 131 751 q 124 722 131 736 l 115 714 z "},"a":{"ha":325,"x_min":-37,"x_max":374,"o":"m 138 389 q 103 453 132 453 q 61 386 79 453 q 49 346 56 371 q 32 289 42 321 q 10 79 10 204 q 19 35 10 56 q 51 8 32 8 q 107 115 78 24 q 126 183 118 151 q 138 239 135 214 l 154 367 l 138 389 m 222 0 q 138 101 171 0 q 44 -28 101 -28 q -33 175 -37 -28 q 1 356 -31 229 q 69 500 42 500 q 147 468 131 500 l 172 418 l 221 401 q 174 153 186 300 q 179 86 171 121 q 214 38 190 38 q 343 379 261 38 q 363 411 351 411 q 374 390 374 411 q 322 181 374 339 q 222 0 264 0 z "},"b":{"ha":349,"x_min":0,"x_max":249,"o":"m 249 354 q 222 135 249 253 q 125 -35 186 -35 q 64 28 90 -35 l 51 28 q 32 7 44 7 q 10 23 19 7 q 0 53 0 39 q 3 67 0 58 q 8 289 1 172 q 31 536 15 406 q 47 661 38 586 q 69 838 57 736 q 71 897 75 883 q 107 910 79 913 q 140 875 140 910 q 131 826 140 861 q 120 785 125 806 q 113 744 115 764 q 67 455 82 571 q 51 276 51 339 q 79 365 65 310 q 163 478 108 478 q 249 354 249 478 m 204 328 q 172 443 204 443 q 92 282 133 443 q 54 79 54 142 q 88 33 67 68 q 118 13 100 13 q 174 97 151 13 q 204 328 204 203 z "},"c":{"ha":229,"x_min":-14,"x_max":278,"o":"m 267 411 q 278 388 278 411 q 253 274 278 365 q 203 111 221 158 q 100 -6 154 -6 q 6 67 35 -6 q -14 194 -14 121 q 13 372 -14 268 q 97 507 47 507 q 140 478 117 507 q 164 428 164 447 q 140 394 164 394 q 90 418 122 394 q 33 143 33 349 q 44 78 33 111 q 88 35 58 35 q 236 333 167 35 q 249 390 247 385 q 267 411 254 411 z "},"d":{"ha":346,"x_min":-26,"x_max":394,"o":"m 139 472 q 54 335 93 472 q 22 156 22 219 q 53 21 22 21 q 124 124 83 21 q 150 199 139 163 q 168 268 161 235 q 171 294 169 276 q 175 339 172 311 q 179 378 178 361 q 181 410 181 396 q 139 472 181 472 m 235 33 q 306 174 260 33 q 364 379 336 265 q 383 411 372 411 q 394 390 394 411 q 340 179 394 343 q 243 -3 279 -3 q 165 135 178 -3 q 140 74 150 96 q 125 44 129 51 q 58 -18 92 -18 q -8 35 15 -18 q -26 126 -26 72 q 17 379 -26 238 q 118 536 65 536 q 161 515 136 536 q 189 496 188 496 q 194 500 192 496 q 216 664 203 565 q 247 897 229 763 q 260 940 243 935 q 283 942 265 942 q 311 900 317 942 q 290 790 303 857 q 260 631 278 722 q 250 556 258 621 q 226 369 242 492 q 209 219 215 278 q 203 138 203 161 q 235 33 206 39 z "},"e":{"ha":264,"x_min":-8,"x_max":313,"o":"m 313 394 q 292 301 313 385 q 188 22 239 93 q 114 -18 156 -18 q 19 47 56 -18 q -8 165 -8 103 q -4 256 -8 208 q 10 356 0 303 q 86 507 36 507 q 140 486 115 507 q 165 436 165 465 q 106 206 165 333 q 47 99 82 153 q 71 44 47 75 q 118 15 93 15 q 268 332 185 15 q 294 411 289 411 q 313 394 313 411 m 128 421 q 108 468 128 468 q 92 450 97 468 q 40 150 40 296 q 101 275 72 169 q 128 421 128 367 z "},"f":{"ha":246,"x_min":-22,"x_max":294,"o":"m 294 392 q 274 300 294 375 q 249 213 258 247 q 236 161 240 178 q 188 74 221 101 q 133 44 171 58 q 172 -214 172 -115 q 125 -486 172 -406 q 90 -497 118 -497 q -18 -233 -22 -497 q 78 897 -10 331 q 121 907 89 907 q 163 890 143 907 q 115 765 128 839 q 67 452 86 594 q 42 192 49 310 q 94 147 71 188 q 122 82 100 139 q 203 169 165 72 q 230 253 214 197 q 268 393 246 308 q 281 411 272 411 q 294 392 294 411 m 140 -242 q 97 42 140 -67 q 42 99 61 60 q 25 -236 25 -104 q 28 -295 25 -264 q 36 -361 31 -326 q 83 -462 54 -462 q 126 -364 110 -462 q 137 -296 133 -326 q 140 -242 140 -265 z "},"g":{"ha":322,"x_min":-214,"x_max":399,"o":"m 318 -121 q 197 -131 197 -121 q 198 -154 197 -139 q 199 -186 199 -169 q 199 -218 199 -203 q 200 -242 200 -233 q 172 -444 200 -378 q 13 -543 131 -543 q -144 -481 -76 -543 q -214 -332 -214 -419 q 32 -128 -214 -214 q 153 -94 82 -118 q 151 -63 153 -82 q 147 -18 150 -44 q 143 57 143 32 q 111 10 138 56 q 60 -35 86 -35 q -12 18 11 -35 q -32 114 -32 61 q 10 363 -32 206 q 92 526 53 526 q 168 469 119 526 q 254 399 221 408 q 200 221 219 335 q 189 138 193 176 q 185 67 185 100 q 187 14 185 51 q 194 -86 189 -24 q 282 -78 246 -81 q 338 -76 318 -76 q 399 -112 399 -76 q 368 -136 399 -136 q 318 -121 349 -136 m 178 372 q 104 463 178 463 q 56 333 90 463 q 15 89 15 188 q 50 0 15 0 q 135 144 89 0 q 178 372 178 278 m 158 -136 q 24 -156 74 -136 q -100 -228 -49 -186 q -172 -344 -172 -286 q -118 -456 -172 -410 q 0 -501 -67 -501 q 164 -251 164 -501 q 163 -220 164 -249 q 158 -136 161 -192 z "},"h":{"ha":379,"x_min":7,"x_max":428,"o":"m 381 207 q 356 118 365 151 q 340 74 346 85 q 279 14 315 14 q 189 169 197 14 q 188 224 189 169 q 186 392 188 279 q 82 -7 163 356 q 63 -12 72 -12 q 7 213 7 -12 q 15 353 7 269 q 39 551 24 438 q 63 749 54 665 q 71 890 71 833 q 70 913 71 903 q 68 929 69 922 q 114 950 78 951 q 142 925 142 947 q 129 865 142 907 q 124 838 126 851 q 118 813 121 825 q 69 460 86 610 q 53 210 53 310 q 56 181 53 213 q 67 85 60 150 q 129 287 101 182 q 178 507 157 392 q 206 544 183 544 q 265 507 221 544 q 228 178 228 308 q 272 65 228 65 q 364 253 311 65 q 382 317 374 285 q 397 381 390 349 q 415 411 403 411 q 428 393 428 411 q 381 207 428 374 z "},"i":{"ha":183,"x_min":-8,"x_max":232,"o":"m 118 768 q 83 717 118 717 q 44 735 61 717 q 28 775 28 753 q 42 804 28 789 q 71 819 57 819 q 118 768 118 819 m 232 392 q 183 199 232 357 q 138 63 147 85 q 71 1 110 1 q 7 51 28 1 q -8 139 -8 93 q -6 201 -8 164 q 3 290 -3 239 q 11 380 8 342 q 14 443 14 418 q 42 453 24 453 q 78 433 78 453 q 70 402 75 422 q 58 351 65 382 q 32 136 32 225 q 74 43 32 43 q 121 113 93 43 q 167 254 122 114 q 182 307 174 276 q 200 378 190 338 q 219 411 208 411 q 232 392 232 411 z "},"j":{"ha":189,"x_min":-365,"x_max":228,"o":"m 129 804 q 90 753 129 753 q 62 764 78 753 q 46 788 46 775 q 50 802 46 793 q 60 819 54 811 q 72 834 65 828 q 85 840 79 840 q 129 804 129 840 m 228 -111 q 217 -135 228 -119 q 198 -119 211 -135 q 175 -99 185 -104 q 110 -86 151 -86 q 77 -90 99 -86 q 46 -93 56 -93 l 56 -317 q 6 -454 57 -394 q -125 -514 -46 -514 q -283 -465 -210 -514 q -365 -329 -365 -408 q -343 -264 -365 -292 q -327 -244 -336 -257 q -304 -217 -318 -232 q 3 -64 -226 -121 l -4 58 q -2 146 -4 94 q 6 264 0 197 q 14 401 15 390 q 10 418 11 411 l 7 426 q 60 436 44 436 q 89 417 89 436 q 50 221 65 364 q 42 114 44 165 q 39 15 39 63 q 40 -26 39 -7 q 42 -61 40 -44 q 87 -58 57 -61 q 132 -54 117 -54 q 192 -68 163 -54 q 228 -111 228 -87 m 3 -103 q -135 -151 -60 -112 q -326 -339 -326 -250 q -261 -440 -326 -400 q -139 -476 -201 -476 q -32 -435 -72 -476 q 7 -326 8 -393 l 3 -103 z "},"k":{"ha":361,"x_min":-6,"x_max":410,"o":"m 397 322 q 372 242 388 290 q 338 126 357 193 q 239 -3 293 -3 q 151 61 178 -3 q 122 172 146 74 q 50 126 108 167 q 42 43 47 94 q 51 -1 51 14 q 29 -22 51 -22 q 0 38 10 -22 q -4 71 -3 51 q -6 114 -6 90 q 1 269 -6 178 q 22 483 8 361 q 44 702 38 610 q 53 854 51 794 q 51 901 47 876 q 79 932 57 932 q 111 916 99 932 q 124 881 124 900 q 94 721 124 846 q 74 569 90 693 q 55 416 63 489 q 43 276 47 343 q 65 319 46 279 q 121 439 85 360 q 197 519 158 519 q 247 499 226 519 q 267 449 267 478 q 232 326 267 386 q 217 302 232 326 q 171 229 201 278 q 167 185 167 213 q 179 96 167 135 q 233 38 197 38 q 300 117 267 38 q 331 206 314 151 q 369 338 349 261 q 378 381 371 350 q 399 411 383 411 q 410 394 410 411 q 397 322 410 364 m 225 456 q 203 485 225 485 q 158 442 181 485 q 117 346 147 422 q 64 181 64 215 q 171 294 113 181 q 225 456 225 399 z "},"l":{"ha":276,"x_min":0,"x_max":325,"o":"m 142 -19 q 29 83 69 -19 q 0 249 0 160 q 25 554 0 371 q 88 853 51 746 q 135 947 94 947 q 226 808 226 947 q 182 538 226 696 q 74 286 136 375 q 67 276 72 283 q 54 258 63 269 q 43 228 43 243 q 88 69 43 131 q 144 28 118 28 q 275 303 196 28 q 283 336 278 317 q 294 382 288 356 q 313 411 300 411 q 325 390 325 411 q 269 174 325 336 q 142 -19 206 -19 m 161 896 q 46 322 46 517 q 142 554 99 404 q 183 769 183 693 q 161 896 183 874 z "},"m":{"ha":578,"x_min":7,"x_max":626,"o":"m 626 394 q 543 101 626 318 q 454 -3 503 -3 q 383 114 393 -3 q 382 151 383 114 q 378 264 381 189 q 344 144 358 190 q 322 78 329 97 q 257 0 290 0 q 208 82 208 0 q 210 135 208 104 q 215 210 213 167 q 220 284 218 253 q 222 338 222 315 q 213 350 222 350 q 176 253 197 350 q 151 133 161 178 q 136 74 140 89 q 65 -22 104 -22 q 22 113 22 -22 q 22 149 22 128 q 24 199 22 171 q 26 249 25 228 q 26 286 26 271 l 14 318 q 46 414 7 414 q 81 360 81 414 q 78 317 81 342 q 71 258 76 292 q 63 200 65 225 q 61 157 61 175 q 63 95 61 125 q 71 39 65 65 q 110 135 101 88 q 129 239 121 199 q 142 294 138 279 q 218 424 176 424 q 260 331 260 424 q 249 224 253 271 q 246 142 246 176 q 260 75 246 75 q 335 242 289 75 q 372 424 379 399 q 401 439 375 439 q 456 417 419 439 q 421 146 421 260 q 454 40 421 40 q 536 169 492 40 q 590 358 543 185 q 596 376 593 365 q 601 400 599 386 q 615 411 606 411 q 626 394 626 411 z "},"n":{"ha":393,"x_min":15,"x_max":442,"o":"m 442 390 q 393 201 442 351 q 286 0 326 0 q 215 99 235 0 q 206 185 210 126 q 197 338 201 244 q 172 245 190 313 q 125 65 153 178 q 82 6 111 6 q 29 64 39 6 l 24 168 q 24 279 19 229 l 28 331 l 15 357 q 22 407 17 394 q 57 429 31 429 q 85 404 85 429 q 75 368 85 396 q 67 324 67 340 q 67 292 67 311 q 65 249 67 274 q 64 204 64 224 q 64 174 64 186 q 86 74 64 74 q 104 110 93 74 q 133 215 124 190 q 165 331 153 278 q 181 431 178 383 q 200 500 185 489 q 271 456 271 496 q 267 467 271 486 q 256 376 263 447 q 245 263 249 307 q 242 200 242 219 q 281 50 242 50 q 361 197 314 50 q 387 283 375 240 q 408 368 399 325 q 431 411 418 411 q 442 390 442 411 z "},"o":{"ha":343,"x_min":0,"x_max":392,"o":"m 392 399 q 356 254 392 338 q 271 181 324 181 q 222 197 264 181 q 215 163 219 182 q 206 119 211 143 q 185 65 194 88 q 169 32 176 43 q 101 -12 142 -12 q 0 194 0 -12 q 22 372 0 326 q 22 369 22 368 q 21 382 22 372 q 19 397 19 392 q 19 407 19 404 q 28 426 21 419 q 33 447 31 433 q 42 485 36 461 q 89 532 51 532 q 164 501 125 532 q 215 439 204 471 q 226 238 226 406 q 261 222 246 222 q 333 276 310 222 q 363 386 344 297 q 379 411 368 411 q 392 399 392 411 m 182 193 q 179 231 182 208 q 171 282 176 253 q 163 333 165 311 q 160 369 160 354 q 162 400 160 379 q 164 431 164 421 q 119 479 164 479 q 68 349 90 479 q 47 178 47 236 q 108 28 47 28 q 149 83 124 28 q 182 193 182 156 z "},"p":{"ha":361,"x_min":-39,"x_max":260,"o":"m 260 372 q 235 142 260 247 q 107 -22 196 -22 q 61 6 81 -22 q 31 43 39 40 q 10 -106 17 -26 q 4 -278 4 -186 q 10 -381 4 -349 q 28 -440 14 -407 q 8 -446 28 -446 q -39 -281 -39 -446 q -31 -117 -39 -214 q -7 108 -22 -21 q 15 330 8 239 q 21 475 22 421 q 14 489 14 482 q 36 507 14 507 q 63 468 63 507 q 60 444 63 460 q 58 422 58 429 l 58 408 q 60 396 60 401 q 60 385 60 390 l 60 331 q 97 429 74 372 q 151 508 132 508 q 240 471 215 508 q 260 372 260 440 m 171 478 q 139 444 153 478 q 108 364 139 444 q 43 129 40 186 q 71 104 71 114 q 65 94 71 100 q 58 82 58 88 q 71 36 58 57 q 110 11 85 11 q 190 126 158 11 q 215 283 215 215 l 215 300 q 217 313 217 307 q 217 325 217 319 l 217 369 q 171 478 217 478 z "},"q":{"ha":307,"x_min":-25,"x_max":358,"o":"m 358 76 q 319 -28 339 29 q 281 -153 300 -85 q 250 -275 250 -258 q 275 -372 250 -292 l 275 -392 q 243 -404 275 -404 q 206 -375 206 -404 q 207 -361 206 -365 q 201 -270 206 -336 q 188 -96 197 -204 q 171 176 168 124 q 119 32 135 65 q 60 -19 93 -19 q -25 103 -25 -19 q 0 322 -25 199 q 97 493 38 493 q 169 415 136 493 q 186 449 171 449 q 211 432 200 449 q 222 401 222 415 q 219 390 222 399 q 215 310 217 350 q 214 228 214 269 q 243 -201 214 25 q 278 -92 257 -153 q 326 42 299 -31 q 341 72 336 67 q 358 76 346 78 m 168 378 q 132 428 154 392 q 104 444 121 444 q 49 360 71 444 q 18 129 18 247 q 19 83 18 101 q 21 56 19 64 q 53 17 26 17 q 131 176 89 17 q 168 378 168 318 z "},"r":{"ha":311,"x_min":-8,"x_max":360,"o":"m 208 -3 q 136 46 165 -3 q 122 131 124 67 q 122 260 119 178 l 125 371 q 57 439 125 404 q 24 290 57 404 q 17 276 24 289 q 10 261 10 263 l -8 267 q 8 354 -8 289 q 26 453 26 417 q 15 500 26 467 q 4 549 4 533 q 39 618 4 618 q 68 575 67 618 q 69 556 69 567 q 67 532 68 546 q 65 504 65 515 q 64 488 64 493 q 122 443 64 474 q 182 372 182 413 q 179 315 182 349 q 171 235 176 281 q 163 156 165 190 q 160 99 160 122 q 200 33 160 33 q 274 179 224 33 q 329 379 321 314 q 349 411 333 411 q 360 390 360 411 q 306 179 360 343 q 208 -3 244 -3 z "},"s":{"ha":229,"x_min":-35,"x_max":153,"o":"m 153 114 q 133 25 153 67 q 63 -22 108 -22 q -10 13 21 -22 q -32 57 -32 35 q -21 86 -32 83 q -11 64 -11 86 q 40 11 13 11 q 104 119 104 11 q 76 265 104 167 q 47 353 61 315 q 33 303 42 333 q 13 233 24 274 q -24 186 -1 186 q -35 189 -26 186 q 22 496 22 404 q 58 533 22 533 q 99 507 99 533 q 97 493 99 503 q 92 472 94 483 q 87 451 89 461 q 85 433 85 440 q 118 271 85 381 q 153 114 153 165 z "},"t":{"ha":204,"x_min":-178,"x_max":422,"o":"m 422 667 q 353 649 417 660 q 274 639 300 639 q 215 639 246 639 q 151 640 185 639 l 85 642 q 51 300 51 408 q 52 199 51 238 q 54 144 53 160 q 93 60 60 60 q 215 349 147 60 q 239 411 229 411 q 253 390 253 411 q 204 194 253 344 q 89 13 143 13 q 18 107 42 13 q 3 236 3 172 q 12 369 3 268 q 39 640 21 469 q -101 644 15 643 l -133 635 q -162 654 -143 646 q -178 669 -178 661 q -161 679 -178 679 q -85 681 -135 679 q 42 686 -35 683 q 44 727 43 701 q 49 789 46 753 l 42 814 q 57 824 46 824 q 113 799 75 824 l 113 769 q 106 731 110 751 q 96 685 101 710 q 140 684 107 685 q 228 682 172 683 q 303 680 256 681 q 422 676 351 679 l 422 667 l 422 667 z "},"u":{"ha":383,"x_min":10,"x_max":432,"o":"m 269 15 q 217 61 239 15 q 192 133 211 69 q 171 84 182 110 q 149 31 160 58 q 83 -12 124 -12 q 26 29 47 -12 q 10 104 10 64 q 11 176 10 133 q 15 275 13 218 q 31 432 21 417 q 54 443 38 443 q 79 431 68 443 q 90 406 90 419 q 85 374 90 392 q 80 352 82 360 q 76 342 78 344 q 62 223 67 288 q 57 83 57 158 q 83 22 57 22 q 122 57 104 22 q 135 84 129 71 q 146 111 140 97 q 192 292 176 183 q 195 310 193 294 q 201 351 197 325 q 206 385 204 371 q 208 411 208 400 q 208 456 208 443 q 207 464 208 469 q 235 497 211 500 q 275 475 275 497 q 267 452 275 468 q 258 424 260 436 q 255 392 258 418 q 244 319 251 367 q 236 249 239 281 q 233 192 233 217 q 274 60 233 60 q 354 207 311 60 q 404 390 371 267 q 421 411 410 411 q 432 394 432 411 q 385 200 432 346 q 269 15 326 15 z "},"v":{"ha":318,"x_min":19,"x_max":236,"o":"m 236 399 q 200 181 236 321 q 103 13 157 13 q 32 115 53 13 q 19 256 19 178 q 19 283 19 267 q 21 325 19 301 q 22 367 22 349 q 22 396 22 385 q 19 411 19 407 q 22 419 19 415 q 36 424 25 424 q 79 379 79 422 q 77 349 79 368 q 72 307 75 331 q 68 265 69 283 q 67 236 67 247 q 108 64 67 64 q 165 192 129 64 q 199 364 199 310 l 199 465 q 189 506 189 510 q 199 514 189 514 q 236 399 236 514 z "},"w":{"ha":443,"x_min":-3,"x_max":492,"o":"m 451 340 q 456 360 454 350 q 460 381 457 369 q 481 411 468 411 q 492 396 492 411 q 468 296 492 356 q 407 225 440 225 q 338 246 376 225 l 310 92 q 242 22 289 22 q 157 136 190 22 q 74 -3 126 -3 q -3 192 -3 -3 q 0 238 -3 203 q 8 336 3 274 q 17 431 14 399 q 22 465 21 463 q 49 483 31 483 q 89 460 65 483 q 38 156 38 328 q 83 38 38 38 q 143 244 143 122 q 144 277 143 258 q 149 322 146 296 q 153 367 151 349 q 156 400 156 386 q 153 421 156 413 l 149 438 q 183 451 161 451 q 214 425 214 451 q 212 410 214 419 q 208 392 210 401 q 203 373 206 382 q 200 360 200 364 q 192 265 194 301 q 189 214 189 229 q 208 82 189 188 q 239 60 217 60 q 290 188 263 60 q 301 251 297 225 q 306 290 306 276 q 297 353 306 308 q 292 391 294 375 q 290 418 290 407 q 290 467 290 449 q 292 490 290 485 q 315 536 296 528 q 344 494 342 521 l 351 293 q 386 268 353 268 q 451 340 433 268 z "},"x":{"ha":319,"x_min":19,"x_max":368,"o":"m 368 392 q 315 190 368 336 q 167 6 249 6 q 86 50 139 6 q 56 -82 82 40 q 19 -62 19 -78 q 71 89 19 -43 q 50 228 60 140 q 42 364 38 328 l 22 388 q 31 450 24 408 q 58 492 36 492 q 93 424 93 492 q 92 397 93 417 q 90 343 92 376 q 103 171 86 207 q 207 413 133 247 q 230 456 217 431 q 260 514 243 481 q 285 488 285 499 q 226 365 285 478 q 115 108 150 219 q 121 88 115 99 q 135 67 126 76 q 153 51 143 57 q 174 44 164 44 q 326 333 251 44 q 331 355 329 344 q 336 376 333 365 q 354 411 344 411 q 368 392 368 411 z "},"y":{"ha":333,"x_min":-133,"x_max":410,"o":"m 406 -126 q 353 -119 374 -121 q 324 -117 333 -117 q 239 -137 301 -117 q 240 -160 239 -146 q 241 -190 240 -175 q 242 -220 242 -206 q 243 -243 243 -235 q 39 -561 243 -561 q -23 -549 6 -561 q -72 -515 -51 -536 q -105 -464 -93 -493 q -117 -401 -117 -435 q 8 -210 -117 -300 q 197 -121 107 -140 q 176 111 197 28 q 162 78 171 97 q 140 32 153 58 q 83 -12 117 -12 q 17 33 39 -12 q -1 118 -1 69 q 11 315 -1 186 q 14 356 13 335 q 17 397 15 376 q 53 460 26 460 q 74 440 76 460 l 58 299 q 50 201 53 243 q 47 131 47 160 q 83 18 47 18 q 174 226 119 18 q 186 324 178 261 q 206 479 194 386 q 243 515 210 514 q 265 497 265 517 q 236 361 265 465 q 226 265 229 335 q 225 79 224 196 q 229 -46 225 39 l 232 -107 q 253 -102 239 -106 q 286 -93 267 -99 q 349 -82 331 -82 q 410 -114 410 -82 q 406 -126 410 -121 m 201 -151 q -3 -267 79 -185 q -75 -415 -75 -337 q -67 -458 -75 -437 q -46 -496 -60 -479 q -13 -522 -32 -512 q 26 -532 6 -532 q 164 -431 117 -532 q 201 -251 201 -350 l 201 -151 m -110 33 q -39 174 -85 33 q -10 269 -24 218 q 18 379 4 321 q 38 411 26 411 q 49 390 49 411 q -6 179 49 347 q -101 -3 -67 -3 q -133 10 -133 -3 q -125 26 -133 21 q -110 33 -117 31 z "},"z":{"ha":381,"x_min":-87,"x_max":406,"o":"m 393 -94 q 321 -83 356 -83 q 258 -92 289 -83 q 269 -177 265 -147 q 272 -212 272 -207 q 231 -408 272 -319 q 83 -524 178 -524 q -36 -476 15 -524 q -87 -364 -87 -431 q 207 -72 -87 -200 q 122 38 190 0 q 65 6 86 6 q 17 40 17 6 q 88 75 17 76 q 183 218 157 154 q 218 424 218 300 q 157 519 218 519 q 83 474 118 519 q 49 393 56 435 q 36 351 42 351 q 19 374 19 351 q 47 478 19 411 q 138 565 85 565 q 229 524 196 565 q 263 421 263 483 q 138 60 263 219 q 207 11 188 32 q 250 -62 228 -12 q 356 -50 310 -50 q 406 -76 406 -50 q 393 -94 406 -89 m 235 -204 q 232 -151 235 -176 q 224 -103 229 -126 q 50 -204 131 -124 q -33 -382 -33 -290 q -7 -458 -33 -428 q 65 -487 19 -487 q 199 -383 153 -487 q 235 -204 235 -300 z "},"{":{"ha":432,"x_min":44,"x_max":379,"o":"m 378 901 q 354 881 375 882 q 365 883 378 882 q 300 883 351 883 q 238 856 246 883 q 221 636 228 818 q 175 425 217 482 q 162 413 171 419 q 142 400 153 407 q 123 387 132 393 q 110 375 114 381 q 94 350 94 363 q 113 328 94 342 q 128 315 119 322 q 146 301 136 308 q 172 272 161 283 q 185 254 182 261 q 204 182 197 231 q 225 -122 225 33 q 249 -165 225 -149 q 300 -181 272 -181 l 349 -181 q 367 -201 367 -185 q 356 -211 367 -208 q 327 -209 346 -211 q 299 -207 308 -207 q 182 -160 182 -207 q 169 -17 182 -115 q 161 69 164 32 q 158 129 158 106 q 128 267 156 208 q 100 299 121 281 q 64 321 79 317 q 44 351 44 328 q 64 390 44 379 q 140 433 119 418 q 168 599 160 488 q 174 726 174 671 q 171 822 175 782 q 293 918 160 918 q 323 920 303 918 q 353 922 343 922 q 378 901 379 922 z "},"|":{"ha":375,"x_min":168,"x_max":282,"o":"m 282 925 q 260 763 282 869 q 251 690 256 743 q 240 550 246 638 q 230 350 233 446 q 226 164 226 254 q 235 -85 226 25 q 240 -109 236 -94 q 250 -143 243 -124 q 265 -200 265 -185 q 253 -237 265 -221 q 251 -245 251 -239 q 247 -250 250 -251 q 214 -246 236 -249 q 206 -240 207 -246 q 168 42 168 -151 q 175 303 168 165 q 196 596 182 440 q 267 950 226 950 q 282 925 282 950 z "},"}":{"ha":432,"x_min":38,"x_max":374,"o":"m 374 361 q 354 322 374 333 q 278 279 299 294 q 250 114 258 225 q 244 -12 244 43 q 247 -108 243 -68 q 125 -204 257 -204 q 95 -206 115 -204 q 65 -208 75 -208 q 40 -187 38 -208 q 64 -167 43 -168 q 53 -169 40 -168 q 118 -169 67 -169 q 181 -142 172 -169 q 197 76 192 -104 q 243 288 201 231 q 256 299 247 293 q 276 313 265 306 q 295 326 286 319 q 308 338 304 332 q 324 363 324 350 q 308 383 324 371 q 272 411 292 396 q 247 440 257 429 q 233 458 236 451 q 214 531 221 482 q 193 836 193 678 q 169 878 193 863 q 118 894 146 894 l 69 894 q 51 915 51 899 q 63 925 51 922 q 91 923 72 925 q 119 921 110 921 q 236 876 236 921 q 239 815 236 851 q 247 731 242 779 q 260 583 260 631 q 290 446 263 504 q 302 431 294 439 q 319 414 310 422 q 338 399 328 406 q 354 392 347 393 q 374 361 374 388 z "},"~":{"ha":700,"x_min":65,"x_max":643,"o":"m 643 353 q 594 246 643 290 q 483 200 546 201 q 392 226 431 197 q 372 246 389 229 q 324 294 354 263 q 253 342 281 342 q 163 296 196 342 q 140 263 153 282 q 108 218 126 244 q 90 211 101 211 q 65 229 65 211 q 128 340 65 286 q 249 394 190 394 q 363 332 308 394 q 398 292 385 306 q 414 275 411 278 q 483 250 446 246 q 590 358 579 260 q 617 381 592 383 q 643 353 643 381 z "},"":{"ha":175,"x_min":56,"x_max":169,"o":"m 169 132 q 115 -6 169 100 q 78 -68 92 -68 q 56 -46 57 -68 q 135 179 82 10 q 169 132 169 157 z "},"":{"ha":582,"x_min":-89,"x_max":575,"o":"m 575 935 q 558 906 575 921 q 528 890 542 890 q 474 917 500 890 q 431 944 449 944 q 376 853 403 944 q 347 706 358 793 q 340 632 344 669 q 332 557 336 594 q 488 546 468 557 q 411 526 468 531 q 369 525 390 525 q 328 524 349 525 q 313 366 324 454 q 283 169 301 278 q 242 -47 271 96 q -3 -329 172 -329 q -62 -292 -37 -329 q -89 -219 -89 -257 q -78 -189 -89 -203 q -50 -175 -67 -175 q -32 -183 -39 -175 q -20 -203 -25 -190 q -12 -231 -15 -215 q -4 -260 -8 -246 q 44 -289 8 -289 q 189 1 149 -289 q 220 265 207 135 q 244 524 233 394 q 131 539 131 524 q 143 546 131 543 q 187 550 161 547 q 247 557 213 553 q 310 856 276 792 q 341 900 321 878 q 392 944 361 922 q 499 990 451 990 q 549 974 524 990 q 575 935 575 958 z "},"":{"ha":344,"x_min":67,"x_max":279,"o":"m 278 142 q 239 22 267 82 q 210 -33 224 -6 q 182 -87 196 -60 q 154 -117 167 -117 q 138 -100 138 -117 q 163 -39 138 -92 l 210 60 q 226 106 215 79 q 253 167 238 132 q 278 142 279 147 m 204 161 q 140 1 200 126 q 86 -87 99 -87 q 67 -68 67 -87 q 139 72 67 -47 q 154 119 144 92 q 179 186 164 147 q 204 161 206 169 z "},"":{"ha":833,"x_min":97,"x_max":736,"o":"m 181 40 q 139 -12 181 -12 q 97 26 97 -12 q 110 59 97 43 q 139 75 124 75 q 181 40 181 75 m 736 40 q 694 -12 736 -12 q 653 26 653 -12 q 666 59 653 43 q 694 75 679 75 q 736 40 736 75 m 458 40 q 417 -12 458 -12 q 375 26 375 -12 q 388 59 375 43 q 417 75 401 75 q 458 40 458 75 z "},"":{"ha":681,"x_min":96,"x_max":690,"o":"m 585 561 q 515 555 553 558 q 432 547 476 551 l 239 -231 l 140 -301 l 132 -296 l 158 -197 q 260 197 217 11 q 335 547 303 382 q 238 551 257 551 q 97 532 156 551 l 96 536 q 141 569 122 556 q 172 589 160 582 l 203 606 q 236 618 225 618 l 347 618 l 350 647 q 363 776 358 724 q 365 856 367 828 q 409 880 383 865 q 468 914 435 894 l 476 913 q 451 654 478 818 l 444 617 q 689 629 561 617 l 690 624 q 636 590 663 606 q 585 561 610 575 z "},"":{"ha":767,"x_min":54,"x_max":740,"o":"m 683 592 q 560 554 622 554 q 493 558 553 554 l 481 508 q 424 299 449 392 q 383 135 400 206 l 371 85 q 455 80 419 82 q 510 78 490 78 q 555 79 533 78 q 599 83 576 81 l 571 64 q 501 25 529 35 q 424 14 471 14 q 406 15 422 14 q 357 17 389 15 q 331 -175 333 -85 q 331 -192 331 -182 q 333 -218 332 -203 l 229 -283 q 224 -285 225 -286 q 218 -249 218 -279 q 263 22 219 -146 q 193 26 244 24 q 158 28 172 28 q 138 28 144 28 q 57 19 99 28 l 54 25 q 73 35 64 31 q 90 46 82 40 q 219 90 164 90 q 244 89 229 90 q 279 85 260 88 q 337 302 307 185 q 401 558 367 419 q 247 571 231 571 q 199 567 219 571 l 190 569 q 205 579 194 572 q 231 597 215 586 q 342 632 278 632 q 379 631 360 632 q 419 629 399 631 q 440 767 433 710 q 446 860 446 825 q 488 885 461 869 q 550 924 514 900 l 553 922 q 555 899 554 907 q 556 889 556 892 q 517 660 556 807 l 507 624 l 540 624 q 739 628 636 624 l 740 625 q 715 610 729 618 q 683 592 700 603 z "},"":{"ha":264,"x_min":74,"x_max":261,"o":"m 253 714 q 231 735 244 714 q 220 752 226 742 q 207 776 214 763 q 174 799 193 799 q 132 776 154 799 q 121 765 128 772 q 107 752 114 758 q 94 742 100 746 q 83 740 88 739 q 76 757 74 744 q 121 814 81 776 q 178 851 160 851 q 222 801 188 853 q 260 726 257 749 q 253 714 261 721 z "},"":{"ha":760,"x_min":0,"x_max":728,"o":"m 617 874 q 560 796 617 857 q 443 646 508 743 q 297 407 378 549 q 115 0 132 115 q 101 -12 113 -12 q 82 -1 90 -12 q 74 24 74 11 q 243 388 99 131 q 349 569 299 488 q 443 719 399 651 q 389 696 431 718 q 325 675 349 675 q 265 677 293 675 q 214 685 238 679 q 198 581 204 619 q 186 528 192 542 q 108 458 163 458 q 24 503 53 458 q 0 599 0 542 q 22 774 0 683 q 113 903 56 903 q 211 726 197 903 q 288 704 260 704 q 524 831 388 704 q 547 868 532 838 q 582 903 558 892 q 603 892 590 903 q 617 874 617 882 m 488 219 q 376 -18 488 -18 q 271 172 271 -18 q 325 390 271 315 q 335 403 331 397 q 342 414 339 408 q 356 413 346 414 q 369 411 365 411 q 471 349 443 411 q 488 219 488 308 m 169 724 q 146 819 147 765 q 115 851 143 851 q 51 593 51 729 q 96 490 51 490 q 144 525 124 490 q 168 586 161 551 q 167 646 167 613 q 169 724 167 681 m 453 239 q 386 376 453 376 q 333 274 353 376 q 322 203 326 236 q 318 143 318 171 q 372 10 318 10 q 440 107 419 10 q 453 239 453 167 m 728 219 q 617 -18 728 -18 q 511 172 511 -18 q 565 390 511 315 q 575 403 571 397 q 582 414 579 408 q 596 413 586 414 q 610 411 606 411 q 711 349 683 411 q 728 219 728 308 m 693 239 q 626 376 693 376 q 574 274 593 376 q 563 203 567 236 q 558 143 558 171 q 613 10 558 10 q 681 107 660 10 q 693 239 693 167 z "},"":{"ha":333,"x_min":50,"x_max":297,"o":"m 142 371 q 278 142 226 274 l 182 86 l 176 86 q 50 308 124 229 l 50 321 l 89 353 q 188 439 142 394 q 278 531 235 483 l 282 531 l 297 513 q 161 385 249 450 l 142 371 z "},"":{"ha":1319,"x_min":0,"x_max":1308,"o":"m 521 593 q 485 806 521 718 q 325 925 435 925 q 139 686 218 925 q 74 331 74 488 q 261 24 74 24 q 521 593 521 24 m 1308 150 q 1136 25 1308 79 q 903 -18 999 -18 q 615 50 729 -18 q 506 174 532 101 q 271 -19 425 -19 q 65 92 139 -19 q 0 328 0 190 q 32 607 0 464 q 138 865 69 771 q 160 899 149 882 q 183 931 172 915 q 246 972 217 972 q 278 961 253 972 q 296 968 289 968 q 572 586 572 950 q 564 415 572 494 q 731 526 619 469 q 629 579 663 550 q 589 681 589 617 q 803 892 589 821 q 1129 942 954 942 q 1218 932 1193 942 q 1267 868 1267 917 q 1250 826 1267 826 q 1203 865 1233 842 q 1136 878 1179 878 q 838 836 985 878 q 628 664 628 776 q 699 589 628 615 q 810 571 749 571 q 939 579 828 571 q 1017 584 988 582 q 1058 585 1047 586 q 1075 543 1076 572 q 1053 507 1072 514 q 1004 526 1021 526 q 751 474 889 526 q 550 322 594 413 q 544 300 549 319 q 532 246 540 281 q 674 82 532 133 q 908 44 775 44 q 1043 58 961 44 q 1172 92 1136 72 q 1264 150 1264 139 q 1260 153 1264 153 l 1260 179 q 1308 150 1308 179 z "},"":{"ha":175,"x_min":15,"x_max":140,"o":"m 136 663 q 114 647 140 647 q 92 660 93 647 q 76 713 89 675 q 44 810 64 750 q 18 915 15 896 q 67 896 60 917 q 94 803 76 861 q 136 663 111 746 z "},"":{"ha":175,"x_min":56,"x_max":169,"o":"m 169 896 q 115 757 169 865 q 78 694 92 694 q 56 717 57 694 q 135 943 83 776 q 169 896 169 921 z "},"":{"ha":344,"x_min":69,"x_max":258,"o":"m 258 688 q 238 685 246 686 q 228 685 231 685 q 210 704 214 686 q 175 830 192 767 q 143 957 158 893 q 169 955 160 957 q 183 947 178 953 q 191 928 189 940 q 197 899 193 917 q 225 806 210 858 q 258 688 240 753 m 190 663 q 167 646 190 646 q 146 660 147 646 q 131 710 143 674 q 99 806 119 746 q 72 915 69 889 q 121 896 114 915 q 149 799 132 857 q 190 663 167 742 z "},"":{"ha":344,"x_min":67,"x_max":279,"o":"m 278 906 q 239 786 267 846 q 210 731 224 758 q 182 676 196 704 q 154 646 168 646 q 138 663 138 646 q 163 724 138 671 l 210 824 q 226 869 215 843 q 253 931 238 896 q 278 906 279 911 m 204 925 q 140 765 200 890 q 86 675 99 675 q 67 694 67 675 q 139 836 67 714 q 154 883 144 856 q 179 950 164 911 q 204 925 206 933 z "},"":{"ha":550,"x_min":69,"x_max":475,"o":"m 475 465 q 404 288 475 363 q 231 214 333 214 q 111 279 157 214 q 69 414 69 335 q 311 672 69 672 q 450 607 413 672 q 475 465 475 563 z "},"":{"ha":417,"x_min":6,"x_max":408,"o":"m 408 292 q 390 266 408 278 q 356 251 372 254 q 214 249 279 250 q 92 244 149 247 q 67 242 82 243 q 32 239 51 242 q 6 247 6 238 q 36 278 6 272 q 108 285 51 283 q 203 288 144 286 q 346 292 263 289 q 363 294 353 293 q 386 297 372 294 q 408 292 408 301 z "},"":{"ha":833,"x_min":36,"x_max":814,"o":"m 814 292 q 796 266 814 278 q 761 251 778 254 q 500 249 658 250 q 122 244 342 247 q 97 242 113 243 q 63 239 82 242 q 36 247 36 238 q 67 278 36 272 q 93 282 75 281 q 139 285 111 283 q 467 281 150 285 q 792 297 668 276 q 814 292 814 301 z "},"":{"ha":325,"x_min":60,"x_max":289,"o":"m 222 714 q 194 735 211 721 q 158 769 178 749 q 106 807 131 807 q 79 779 88 807 q 67 758 72 758 q 60 783 60 758 q 96 846 60 838 q 168 810 119 851 q 192 783 179 797 q 222 764 206 768 q 231 763 225 763 q 278 815 246 763 q 282 820 281 818 q 283 822 283 822 q 289 800 289 818 q 269 738 289 764 q 232 711 250 711 q 222 714 228 711 z "},"":{"ha":1311,"x_min":10,"x_max":1264,"o":"m 1264 317 q 1236 288 1249 288 q 1151 436 1179 288 q 1138 532 1142 485 q 1133 626 1133 579 q 1133 668 1133 643 q 1135 725 1133 693 q 1137 783 1136 758 q 1138 825 1138 808 q 1135 819 1136 822 q 1132 808 1135 815 q 1104 713 1121 769 q 1064 578 1088 656 q 946 374 999 374 q 844 564 878 374 q 836 623 844 564 q 811 803 828 682 q 749 636 790 771 q 671 440 706 499 q 528 332 606 332 q 438 385 475 332 l 450 390 q 532 376 518 376 q 742 717 639 376 q 789 974 789 872 q 822 1021 789 1021 q 885 989 842 1021 q 874 844 874 960 q 878 701 874 768 q 892 576 882 635 q 954 432 915 432 q 1043 618 982 432 q 1090 771 1071 701 q 1119 899 1108 840 q 1121 917 1121 901 q 1122 961 1121 933 q 1136 1004 1124 999 q 1188 999 1172 1001 q 1226 975 1224 992 q 1197 785 1211 943 q 1185 581 1185 644 q 1187 491 1185 528 q 1192 432 1189 454 q 1264 317 1208 329 m 725 982 q 700 963 722 963 q 563 960 629 963 q 433 951 497 957 q 399 710 413 833 q 378 454 385 586 q 385 354 376 426 q 351 367 369 358 q 331 446 331 388 q 334 542 331 485 q 344 676 338 600 q 356 811 351 754 q 360 907 360 868 q 360 926 360 918 q 358 942 360 935 q 263 938 321 942 q 47 883 47 922 q 131 857 47 857 q 326 888 226 857 q 275 840 299 846 q 119 818 196 818 q 10 900 10 818 q 63 958 10 943 q 185 975 78 960 q 295 985 225 981 q 468 994 365 990 q 608 999 551 997 q 694 1001 664 1001 q 725 982 728 1001 z "},"":{"ha":333,"x_min":50,"x_max":299,"o":"m 65 86 l 50 104 q 204 249 92 154 q 149 326 181 275 q 76 456 117 376 l 67 474 l 163 531 l 168 531 q 299 307 225 378 l 299 296 q 172 192 229 244 q 69 86 115 139 l 65 86 z "},"":{"ha":661,"x_min":0,"x_max":661,"o":"m 182 193 q 179 231 182 208 q 171 282 176 253 q 163 333 165 311 q 160 369 160 354 q 162 400 160 379 q 164 431 164 421 q 119 479 164 479 q 68 349 90 479 q 47 178 47 236 q 108 28 47 28 q 149 83 124 28 q 182 193 182 156 m 661 397 q 640 304 661 388 q 536 25 588 96 q 463 -15 504 -15 q 368 50 404 -15 q 339 168 339 104 q 339 197 339 183 q 340 225 339 211 q 271 181 311 181 q 222 197 264 181 q 215 163 219 182 q 206 119 211 143 q 185 65 194 88 q 169 32 176 43 q 101 -12 142 -12 q 0 194 0 -12 q 22 372 0 326 q 22 369 22 368 q 21 382 22 372 q 19 397 19 392 q 19 407 19 404 q 28 426 21 419 q 33 447 31 433 q 42 485 36 461 q 89 532 51 532 q 164 501 125 532 q 215 439 204 471 q 226 238 226 406 q 261 222 246 222 q 333 276 310 222 q 363 386 344 297 q 364 392 364 389 q 365 397 364 394 l 368 406 q 435 510 397 510 q 489 489 464 510 q 514 439 514 468 q 454 208 514 336 q 396 101 431 156 q 419 47 396 78 q 467 18 442 18 q 617 335 533 18 q 643 414 638 414 q 661 397 661 414 m 476 424 q 457 471 476 471 q 440 453 446 471 q 389 153 389 299 q 450 278 421 172 q 476 424 476 369 z "},"":{"ha":558,"x_min":-82,"x_max":540,"o":"m 540 883 q 513 763 524 815 q 496 675 501 711 q 479 511 485 600 q 474 315 474 422 q 476 240 474 285 q 481 136 478 196 q 489 -42 489 17 q 421 -261 489 -158 q 233 -376 343 -376 q 56 -332 178 -376 q -82 -236 -82 -281 q -46 -211 -82 -211 q 47 -275 -33 -211 q 182 -339 128 -339 q 425 65 425 -339 q 423 156 425 101 q 415 286 421 211 q 344 106 368 147 q 201 -3 283 -3 q 50 89 97 -3 q 13 274 13 161 q 17 375 13 314 q 28 519 21 436 q 44 765 44 683 q 43 792 44 774 q 42 818 42 810 q 67 861 42 861 q 135 814 78 861 q 128 775 135 806 q 120 748 122 758 q 117 733 118 738 q 87 498 97 611 q 76 276 76 385 q 189 31 76 31 q 335 168 265 31 q 415 439 396 289 q 437 647 426 535 q 454 893 447 760 q 493 918 456 919 q 540 883 539 917 m 411 1121 q 376 1069 411 1069 q 338 1088 354 1069 q 321 1128 321 1106 q 335 1157 321 1142 q 364 1172 350 1172 q 411 1121 411 1172 m 304 1119 q 269 1068 304 1068 q 231 1086 247 1068 q 214 1126 214 1104 q 228 1156 214 1140 q 257 1171 243 1171 q 304 1119 304 1171 z "},"":{"ha":279,"x_min":119,"x_max":244,"o":"m 119 13 q 189 565 189 204 q 187 669 189 626 q 179 740 185 713 q 207 738 199 751 q 240 644 233 690 q 244 543 244 613 q 241 449 244 514 q 231 285 238 385 q 206 -8 217 74 q 172 -22 200 -22 q 119 13 146 -22 m 158 869 q 169 899 158 882 q 193 917 181 917 q 228 903 213 917 q 244 869 244 889 q 226 828 244 856 q 200 799 210 799 q 168 825 178 799 q 158 869 158 844 z "},"":{"ha":340,"x_min":0,"x_max":249,"o":"m 249 385 q 228 343 249 369 q 190 307 208 318 q 110 283 161 292 q 110 276 110 281 q 111 267 110 274 l 111 244 q 93 193 111 193 q 81 238 83 193 q 81 247 81 240 q 79 264 81 254 l 79 289 q 13 372 26 331 q 0 481 0 406 q 89 749 0 685 q 88 769 88 757 q 90 797 89 782 q 103 838 94 838 q 121 829 121 838 l 121 758 q 147 746 132 754 q 183 726 163 738 q 229 654 229 690 q 207 635 229 635 q 151 668 182 635 q 118 701 119 701 q 63 607 88 701 q 40 456 40 526 q 53 369 40 407 q 111 315 71 315 q 218 408 181 315 q 249 385 249 403 z "},"":{"ha":667,"x_min":-39,"x_max":692,"o":"m 451 749 q 625 818 518 815 q 692 776 692 819 q 663 747 692 747 q 644 749 657 747 q 624 751 631 751 q 368 485 481 751 q 506 511 464 511 q 575 465 575 511 q 547 432 575 432 q 522 435 540 432 q 490 439 503 439 q 411 428 460 439 q 373 418 392 422 q 335 408 354 414 q 167 101 247 199 q 414 151 314 151 q 479 113 479 151 q 456 78 479 85 q 392 74 440 74 q 61 -6 274 74 q -1 -24 15 -24 q -39 10 -39 -24 q 7 65 -39 38 q 147 196 100 121 q 187 268 163 219 q 246 390 211 317 q 187 382 211 385 q 149 379 163 379 q 100 415 100 379 q 112 443 100 431 q 138 456 124 456 q 165 453 147 456 q 190 451 182 451 q 281 463 229 451 q 451 749 375 674 z "},"":{"ha":833,"x_min":51,"x_max":782,"o":"m 594 197 q 418 136 521 136 q 239 197 313 136 l 106 58 l 51 114 l 188 251 q 125 432 125 328 q 188 613 125 539 l 51 750 l 106 806 l 239 667 q 418 731 319 731 q 594 667 518 731 l 728 806 l 782 750 l 649 613 q 708 432 708 532 q 649 251 708 325 l 782 114 l 728 58 l 594 197 m 418 663 q 260 593 325 663 q 194 432 194 524 q 260 271 194 340 q 418 204 324 204 q 574 271 508 204 q 639 432 639 340 q 574 593 639 524 q 418 663 508 663 z "},"":{"ha":604,"x_min":-12,"x_max":765,"o":"m 311 392 q 258 758 310 685 q 256 767 256 764 q 293 789 256 785 q 329 768 318 789 q 361 655 347 729 q 385 471 375 581 q 483 594 433 535 q 585 707 533 653 q 694 814 672 801 q 747 825 732 836 q 765 794 765 813 q 740 753 765 775 q 689 708 714 731 q 497 496 594 618 q 449 433 474 464 q 400 371 424 403 q 442 378 424 376 q 472 381 461 381 q 542 342 542 381 q 514 314 542 314 q 488 317 507 314 q 457 319 469 319 q 349 304 429 319 l 317 263 q 392 272 365 272 q 461 233 461 272 q 433 206 461 206 q 408 208 426 206 q 376 211 389 211 q 265 194 338 211 q 188 79 222 133 q 125 -24 153 25 q 82 -65 104 -64 q 43 -39 49 -69 q 171 176 36 -7 q 18 161 53 157 q -12 192 -12 165 q -1 214 -12 203 q 24 225 10 225 q 51 224 33 225 q 76 222 68 222 q 167 231 129 222 l 217 242 l 247 283 l 213 278 q 99 269 133 265 q 67 299 67 274 q 78 322 67 311 q 104 333 90 333 q 131 331 114 333 q 157 329 149 329 q 293 350 203 329 l 311 392 z "},"":{"ha":681,"x_min":39,"x_max":631,"o":"m 607 583 q 544 535 581 557 q 490 511 506 511 q 464 536 464 511 q 500 583 464 556 q 513 594 506 588 q 526 607 519 600 q 392 683 481 683 q 283 571 283 683 q 301 503 283 529 q 435 403 335 457 q 596 229 596 315 q 560 148 596 185 q 428 63 524 111 q 496 -47 496 13 q 474 -114 496 -78 q 421 -169 451 -150 l 371 -200 q 367 -203 369 -201 q 361 -207 364 -204 q 183 -281 263 -281 q 80 -250 121 -281 q 39 -174 39 -219 q 100 -90 39 -139 q 175 -46 156 -46 q 200 -72 200 -46 q 138 -147 200 -104 q 279 -212 196 -212 q 394 -114 394 -212 q 229 72 394 -22 q 78 240 78 160 q 84 276 78 260 q 106 310 90 293 q 146 345 121 326 q 208 386 171 364 l 243 406 q 181 514 181 461 q 224 610 181 567 q 265 642 238 624 q 332 688 292 661 q 406 731 388 722 q 488 749 442 749 q 590 717 550 749 q 631 639 631 686 q 607 583 631 604 m 332 351 q 292 374 311 363 q 254 397 272 386 q 182 276 182 343 q 190 237 182 256 q 218 199 199 218 q 269 159 238 181 q 349 111 301 138 q 385 90 368 100 q 418 69 403 81 q 492 186 492 122 q 457 265 492 231 q 409 304 440 283 q 332 351 378 325 z "},"":{"ha":211,"x_min":28,"x_max":225,"o":"m 225 769 q 190 718 225 718 q 151 736 168 718 q 135 776 135 754 q 149 806 135 790 q 178 821 164 821 q 225 769 225 821 m 118 768 q 83 717 118 717 q 44 735 61 717 q 28 775 28 753 q 42 804 28 789 q 71 819 57 819 q 118 768 118 819 z "},"":{"ha":1067,"x_min":0,"x_max":1049,"o":"m 1049 514 q 851 51 1049 243 q 438 -128 665 -128 q 124 -1 249 -128 q 0 314 0 126 q 164 746 0 543 q 588 968 344 968 q 910 832 769 968 q 1049 514 1049 697 m 1003 517 q 878 801 1003 681 q 589 924 756 924 q 199 717 365 924 q 44 313 44 525 q 156 31 44 146 q 436 -82 268 -82 q 838 103 669 -82 q 1003 517 1003 283 m 814 353 q 604 140 735 221 q 414 69 492 69 q 189 294 189 69 q 333 590 189 454 q 706 738 489 738 q 764 701 749 738 q 771 618 771 681 q 735 571 771 571 q 717 582 726 571 q 708 603 708 593 q 708 633 708 622 q 706 650 707 644 q 678 667 699 667 q 388 564 515 667 q 253 294 253 454 q 414 133 253 133 q 578 199 479 133 q 757 388 690 274 q 786 404 767 406 q 819 371 819 404 q 814 353 819 363 z "},"":{"ha":440,"x_min":65,"x_max":428,"o":"m 240 660 q 201 612 219 638 q 169 560 182 586 q 148 509 156 533 q 140 467 140 485 q 174 426 140 426 q 315 564 233 426 q 264 663 319 663 q 257 662 263 663 q 240 660 251 661 m 260 458 q 114 379 168 379 q 69 425 69 379 q 169 614 69 510 q 322 713 264 713 q 356 654 356 713 q 343 592 356 626 l 375 601 q 349 461 349 497 q 399 389 349 389 q 422 394 411 389 l 428 389 q 332 351 363 351 q 278 433 281 351 q 279 450 279 440 q 281 476 279 461 l 260 458 m 421 278 l 65 278 l 65 313 l 421 313 l 421 278 z "},"":{"ha":593,"x_min":58,"x_max":556,"o":"m 401 367 q 538 140 485 271 l 446 86 l 435 86 q 310 307 382 225 l 310 319 q 535 529 439 424 l 540 529 l 556 508 q 401 367 510 451 m 147 360 q 279 135 239 246 l 192 86 l 175 86 q 58 311 143 200 l 58 318 q 174 420 118 368 q 283 525 231 472 l 292 525 l 310 504 q 165 375 278 467 l 147 360 z "},"":{"ha":833,"x_min":74,"x_max":760,"o":"m 693 460 l 74 460 l 74 529 l 760 529 l 760 150 l 693 150 l 693 460 z "},"":{"ha":1067,"x_min":7,"x_max":1057,"o":"m 1057 515 q 860 53 1057 246 q 446 -126 674 -126 q 132 0 257 -126 q 7 315 7 126 q 172 747 7 542 q 596 969 351 969 q 918 833 778 969 q 1057 515 1057 699 m 1011 518 q 886 803 1011 682 q 597 925 764 925 q 207 718 374 925 q 53 314 53 526 q 164 32 53 147 q 444 -81 276 -81 q 846 104 678 -81 q 1011 518 1011 285 m 868 617 q 810 519 868 579 q 717 446 760 469 q 463 336 563 361 q 503 257 468 311 q 558 183 535 207 q 588 151 574 168 q 618 119 603 135 q 693 83 658 83 q 713 88 700 83 q 731 92 725 92 q 739 83 739 92 q 690 54 725 72 q 624 75 654 54 q 422 275 540 131 q 400 307 413 286 q 388 315 393 315 q 368 269 369 315 l 368 207 q 368 197 368 203 q 367 185 368 192 q 366 106 364 149 q 378 17 368 64 q 360 1 371 1 q 329 25 342 1 q 319 64 319 43 q 320 166 318 107 q 325 303 322 225 q 333 542 333 467 q 338 601 333 556 q 342 657 342 647 q 261 625 322 653 q 197 583 197 594 q 201 579 199 582 q 206 574 203 576 q 189 567 196 567 q 174 590 174 567 q 254 660 174 621 q 303 683 282 674 q 339 700 324 693 q 341 729 340 713 q 344 767 342 746 q 382 758 374 763 q 401 726 394 751 q 667 760 601 760 q 797 725 738 760 q 868 617 868 683 m 797 639 q 669 722 797 722 q 403 674 557 722 q 395 574 400 626 q 385 463 390 521 q 380 402 382 428 q 378 360 378 376 q 421 369 393 363 q 489 388 449 376 q 621 438 576 415 q 733 519 682 468 q 797 639 797 583 z "},"":{"ha":554,"x_min":124,"x_max":532,"o":"m 328 525 q 183 586 244 525 q 124 733 124 646 q 183 881 124 821 q 328 942 244 942 q 472 881 411 942 q 532 733 532 821 q 472 586 532 646 q 328 525 411 525 m 326 890 q 218 844 264 890 q 174 733 174 797 q 218 622 174 669 q 326 578 263 578 q 438 622 393 578 q 482 733 482 667 q 436 844 482 799 q 326 890 390 890 z "},"":{"ha":926,"x_min":100,"x_max":826,"o":"m 496 118 l 429 118 l 429 449 l 100 449 l 100 515 l 429 515 l 429 849 l 496 849 l 496 515 l 826 515 l 826 449 l 496 449 l 496 118 m 100 -35 l 826 -35 l 826 -101 l 100 -101 l 100 -35 z "},"":{"ha":325,"x_min":168,"x_max":311,"o":"m 311 808 q 272 765 311 788 q 263 760 269 763 q 247 751 257 757 l 183 714 l 176 725 q 168 742 168 735 q 203 785 168 751 q 215 797 207 789 q 236 817 224 806 q 283 838 253 843 q 306 825 300 835 q 311 808 311 815 z "},"":{"ha":763,"x_min":89,"x_max":760,"o":"m 499 -300 l 457 -300 l 624 888 l 490 888 l 324 -300 l 281 -300 l 381 410 q 302 417 336 413 q 244 428 268 421 q 131 490 165 447 q 89 625 89 544 q 90 644 89 635 q 92 663 90 653 q 197 851 108 785 q 429 918 286 918 l 760 918 l 756 888 l 665 888 l 499 -300 z "},"":{"ha":222,"x_min":29,"x_max":161,"o":"m 108 -46 q 156 -110 150 -68 q 115 -165 161 -144 q 42 -200 43 -199 q 39 -201 42 -201 q 31 -182 33 -201 q 31 -158 29 -164 q 53 -152 42 -156 q 75 -146 64 -149 q 107 -112 110 -136 q 86 -91 104 -94 q 49 -85 68 -87 q 43 -76 44 -81 q 44 -62 42 -71 q 69 -28 51 -53 q 114 38 86 -3 l 157 35 q 104 -39 104 -25 q 108 -46 104 -44 z "},"":{"ha":444,"x_min":89,"x_max":392,"o":"m 165 378 q 89 454 89 378 q 140 581 89 513 l 139 601 q 315 667 246 667 q 392 586 392 667 q 317 446 392 514 q 165 378 243 378 m 97 306 l 376 306 l 376 278 l 97 278 l 97 306 m 217 636 q 149 500 149 563 q 172 438 149 463 q 231 413 194 413 q 267 419 246 413 q 331 546 331 488 q 308 608 331 582 q 217 636 279 644 z "},"":{"ha":593,"x_min":56,"x_max":557,"o":"m 321 90 l 304 111 q 428 222 350 160 l 464 253 l 439 288 q 335 479 372 381 l 422 526 l 439 526 q 557 303 468 413 l 557 293 q 329 90 454 215 l 321 90 m 72 86 l 56 106 q 186 226 131 185 l 211 246 q 81 458 153 313 l 74 472 l 169 528 l 179 528 q 304 307 231 386 l 304 294 q 78 86 175 200 l 72 86 z "},"":{"ha":543,"x_min":-49,"x_max":474,"o":"m -49 168 q -17 307 -49 246 q 75 432 6 350 q 163 539 124 490 q 232 628 203 588 l 257 715 q 249 742 257 729 q 240 760 240 756 q 258 772 240 772 q 289 694 289 772 q 213 513 289 615 q 154 435 189 482 q 72 326 119 389 q -3 126 -3 219 q 88 28 -3 28 q 314 190 181 28 q 367 258 346 229 q 400 308 389 288 q 438 439 438 372 q 438 451 438 446 q 436 465 438 458 q 474 418 474 474 q 415 242 474 342 q 299 93 364 157 q 92 -15 186 -15 q -15 43 22 -15 q -49 168 -49 94 m 213 883 q 226 925 213 906 q 261 944 240 944 q 299 903 299 944 q 288 867 299 885 q 261 849 278 849 q 213 883 213 849 z "},"":{"ha":939,"x_min":-36,"x_max":925,"o":"m 925 8 q 900 -6 925 -6 q 851 1 883 -6 q 746 314 801 67 q 582 301 688 306 q 483 297 524 299 q 419 292 443 294 q 372 211 400 260 q 303 99 343 163 q 126 -35 215 -35 q -36 65 11 -35 q -25 76 -29 75 q -14 76 -21 79 q 0 75 -7 75 q 68 33 0 33 q 247 113 172 33 q 356 286 290 160 q 335 288 344 288 q 318 289 326 289 q 292 285 308 289 q 268 282 276 282 q 235 301 235 282 q 385 328 235 311 q 544 674 454 442 q 625 919 625 878 q 622 930 625 924 q 619 940 619 936 q 663 958 619 958 q 715 935 676 958 q 754 899 754 913 q 751 866 754 888 q 749 833 749 844 q 807 367 749 643 q 851 176 831 257 q 892 44 872 96 q 910 20 897 28 q 925 8 922 13 m 719 460 q 674 772 679 701 q 672 801 672 792 q 671 811 671 811 q 654 844 664 836 q 617 761 642 821 q 557 603 593 701 q 492 442 521 507 q 442 338 464 376 l 738 344 q 719 460 738 353 m 654 1069 l 590 1107 q 581 1112 588 1108 q 565 1121 575 1115 q 526 1164 526 1143 q 554 1193 526 1186 q 601 1172 585 1199 q 613 1161 604 1169 q 635 1140 621 1153 q 669 1097 669 1107 q 663 1078 669 1092 l 654 1069 z "},"":{"ha":939,"x_min":-36,"x_max":925,"o":"m 925 8 q 900 -6 925 -6 q 851 1 883 -6 q 746 314 801 67 q 582 301 688 306 q 483 297 524 299 q 419 292 443 294 q 372 211 400 260 q 303 99 343 163 q 126 -35 215 -35 q -36 65 11 -35 q -25 76 -29 75 q -14 76 -21 79 q 0 75 -7 75 q 68 33 0 33 q 247 113 172 33 q 356 286 290 160 q 335 288 344 288 q 318 289 326 289 q 292 285 308 289 q 268 282 276 282 q 235 301 235 282 q 385 328 235 311 q 544 674 454 442 q 625 919 625 878 q 622 930 625 924 q 619 940 619 936 q 663 958 619 958 q 715 935 676 958 q 754 899 754 913 q 751 866 754 888 q 749 833 749 844 q 807 367 749 643 q 851 176 831 257 q 892 44 872 96 q 910 20 897 28 q 925 8 922 13 m 719 460 q 674 772 679 701 q 672 801 672 792 q 671 811 671 811 q 654 844 664 836 q 617 761 642 821 q 557 603 593 701 q 492 442 521 507 q 442 338 464 376 l 738 344 q 719 460 738 353 m 818 1164 q 779 1121 818 1143 q 770 1115 776 1118 q 754 1107 764 1113 l 690 1069 l 683 1081 q 675 1097 675 1090 q 710 1140 675 1107 q 722 1153 714 1144 q 743 1172 731 1161 q 790 1193 760 1199 q 813 1181 807 1190 q 818 1164 818 1171 z "},"":{"ha":939,"x_min":-36,"x_max":925,"o":"m 925 8 q 900 -6 925 -6 q 851 1 883 -6 q 746 314 801 67 q 582 301 688 306 q 483 297 524 299 q 419 292 443 294 q 372 211 400 260 q 303 99 343 163 q 126 -35 215 -35 q -36 65 11 -35 q -25 76 -29 75 q -14 76 -21 79 q 0 75 -7 75 q 68 33 0 33 q 247 113 172 33 q 356 286 290 160 q 335 288 344 288 q 318 289 326 289 q 292 285 308 289 q 268 282 276 282 q 235 301 235 282 q 385 328 235 311 q 544 674 454 442 q 625 919 625 878 q 622 930 625 924 q 619 940 619 936 q 663 958 619 958 q 715 935 676 958 q 754 899 754 913 q 751 866 754 888 q 749 833 749 844 q 807 367 749 643 q 851 176 831 257 q 892 44 872 96 q 910 20 897 28 q 925 8 922 13 m 719 460 q 674 772 679 701 q 672 801 672 792 q 671 811 671 811 q 654 844 664 836 q 617 761 642 821 q 557 603 593 701 q 492 442 521 507 q 442 338 464 376 l 738 344 q 719 460 738 353 m 785 1069 q 763 1090 776 1069 q 752 1108 758 1097 q 739 1132 746 1118 q 706 1154 725 1154 q 664 1132 686 1154 q 653 1121 660 1128 q 639 1108 646 1114 q 626 1098 632 1101 q 615 1096 619 1094 q 608 1113 606 1100 q 653 1169 613 1132 q 710 1207 692 1207 q 754 1157 719 1208 q 792 1082 789 1104 q 785 1069 793 1076 z "},"":{"ha":939,"x_min":-36,"x_max":925,"o":"m 925 8 q 900 -6 925 -6 q 851 1 883 -6 q 746 314 801 67 q 582 301 688 306 q 483 297 524 299 q 419 292 443 294 q 372 211 400 260 q 303 99 343 163 q 126 -35 215 -35 q -36 65 11 -35 q -25 76 -29 75 q -14 76 -21 79 q 0 75 -7 75 q 68 33 0 33 q 247 113 172 33 q 356 286 290 160 q 335 288 344 288 q 318 289 326 289 q 292 285 308 289 q 268 282 276 282 q 235 301 235 282 q 385 328 235 311 q 544 674 454 442 q 625 919 625 878 q 622 930 625 924 q 619 940 619 936 q 663 958 619 958 q 715 935 676 958 q 754 899 754 913 q 751 866 754 888 q 749 833 749 844 q 807 367 749 643 q 851 176 831 257 q 892 44 872 96 q 910 20 897 28 q 925 8 922 13 m 719 460 q 674 772 679 701 q 672 801 672 792 q 671 811 671 811 q 654 844 664 836 q 617 761 642 821 q 557 603 593 701 q 492 442 521 507 q 442 338 464 376 l 738 344 q 719 460 738 353 m 757 1069 q 729 1090 746 1076 q 693 1125 713 1104 q 640 1163 665 1163 q 614 1135 622 1163 q 601 1114 607 1114 q 594 1139 594 1114 q 631 1201 594 1193 q 703 1165 654 1207 q 727 1138 714 1153 q 757 1119 740 1124 q 765 1118 760 1118 q 813 1171 781 1118 q 817 1176 815 1174 q 818 1178 818 1178 q 824 1156 824 1174 q 804 1093 824 1119 q 767 1067 785 1067 q 757 1069 763 1067 z "},"":{"ha":939,"x_min":-36,"x_max":925,"o":"m 925 8 q 900 -6 925 -6 q 851 1 883 -6 q 746 314 801 67 q 582 301 688 306 q 483 297 524 299 q 419 292 443 294 q 372 211 400 260 q 303 99 343 163 q 126 -35 215 -35 q -36 65 11 -35 q -25 76 -29 75 q -14 76 -21 79 q 0 75 -7 75 q 68 33 0 33 q 247 113 172 33 q 356 286 290 160 q 335 288 344 288 q 318 289 326 289 q 292 285 308 289 q 268 282 276 282 q 235 301 235 282 q 385 328 235 311 q 544 674 454 442 q 625 919 625 878 q 622 930 625 924 q 619 940 619 936 q 663 958 619 958 q 715 935 676 958 q 754 899 754 913 q 751 866 754 888 q 749 833 749 844 q 807 367 749 643 q 851 176 831 257 q 892 44 872 96 q 910 20 897 28 q 925 8 922 13 m 719 460 q 674 772 679 701 q 672 801 672 792 q 671 811 671 811 q 654 844 664 836 q 617 761 642 821 q 557 603 593 701 q 492 442 521 507 q 442 338 464 376 l 738 344 q 719 460 738 353 m 788 1121 q 753 1069 788 1069 q 714 1088 731 1069 q 697 1128 697 1106 q 712 1157 697 1142 q 740 1172 726 1172 q 788 1121 788 1172 m 681 1119 q 646 1068 681 1068 q 607 1086 624 1068 q 590 1126 590 1104 q 605 1156 590 1140 q 633 1171 619 1171 q 681 1119 681 1171 z "},"":{"ha":939,"x_min":-36,"x_max":925,"o":"m 925 8 q 900 -6 925 -6 q 851 1 883 -6 q 746 314 801 67 q 582 301 688 306 q 483 297 524 299 q 419 292 443 294 q 372 211 400 260 q 303 99 343 163 q 126 -35 215 -35 q -36 65 11 -35 q -25 76 -29 75 q -14 76 -21 79 q 0 75 -7 75 q 68 33 0 33 q 247 113 172 33 q 356 286 290 160 q 335 288 344 288 q 318 289 326 289 q 292 285 308 289 q 268 282 276 282 q 235 301 235 282 q 385 328 235 311 q 544 674 454 442 q 625 919 625 878 q 622 930 625 924 q 619 940 619 936 q 663 958 619 958 q 715 935 676 958 q 754 899 754 913 q 751 866 754 888 q 749 833 749 844 q 807 367 749 643 q 851 176 831 257 q 892 44 872 96 q 910 20 897 28 q 925 8 922 13 m 719 460 q 674 772 679 701 q 672 801 672 792 q 671 811 671 811 q 654 844 664 836 q 617 761 642 821 q 557 603 593 701 q 492 442 521 507 q 442 338 464 376 l 738 344 q 719 460 738 353 m 714 1069 q 658 1119 667 1069 q 686 1221 650 1164 q 768 1276 724 1276 q 825 1226 814 1276 q 793 1125 832 1179 q 714 1069 756 1069 m 757 1232 q 711 1196 735 1232 q 694 1135 690 1160 q 718 1111 699 1111 q 767 1146 744 1111 q 786 1207 790 1182 q 757 1232 782 1232 z "},"":{"ha":1590,"x_min":-36,"x_max":1582,"o":"m 719 460 q 674 772 679 701 q 672 801 672 792 q 671 811 671 811 q 654 844 664 836 q 617 761 642 821 q 557 603 593 701 q 492 442 521 507 q 442 338 464 376 l 738 344 q 719 460 738 353 m 1582 150 q 1410 25 1582 79 q 1176 -18 1272 -18 q 890 50 1004 -18 l 892 44 q 910 20 897 28 q 925 8 922 13 q 900 -6 925 -6 q 851 1 883 -6 q 786 157 821 43 q 768 222 772 186 q 757 266 763 243 q 746 314 751 289 q 582 301 688 306 q 483 297 524 299 q 419 292 443 294 q 372 211 400 260 q 303 99 343 163 q 126 -35 215 -35 q -36 65 11 -35 q -25 76 -29 75 q -14 76 -21 79 q 0 75 -7 75 q 68 33 0 33 q 247 113 172 33 q 356 286 290 160 q 335 288 344 288 q 318 289 326 289 q 292 285 308 289 q 268 282 276 282 q 235 301 235 282 q 385 328 235 311 q 544 674 454 442 q 625 919 625 878 q 622 930 625 924 q 619 940 619 936 q 663 958 619 958 q 715 935 676 958 q 754 899 754 913 q 751 866 754 888 q 749 833 749 844 q 804 378 749 646 q 1004 526 856 450 q 903 579 936 550 q 863 681 863 617 q 1076 892 863 821 q 1403 942 1228 942 q 1492 932 1467 942 q 1540 868 1540 917 q 1524 826 1540 826 q 1476 865 1507 842 q 1410 878 1453 878 q 1111 836 1258 878 q 901 664 901 776 q 972 589 901 615 q 1083 571 1022 571 q 1213 579 1101 571 q 1291 584 1261 582 q 1332 585 1321 586 q 1349 543 1350 572 q 1326 507 1346 514 q 1278 526 1294 526 q 1018 471 1156 526 q 818 313 857 406 q 842 213 831 258 q 864 128 853 167 q 1182 44 965 44 q 1317 58 1235 44 q 1446 92 1410 72 q 1538 150 1538 139 q 1533 153 1538 153 l 1533 179 q 1582 150 1582 179 z "},"":{"ha":593,"x_min":0,"x_max":582,"o":"m 238 -81 q 285 -144 279 -103 q 244 -200 290 -179 q 171 -235 172 -233 q 168 -236 171 -236 q 160 -217 163 -236 q 160 -193 158 -199 q 182 -187 171 -190 q 204 -181 193 -183 q 236 -147 239 -171 q 215 -126 233 -129 q 178 -119 197 -122 q 172 -111 174 -115 q 174 -97 171 -106 q 231 -15 189 -78 q 53 89 113 -4 q 0 296 0 174 q 60 636 0 449 q 239 935 132 865 q 319 953 265 953 q 468 910 396 953 q 529 854 514 883 q 550 736 550 817 q 533 599 550 688 q 486 488 513 488 q 457 515 468 488 q 447 557 447 536 q 471 685 447 594 q 494 818 494 776 q 436 892 494 864 q 339 915 389 915 q 150 682 235 915 q 71 260 71 467 q 243 26 71 26 q 540 136 397 26 l 563 176 q 582 160 582 174 q 569 122 582 153 q 436 24 521 61 q 271 -17 349 -15 q 233 -74 233 -58 q 238 -81 233 -79 z "},"":{"ha":828,"x_min":0,"x_max":815,"o":"m 815 149 q 643 24 815 78 q 410 -19 506 -19 q 143 38 257 -19 q 0 250 0 110 q 76 419 0 347 q 238 525 129 469 q 136 578 169 549 q 96 679 96 615 q 310 890 96 819 q 636 940 461 940 q 725 931 700 940 q 774 867 774 915 q 757 825 774 825 q 710 864 740 840 q 643 876 686 876 q 344 835 492 876 q 135 663 135 775 q 206 588 135 614 q 317 569 256 569 q 446 578 335 569 q 524 583 494 581 q 565 583 554 585 q 582 542 583 571 q 560 506 579 513 q 511 525 528 525 q 240 464 390 525 q 39 244 39 381 q 181 81 39 132 q 415 43 282 43 q 550 57 468 43 q 679 90 643 71 q 771 149 771 138 q 767 151 771 151 l 767 178 q 815 149 815 178 m 490 1069 l 426 1107 q 417 1112 424 1108 q 401 1121 411 1115 q 363 1164 363 1143 q 390 1193 363 1186 q 438 1172 421 1199 q 449 1161 440 1169 q 471 1140 457 1153 q 506 1097 506 1107 q 499 1078 506 1092 l 490 1069 z "},"":{"ha":828,"x_min":0,"x_max":815,"o":"m 815 149 q 643 24 815 78 q 410 -19 506 -19 q 143 38 257 -19 q 0 250 0 110 q 76 419 0 347 q 238 525 129 469 q 136 578 169 549 q 96 679 96 615 q 310 890 96 819 q 636 940 461 940 q 725 931 700 940 q 774 867 774 915 q 757 825 774 825 q 710 864 740 840 q 643 876 686 876 q 344 835 492 876 q 135 663 135 775 q 206 588 135 614 q 317 569 256 569 q 446 578 335 569 q 524 583 494 581 q 565 583 554 585 q 582 542 583 571 q 560 506 579 513 q 511 525 528 525 q 240 464 390 525 q 39 244 39 381 q 181 81 39 132 q 415 43 282 43 q 550 57 468 43 q 679 90 643 71 q 771 149 771 138 q 767 151 771 151 l 767 178 q 815 149 815 178 m 631 1164 q 592 1121 631 1143 q 583 1115 589 1118 q 567 1107 576 1113 l 503 1069 l 496 1081 q 488 1097 488 1090 q 522 1140 488 1107 q 535 1153 526 1144 q 556 1172 543 1161 q 603 1193 572 1199 q 625 1181 619 1190 q 631 1164 631 1171 z "},"":{"ha":828,"x_min":0,"x_max":815,"o":"m 815 149 q 643 24 815 78 q 410 -19 506 -19 q 143 38 257 -19 q 0 250 0 110 q 76 419 0 347 q 238 525 129 469 q 136 578 169 549 q 96 679 96 615 q 310 890 96 819 q 636 940 461 940 q 725 931 700 940 q 774 867 774 915 q 757 825 774 825 q 710 864 740 840 q 643 876 686 876 q 344 835 492 876 q 135 663 135 775 q 206 588 135 614 q 317 569 256 569 q 446 578 335 569 q 524 583 494 581 q 565 583 554 585 q 582 542 583 571 q 560 506 579 513 q 511 525 528 525 q 240 464 390 525 q 39 244 39 381 q 181 81 39 132 q 415 43 282 43 q 550 57 468 43 q 679 90 643 71 q 771 149 771 138 q 767 151 771 151 l 767 178 q 815 149 815 178 m 629 1069 q 607 1090 621 1069 q 597 1108 603 1097 q 583 1132 590 1118 q 550 1154 569 1154 q 508 1132 531 1154 q 497 1121 504 1128 q 483 1108 490 1114 q 470 1098 476 1101 q 460 1096 464 1094 q 453 1113 450 1100 q 497 1169 457 1132 q 554 1207 536 1207 q 599 1157 564 1208 q 636 1082 633 1104 q 629 1069 638 1076 z "},"":{"ha":828,"x_min":0,"x_max":815,"o":"m 815 149 q 643 24 815 78 q 410 -19 506 -19 q 143 38 257 -19 q 0 250 0 110 q 76 419 0 347 q 238 525 129 469 q 136 578 169 549 q 96 679 96 615 q 310 890 96 819 q 636 940 461 940 q 725 931 700 940 q 774 867 774 915 q 757 825 774 825 q 710 864 740 840 q 643 876 686 876 q 344 835 492 876 q 135 663 135 775 q 206 588 135 614 q 317 569 256 569 q 446 578 335 569 q 524 583 494 581 q 565 583 554 585 q 582 542 583 571 q 560 506 579 513 q 511 525 528 525 q 240 464 390 525 q 39 244 39 381 q 181 81 39 132 q 415 43 282 43 q 550 57 468 43 q 679 90 643 71 q 771 149 771 138 q 767 151 771 151 l 767 178 q 815 149 815 178 m 606 1121 q 571 1069 606 1069 q 532 1088 549 1069 q 515 1128 515 1106 q 530 1157 515 1142 q 558 1172 544 1172 q 606 1121 606 1172 m 499 1119 q 464 1068 499 1068 q 425 1086 442 1068 q 408 1126 408 1104 q 423 1156 408 1140 q 451 1171 438 1171 q 499 1119 499 1171 z "},"":{"ha":418,"x_min":-36,"x_max":451,"o":"m 451 885 q 412 868 426 874 q 392 861 397 863 l 253 838 q 204 517 222 740 q 188 150 188 317 q 194 35 188 56 q 199 35 186 35 q 249 38 213 36 q 356 22 356 42 q 288 -4 343 8 q 96 -24 207 -24 q -36 -6 -35 -24 q 38 15 -36 7 l 136 26 q 135 47 136 35 q 132 74 133 60 q 129 101 131 88 q 128 122 128 114 q 132 231 128 136 q 143 508 136 326 q 151 833 156 817 q 4 838 67 833 q 29 856 15 847 q 61 875 43 865 q 317 900 296 900 q 340 900 326 900 q 374 899 354 900 q 407 897 393 897 q 432 897 422 897 q 451 885 444 897 m 158 1069 l 94 1107 q 85 1112 92 1108 q 69 1121 79 1115 q 31 1164 31 1143 q 58 1193 31 1186 q 106 1172 89 1199 q 117 1161 108 1169 q 139 1140 125 1153 q 174 1097 174 1107 q 167 1078 174 1092 l 158 1069 z "},"":{"ha":418,"x_min":-36,"x_max":451,"o":"m 451 885 q 412 868 426 874 q 392 861 397 863 l 253 838 q 204 517 222 740 q 188 150 188 317 q 194 35 188 56 q 199 35 186 35 q 249 38 213 36 q 356 22 356 42 q 288 -4 343 8 q 96 -24 207 -24 q -36 -6 -35 -24 q 38 15 -36 7 l 136 26 q 135 47 136 35 q 132 74 133 60 q 129 101 131 88 q 128 122 128 114 q 132 231 128 136 q 143 508 136 326 q 151 833 156 817 q 4 838 67 833 q 29 856 15 847 q 61 875 43 865 q 317 900 296 900 q 340 900 326 900 q 374 899 354 900 q 407 897 393 897 q 432 897 422 897 q 451 885 444 897 m 375 1164 q 336 1121 375 1143 q 327 1115 333 1118 q 311 1107 321 1113 l 247 1069 l 240 1081 q 232 1097 232 1090 q 267 1140 232 1107 q 279 1153 271 1144 q 300 1172 288 1161 q 347 1193 317 1199 q 369 1181 364 1190 q 375 1164 375 1171 z "},"":{"ha":418,"x_min":-36,"x_max":451,"o":"m 451 885 q 412 868 426 874 q 392 861 397 863 l 253 838 q 204 517 222 740 q 188 150 188 317 q 194 35 188 56 q 199 35 186 35 q 249 38 213 36 q 356 22 356 42 q 288 -4 343 8 q 96 -24 207 -24 q -36 -6 -35 -24 q 38 15 -36 7 l 136 26 q 135 47 136 35 q 132 74 133 60 q 129 101 131 88 q 128 122 128 114 q 132 231 128 136 q 143 508 136 326 q 151 833 156 817 q 4 838 67 833 q 29 856 15 847 q 61 875 43 865 q 317 900 296 900 q 340 900 326 900 q 374 899 354 900 q 407 897 393 897 q 432 897 422 897 q 451 885 444 897 m 317 1069 q 294 1090 308 1069 q 284 1108 290 1097 q 271 1132 278 1118 q 238 1154 257 1154 q 196 1132 218 1154 q 185 1121 192 1128 q 171 1108 178 1114 q 158 1098 164 1101 q 147 1096 151 1094 q 140 1113 138 1100 q 185 1169 144 1132 q 242 1207 224 1207 q 286 1157 251 1208 q 324 1082 321 1104 q 317 1069 325 1076 z "},"":{"ha":418,"x_min":-36,"x_max":451,"o":"m 451 885 q 412 868 426 874 q 392 861 397 863 l 253 838 q 204 517 222 740 q 188 150 188 317 q 194 35 188 56 q 199 35 186 35 q 249 38 213 36 q 356 22 356 42 q 288 -4 343 8 q 96 -24 207 -24 q -36 -6 -35 -24 q 38 15 -36 7 l 136 26 q 135 47 136 35 q 132 74 133 60 q 129 101 131 88 q 128 122 128 114 q 132 231 128 136 q 143 508 136 326 q 151 833 156 817 q 4 838 67 833 q 29 856 15 847 q 61 875 43 865 q 317 900 296 900 q 340 900 326 900 q 374 899 354 900 q 407 897 393 897 q 432 897 422 897 q 451 885 444 897 m 324 1121 q 289 1069 324 1069 q 250 1088 267 1069 q 233 1128 233 1106 q 248 1157 233 1142 q 276 1172 263 1172 q 324 1121 324 1172 m 217 1119 q 182 1068 217 1068 q 143 1086 160 1068 q 126 1126 126 1104 q 141 1156 126 1140 q 169 1171 156 1171 q 217 1119 217 1171 z "},"":{"ha":742,"x_min":-68,"x_max":740,"o":"m 740 949 q 738 936 740 944 q 731 918 735 928 q 722 899 726 908 q 717 886 718 890 q 688 726 701 824 q 661 496 674 629 q 644 263 650 368 q 638 71 638 157 q 641 47 638 63 q 644 25 644 32 q 582 -7 644 -7 q 494 44 525 -7 q 449 169 483 58 q 380 428 413 278 q 317 778 347 579 q 293 654 307 742 q 260 428 279 567 q 189 106 229 206 q 22 -35 132 -35 q -68 11 -68 -35 q -50 33 -68 33 q -36 28 -42 33 q -42 18 -42 22 q -4 1 -42 1 q 235 514 158 1 q 276 906 276 789 q 275 928 276 924 q 329 963 297 963 q 401 913 401 963 q 460 310 401 569 q 569 68 514 68 q 596 143 593 68 l 604 331 q 618 483 610 393 q 638 696 626 574 q 713 969 661 901 q 740 949 740 965 m 574 1069 q 546 1090 563 1076 q 510 1125 529 1104 q 457 1163 482 1163 q 431 1135 439 1163 q 418 1114 424 1114 q 411 1139 411 1114 q 447 1201 411 1193 q 519 1165 471 1207 q 544 1138 531 1153 q 574 1119 557 1124 q 582 1118 576 1118 q 629 1171 597 1118 q 633 1176 632 1174 q 635 1178 635 1178 q 640 1156 640 1174 q 621 1093 640 1119 q 583 1067 601 1067 q 574 1069 579 1067 z "},"":{"ha":606,"x_min":0,"x_max":572,"o":"m 572 586 q 521 213 572 367 q 271 -19 443 -19 q 65 92 139 -19 q 0 328 0 190 q 32 607 0 464 q 138 865 69 771 q 160 899 149 882 q 183 931 172 915 q 246 972 217 972 q 278 961 253 972 q 296 968 289 968 q 572 586 572 950 m 521 593 q 485 806 521 718 q 325 925 435 925 q 139 686 218 925 q 74 331 74 488 q 261 24 74 24 q 521 593 521 24 m 276 1069 l 213 1107 q 203 1112 210 1108 q 188 1121 197 1115 q 149 1164 149 1143 q 176 1193 149 1186 q 224 1172 207 1199 q 235 1161 226 1169 q 257 1140 243 1153 q 292 1097 292 1107 q 285 1078 292 1092 l 276 1069 z "},"":{"ha":606,"x_min":0,"x_max":572,"o":"m 572 586 q 521 213 572 367 q 271 -19 443 -19 q 65 92 139 -19 q 0 328 0 190 q 32 607 0 464 q 138 865 69 771 q 160 899 149 882 q 183 931 172 915 q 246 972 217 972 q 278 961 253 972 q 296 968 289 968 q 572 586 572 950 m 521 593 q 485 806 521 718 q 325 925 435 925 q 139 686 218 925 q 74 331 74 488 q 261 24 74 24 q 521 593 521 24 m 511 1164 q 472 1121 511 1143 q 463 1115 469 1118 q 447 1107 457 1113 l 383 1069 l 376 1081 q 368 1097 368 1090 q 403 1140 368 1107 q 415 1153 407 1144 q 436 1172 424 1161 q 483 1193 453 1199 q 506 1181 500 1190 q 511 1164 511 1171 z "},"":{"ha":606,"x_min":0,"x_max":572,"o":"m 572 586 q 521 213 572 367 q 271 -19 443 -19 q 65 92 139 -19 q 0 328 0 190 q 32 607 0 464 q 138 865 69 771 q 160 899 149 882 q 183 931 172 915 q 246 972 217 972 q 278 961 253 972 q 296 968 289 968 q 572 586 572 950 m 521 593 q 485 806 521 718 q 325 925 435 925 q 139 686 218 925 q 74 331 74 488 q 261 24 74 24 q 521 593 521 24 m 457 1069 q 435 1090 449 1069 q 424 1108 431 1097 q 411 1132 418 1118 q 378 1154 397 1154 q 336 1132 358 1154 q 325 1121 332 1128 q 311 1108 318 1114 q 298 1098 304 1101 q 288 1096 292 1094 q 281 1113 278 1100 q 325 1169 285 1132 q 382 1207 364 1207 q 426 1157 392 1208 q 464 1082 461 1104 q 457 1069 465 1076 z "},"":{"ha":606,"x_min":0,"x_max":572,"o":"m 572 586 q 521 213 572 367 q 271 -19 443 -19 q 65 92 139 -19 q 0 328 0 190 q 32 607 0 464 q 138 865 69 771 q 160 899 149 882 q 183 931 172 915 q 246 972 217 972 q 278 961 253 972 q 296 968 289 968 q 572 586 572 950 m 521 593 q 485 806 521 718 q 325 925 435 925 q 139 686 218 925 q 74 331 74 488 q 261 24 74 24 q 521 593 521 24 m 403 1069 q 375 1090 392 1076 q 339 1125 358 1104 q 286 1163 311 1163 q 260 1135 268 1163 q 247 1114 253 1114 q 240 1139 240 1114 q 276 1201 240 1193 q 349 1165 300 1207 q 373 1138 360 1153 q 403 1119 386 1124 q 411 1118 406 1118 q 458 1171 426 1118 q 463 1176 461 1174 q 464 1178 464 1178 q 469 1156 469 1174 q 450 1093 469 1119 q 413 1067 431 1067 q 403 1069 408 1067 z "},"":{"ha":606,"x_min":0,"x_max":572,"o":"m 572 586 q 521 213 572 367 q 271 -19 443 -19 q 65 92 139 -19 q 0 328 0 190 q 32 607 0 464 q 138 865 69 771 q 160 899 149 882 q 183 931 172 915 q 246 972 217 972 q 278 961 253 972 q 296 968 289 968 q 572 586 572 950 m 521 593 q 485 806 521 718 q 325 925 435 925 q 139 686 218 925 q 74 331 74 488 q 261 24 74 24 q 521 593 521 24 m 476 1121 q 442 1069 476 1069 q 403 1088 419 1069 q 386 1128 386 1106 q 401 1157 386 1142 q 429 1172 415 1172 q 476 1121 476 1172 m 369 1119 q 335 1068 369 1068 q 296 1086 313 1068 q 279 1126 279 1104 q 294 1156 279 1140 q 322 1171 308 1171 q 369 1119 369 1171 z "},"":{"ha":707,"x_min":-25,"x_max":756,"o":"m 146 315 q 333 25 153 25 q 593 594 593 25 q 593 617 593 606 q 592 639 593 628 l 146 315 m 589 681 q 570 772 583 731 q 538 844 557 813 q 397 926 485 926 q 211 688 290 926 q 165 515 181 597 q 146 358 149 433 l 589 681 m 72 306 l 72 329 q 104 608 72 465 q 210 867 142 772 q 233 900 221 883 q 256 932 244 917 q 318 974 289 974 q 350 963 325 974 q 368 969 361 969 q 635 714 592 954 l 735 786 l 756 758 l 640 675 q 644 588 644 633 q 593 214 644 368 q 343 -18 515 -18 q 156 68 229 -18 q 76 264 90 144 l -6 204 l -25 233 l 72 306 z "},"":{"ha":753,"x_min":-24,"x_max":742,"o":"m 742 807 q 729 782 736 799 q 715 740 722 765 q 699 667 701 690 l 654 233 l 654 93 q 685 -54 658 -33 q 656 -61 675 -61 q 603 47 611 -61 q 601 92 603 47 q 594 225 599 136 q 542 120 563 158 q 511 68 521 82 q 368 -19 449 -19 q 151 324 151 -19 q 206 671 151 451 q 49 593 104 593 q -24 628 11 593 q -11 626 -17 626 q 1 626 -6 626 q 301 918 169 626 q 374 874 374 896 q 350 836 374 864 q 322 799 326 807 q 218 311 218 550 q 238 125 218 190 q 368 18 274 18 q 513 146 446 18 q 553 234 535 186 q 586 340 571 282 q 639 721 639 540 q 633 813 639 786 q 629 838 629 826 q 656 853 638 853 q 742 807 681 853 m 490 1069 l 426 1107 q 417 1112 424 1108 q 401 1121 411 1115 q 363 1164 363 1143 q 390 1193 363 1186 q 438 1172 421 1199 q 449 1161 440 1169 q 471 1140 457 1153 q 506 1097 506 1107 q 499 1078 506 1092 l 490 1069 z "},"":{"ha":753,"x_min":-24,"x_max":742,"o":"m 742 807 q 729 782 736 799 q 715 740 722 765 q 699 667 701 690 l 654 233 l 654 93 q 685 -54 658 -33 q 656 -61 675 -61 q 603 47 611 -61 q 601 92 603 47 q 594 225 599 136 q 542 120 563 158 q 511 68 521 82 q 368 -19 449 -19 q 151 324 151 -19 q 206 671 151 451 q 49 593 104 593 q -24 628 11 593 q -11 626 -17 626 q 1 626 -6 626 q 301 918 169 626 q 374 874 374 896 q 350 836 374 864 q 322 799 326 807 q 218 311 218 550 q 238 125 218 190 q 368 18 274 18 q 513 146 446 18 q 553 234 535 186 q 586 340 571 282 q 639 721 639 540 q 633 813 639 786 q 629 838 629 826 q 656 853 638 853 q 742 807 681 853 m 711 1164 q 672 1121 711 1143 q 663 1115 669 1118 q 647 1107 657 1113 l 583 1069 l 576 1081 q 568 1097 568 1090 q 603 1140 568 1107 q 615 1153 607 1144 q 636 1172 624 1161 q 683 1193 653 1199 q 706 1181 700 1190 q 711 1164 711 1171 z "},"":{"ha":753,"x_min":-24,"x_max":742,"o":"m 742 807 q 729 782 736 799 q 715 740 722 765 q 699 667 701 690 l 654 233 l 654 93 q 685 -54 658 -33 q 656 -61 675 -61 q 603 47 611 -61 q 601 92 603 47 q 594 225 599 136 q 542 120 563 158 q 511 68 521 82 q 368 -19 449 -19 q 151 324 151 -19 q 206 671 151 451 q 49 593 104 593 q -24 628 11 593 q -11 626 -17 626 q 1 626 -6 626 q 301 918 169 626 q 374 874 374 896 q 350 836 374 864 q 322 799 326 807 q 218 311 218 550 q 238 125 218 190 q 368 18 274 18 q 513 146 446 18 q 553 234 535 186 q 586 340 571 282 q 639 721 639 540 q 633 813 639 786 q 629 838 629 826 q 656 853 638 853 q 742 807 681 853 m 629 1069 q 607 1090 621 1069 q 597 1108 603 1097 q 583 1132 590 1118 q 550 1154 569 1154 q 508 1132 531 1154 q 497 1121 504 1128 q 483 1108 490 1114 q 470 1098 476 1101 q 460 1096 464 1094 q 453 1113 450 1100 q 497 1169 457 1132 q 554 1207 536 1207 q 599 1157 564 1208 q 636 1082 633 1104 q 629 1069 638 1076 z "},"":{"ha":753,"x_min":-24,"x_max":742,"o":"m 742 807 q 729 782 736 799 q 715 740 722 765 q 699 667 701 690 l 654 233 l 654 93 q 685 -54 658 -33 q 656 -61 675 -61 q 603 47 611 -61 q 601 92 603 47 q 594 225 599 136 q 542 120 563 158 q 511 68 521 82 q 368 -19 449 -19 q 151 324 151 -19 q 206 671 151 451 q 49 593 104 593 q -24 628 11 593 q -11 626 -17 626 q 1 626 -6 626 q 301 918 169 626 q 374 874 374 896 q 350 836 374 864 q 322 799 326 807 q 218 311 218 550 q 238 125 218 190 q 368 18 274 18 q 513 146 446 18 q 553 234 535 186 q 586 340 571 282 q 639 721 639 540 q 633 813 639 786 q 629 838 629 826 q 656 853 638 853 q 742 807 681 853 m 646 1121 q 611 1069 646 1069 q 572 1088 589 1069 q 556 1128 556 1106 q 570 1157 556 1142 q 599 1172 585 1172 q 646 1121 646 1172 m 539 1119 q 504 1068 539 1068 q 465 1086 482 1068 q 449 1126 449 1104 q 463 1156 449 1140 q 492 1171 478 1171 q 539 1119 539 1171 z "},"":{"ha":325,"x_min":-37,"x_max":374,"o":"m 138 389 q 103 453 132 453 q 61 386 79 453 q 49 346 56 371 q 32 289 42 321 q 10 79 10 204 q 19 35 10 56 q 51 8 32 8 q 107 115 78 24 q 126 183 118 151 q 138 239 135 214 l 154 367 l 138 389 m 222 0 q 138 101 171 0 q 44 -28 101 -28 q -33 175 -37 -28 q 1 356 -31 229 q 69 500 42 500 q 147 468 132 500 l 172 418 l 221 401 q 174 153 186 300 q 179 86 171 121 q 214 38 190 38 q 343 379 261 38 q 363 411 351 411 q 374 390 374 411 q 322 181 374 339 q 222 0 264 0 m 115 714 l 51 751 q 42 756 49 753 q 26 765 36 760 q -11 808 -11 788 q 15 838 -11 832 q 63 817 46 843 q 74 806 65 814 q 96 785 82 797 q 131 742 131 751 q 124 722 131 736 l 115 714 z "},"":{"ha":325,"x_min":-37,"x_max":374,"o":"m 138 389 q 103 453 132 453 q 61 386 79 453 q 49 346 56 371 q 32 289 42 321 q 10 79 10 204 q 19 35 10 56 q 51 8 32 8 q 107 115 78 24 q 126 183 118 151 q 138 239 135 214 l 154 367 l 138 389 m 222 0 q 138 101 171 0 q 44 -28 101 -28 q -33 175 -37 -28 q 1 356 -31 229 q 69 500 42 500 q 147 468 132 500 l 172 418 l 221 401 q 174 153 186 300 q 179 86 171 121 q 214 38 190 38 q 343 379 261 38 q 363 411 351 411 q 374 390 374 411 q 322 181 374 339 q 222 0 264 0 m 311 808 q 272 765 311 788 q 263 760 269 763 q 247 751 257 757 l 183 714 l 176 725 q 168 742 168 735 q 203 785 168 751 q 215 797 207 789 q 236 817 224 806 q 283 838 253 843 q 306 825 300 835 q 311 808 311 815 z "},"":{"ha":325,"x_min":-37,"x_max":374,"o":"m 138 389 q 103 453 132 453 q 61 386 79 453 q 49 346 56 371 q 32 289 42 321 q 10 79 10 204 q 19 35 10 56 q 51 8 32 8 q 107 115 78 24 q 126 183 118 151 q 138 239 135 214 l 154 367 l 138 389 m 222 0 q 138 101 171 0 q 44 -28 101 -28 q -33 175 -37 -28 q 1 356 -31 229 q 69 500 42 500 q 147 468 132 500 l 172 418 l 221 401 q 174 153 186 300 q 179 86 171 121 q 214 38 190 38 q 343 379 261 38 q 363 411 351 411 q 374 390 374 411 q 322 181 374 339 q 222 0 264 0 m 271 714 q 249 735 263 714 q 238 752 244 742 q 225 776 232 763 q 192 799 211 799 q 150 776 172 799 q 139 765 146 772 q 125 752 132 758 q 112 742 118 746 q 101 740 106 739 q 94 757 92 744 q 139 814 99 776 q 196 851 178 851 q 240 801 206 853 q 278 726 275 749 q 271 714 279 721 z "},"":{"ha":325,"x_min":-37,"x_max":374,"o":"m 138 389 q 103 453 132 453 q 61 386 79 453 q 49 346 56 371 q 32 289 42 321 q 10 79 10 204 q 19 35 10 56 q 51 8 32 8 q 107 115 78 24 q 126 183 118 151 q 138 239 135 214 l 154 367 l 138 389 m 222 0 q 138 101 171 0 q 44 -28 101 -28 q -33 175 -37 -28 q 1 356 -31 229 q 69 500 42 500 q 147 468 132 500 l 172 418 l 221 401 q 174 153 186 300 q 179 86 171 121 q 214 38 190 38 q 343 379 261 38 q 363 411 351 411 q 374 390 374 411 q 322 181 374 339 q 222 0 264 0 m 222 714 q 194 735 211 721 q 158 769 178 749 q 106 807 131 807 q 79 779 88 807 q 67 758 72 758 q 60 783 60 758 q 96 846 60 838 q 168 810 119 851 q 192 783 179 797 q 222 764 206 768 q 231 763 225 763 q 278 815 246 763 q 282 820 281 818 q 283 822 283 822 q 289 800 289 818 q 269 738 289 764 q 232 711 250 711 q 222 714 228 711 z "},"":{"ha":325,"x_min":-37,"x_max":374,"o":"m 138 389 q 103 453 132 453 q 61 386 79 453 q 49 346 56 371 q 32 289 42 321 q 10 79 10 204 q 19 35 10 56 q 51 8 32 8 q 107 115 78 24 q 126 183 118 151 q 138 239 135 214 l 154 367 l 138 389 m 222 0 q 138 101 171 0 q 44 -28 101 -28 q -33 175 -37 -28 q 1 356 -31 229 q 69 500 42 500 q 147 468 132 500 l 172 418 l 221 401 q 174 153 186 300 q 179 86 171 121 q 214 38 190 38 q 343 379 261 38 q 363 411 351 411 q 374 390 374 411 q 322 181 374 339 q 222 0 264 0 m 225 769 q 190 718 225 718 q 151 736 168 718 q 135 776 135 754 q 149 806 135 790 q 178 821 164 821 q 225 769 225 821 m 118 768 q 83 717 118 717 q 44 735 61 717 q 28 775 28 753 q 42 804 28 789 q 71 819 57 819 q 118 768 118 819 z "},"":{"ha":325,"x_min":-37,"x_max":374,"o":"m 374 390 q 322 181 374 339 q 222 0 264 0 q 138 101 171 0 q 44 -28 101 -28 q -33 175 -37 -28 q 1 356 -31 229 q 69 500 42 500 q 147 468 132 500 l 172 418 l 221 401 q 174 153 186 300 q 179 86 171 121 q 214 38 190 38 q 343 379 261 38 q 363 411 351 411 q 374 390 374 411 m 138 389 q 103 453 132 453 q 61 386 79 453 q 49 346 56 371 q 32 289 42 321 q 10 79 10 204 q 19 35 10 56 q 51 8 32 8 q 107 115 78 24 q 126 183 118 151 q 138 239 135 214 l 154 367 l 138 389 m 206 714 q 150 764 160 714 q 178 865 142 808 q 260 921 215 921 q 317 871 306 921 q 285 769 324 824 q 206 714 247 714 m 249 876 q 203 840 226 876 q 186 779 182 804 q 210 756 190 756 q 258 790 236 756 q 278 851 282 826 q 249 876 274 876 z "},"":{"ha":642,"x_min":-37,"x_max":643,"o":"m 138 389 q 103 453 132 453 q 61 386 79 453 q 49 346 56 371 q 32 289 42 321 q 10 79 10 204 q 19 35 10 56 q 51 8 32 8 q 107 115 78 24 q 126 183 118 151 q 138 239 135 214 l 154 367 l 138 389 m 643 397 q 622 304 643 388 q 518 25 569 96 q 444 -15 486 -15 q 350 50 386 -15 q 321 168 321 104 l 321 176 q 222 0 265 0 q 138 101 171 0 q 44 -28 101 -28 q -33 175 -37 -28 q 1 356 -31 229 q 69 500 42 500 q 147 468 132 500 l 172 418 l 221 401 q 174 153 186 300 q 179 86 171 121 q 214 38 190 38 q 343 379 253 38 l 344 385 q 417 510 378 510 q 471 489 446 510 q 496 439 496 468 q 436 208 496 336 q 378 101 413 156 q 401 47 378 78 q 449 18 424 18 q 599 335 515 18 q 625 414 619 414 q 643 397 643 414 m 458 424 q 439 471 458 471 q 422 453 428 471 q 371 153 371 299 q 432 278 403 172 q 458 424 458 369 z "},"":{"ha":229,"x_min":-14,"x_max":278,"o":"m 65 -81 q 113 -144 107 -103 q 72 -200 118 -179 q 0 -235 0 -233 q -3 -236 0 -236 q -11 -217 -8 -236 q -11 -193 -12 -199 q 10 -187 0 -190 q 32 -181 21 -183 q 64 -147 67 -171 q 43 -126 61 -129 q 6 -119 25 -122 q 0 -111 1 -115 q 1 -97 0 -101 q 25 -64 8 -87 q 68 0 42 -40 q -14 194 -14 29 q 13 372 -14 268 q 97 507 47 507 q 140 478 117 507 q 164 428 164 447 q 140 394 164 394 q 90 418 122 394 q 33 143 33 349 q 44 78 33 111 q 88 35 58 35 q 236 333 167 35 q 249 390 247 385 q 267 411 254 411 q 278 388 278 411 q 253 274 278 365 q 226 179 238 218 q 204 117 214 140 q 108 -6 158 0 q 61 -74 61 -57 q 65 -81 61 -79 z "},"":{"ha":264,"x_min":-47,"x_max":313,"o":"m 313 394 q 292 301 313 385 q 188 22 239 93 q 114 -18 156 -18 q 19 47 56 -18 q -8 165 -8 103 q -4 256 -8 208 q 10 356 0 303 q 86 507 36 507 q 140 486 115 507 q 165 436 165 465 q 106 206 165 333 q 47 99 82 153 q 71 44 47 75 q 118 15 93 15 q 268 332 185 15 q 294 411 289 411 q 313 394 313 411 m 128 421 q 108 468 128 468 q 92 450 97 468 q 40 150 40 296 q 101 275 72 169 q 128 421 128 367 m 79 714 l 15 751 q 7 756 13 753 q -8 765 1 760 q -47 808 -47 788 q -19 838 -47 831 q 26 817 10 843 q 38 806 29 814 q 60 785 46 797 q 94 742 94 751 q 88 722 94 736 l 79 714 z "},"":{"ha":264,"x_min":-8,"x_max":313,"o":"m 313 394 q 292 301 313 385 q 188 22 239 93 q 114 -18 156 -18 q 19 47 56 -18 q -8 165 -8 103 q -4 256 -8 208 q 10 356 0 303 q 86 507 36 507 q 140 486 115 507 q 165 436 165 465 q 106 206 165 333 q 47 99 82 153 q 71 44 47 75 q 118 15 93 15 q 268 332 185 15 q 294 411 289 411 q 313 394 313 411 m 128 421 q 108 468 128 468 q 92 450 97 468 q 40 150 40 296 q 101 275 72 169 q 128 421 128 367 m 311 808 q 272 765 311 788 q 263 760 269 763 q 247 751 257 757 l 183 714 l 176 725 q 168 742 168 735 q 203 785 168 751 q 215 797 207 789 q 236 817 224 806 q 283 838 253 843 q 306 825 300 835 q 311 808 311 815 z "},"":{"ha":264,"x_min":-8,"x_max":313,"o":"m 313 394 q 292 301 313 385 q 188 22 239 93 q 114 -18 156 -18 q 19 47 56 -18 q -8 165 -8 103 q -4 256 -8 208 q 10 356 0 303 q 86 507 36 507 q 140 486 115 507 q 165 436 165 465 q 106 206 165 333 q 47 99 82 153 q 71 44 47 75 q 118 15 93 15 q 268 332 185 15 q 294 411 289 411 q 313 394 313 411 m 128 421 q 108 468 128 468 q 92 450 97 468 q 40 150 40 296 q 101 275 72 169 q 128 421 128 367 m 253 714 q 231 735 244 714 q 220 752 226 742 q 207 776 214 763 q 174 799 193 799 q 132 776 154 799 q 121 765 128 772 q 107 752 114 758 q 94 742 100 746 q 83 740 88 739 q 76 757 74 744 q 121 814 81 776 q 178 851 160 851 q 222 801 188 853 q 260 726 257 749 q 253 714 261 721 z "},"":{"ha":264,"x_min":-8,"x_max":313,"o":"m 313 394 q 292 301 313 385 q 188 22 239 93 q 114 -18 156 -18 q 19 47 56 -18 q -8 165 -8 103 q -4 256 -8 208 q 10 356 0 303 q 86 507 36 507 q 140 486 115 507 q 165 436 165 465 q 106 206 165 333 q 47 99 82 153 q 71 44 47 75 q 118 15 93 15 q 268 332 185 15 q 294 411 289 411 q 313 394 313 411 m 128 421 q 108 468 128 468 q 92 450 97 468 q 40 150 40 296 q 101 275 72 169 q 128 421 128 367 m 225 769 q 190 718 225 718 q 151 736 168 718 q 135 776 135 754 q 149 806 135 790 q 178 821 164 821 q 225 769 225 821 m 118 768 q 83 717 118 717 q 44 735 61 717 q 28 775 28 753 q 42 804 28 789 q 71 819 57 819 q 118 768 118 819 z "},"":{"ha":183,"x_min":-87,"x_max":232,"o":"m 232 392 q 183 199 232 357 q 138 63 147 85 q 71 1 110 1 q 7 51 28 1 q -8 139 -8 93 q -6 201 -8 164 q 3 290 -3 239 q 11 380 8 342 q 14 443 14 418 q 42 453 24 453 q 78 433 78 453 q 70 402 75 422 q 58 351 65 382 q 32 136 32 225 q 74 43 32 43 q 121 113 93 43 q 167 254 122 114 q 182 307 174 276 q 200 378 190 338 q 219 411 208 411 q 232 392 232 411 m 39 714 l -24 751 q -33 756 -26 753 q -49 765 -39 760 q -87 808 -87 788 q -60 838 -87 831 q -12 817 -29 843 l 19 785 q 54 742 54 751 q 47 722 54 736 l 39 714 z "},"":{"ha":183,"x_min":-8,"x_max":247,"o":"m 232 392 q 183 199 232 357 q 138 63 147 85 q 71 1 110 1 q 7 51 28 1 q -8 139 -8 93 q -6 201 -8 164 q 3 290 -3 239 q 11 380 8 342 q 14 443 14 418 q 42 453 24 453 q 78 433 78 453 q 70 402 75 422 q 58 351 65 382 q 32 136 32 225 q 74 43 32 43 q 121 113 93 43 q 167 254 122 114 q 182 307 174 276 q 200 378 190 338 q 219 411 208 411 q 232 392 232 411 m 247 808 q 208 765 247 788 q 199 760 206 763 q 183 751 193 757 l 119 714 l 113 725 q 104 742 104 735 q 139 785 104 751 q 151 797 143 789 q 172 817 160 806 q 219 838 189 843 q 242 825 236 835 q 247 808 247 815 z "},"":{"ha":183,"x_min":-8,"x_max":232,"o":"m 232 392 q 183 199 232 357 q 138 63 147 85 q 71 1 110 1 q 7 51 28 1 q -8 139 -8 93 q -6 201 -8 164 q 3 290 -3 239 q 11 380 8 342 q 14 443 14 418 q 42 453 24 453 q 78 433 78 453 q 70 402 75 422 q 58 351 65 382 q 32 136 32 225 q 74 43 32 43 q 121 113 93 43 q 167 254 122 114 q 182 307 174 276 q 200 378 190 338 q 219 411 208 411 q 232 392 232 411 m 179 714 q 157 735 171 714 q 147 752 153 742 q 133 776 140 763 q 100 799 119 799 q 58 776 81 799 q 47 765 54 772 q 33 752 40 758 q 20 742 26 746 q 10 740 14 739 q 3 757 0 744 q 47 814 7 776 q 104 851 86 851 q 149 801 114 853 q 186 726 183 749 q 179 714 188 721 z "},"":{"ha":183,"x_min":-32,"x_max":232,"o":"m 232 392 q 183 199 232 357 q 138 63 147 85 q 71 1 110 1 q 7 51 28 1 q -8 139 -8 93 q -6 201 -8 164 q 3 290 -3 239 q 11 380 8 342 q 14 443 14 418 q 42 453 24 453 q 78 433 78 453 q 70 402 75 422 q 58 351 65 382 q 32 136 32 225 q 74 43 32 43 q 121 113 93 43 q 167 254 122 114 q 182 307 174 276 q 200 378 190 338 q 219 411 208 411 q 232 392 232 411 m 164 765 q 129 714 164 714 q 90 732 107 714 q 74 772 74 750 q 88 801 74 786 q 117 817 103 817 q 164 765 164 817 m 57 764 q 22 713 57 713 q -16 731 0 713 q -32 771 -32 749 q -17 800 -32 785 q 10 815 -3 815 q 57 764 57 815 z "},"":{"ha":393,"x_min":15,"x_max":442,"o":"m 442 390 q 393 201 442 351 q 286 0 326 0 q 215 99 235 0 q 206 185 210 126 q 197 338 201 244 q 172 245 190 313 q 125 65 153 178 q 82 6 111 6 q 29 64 39 6 l 24 168 q 24 279 19 229 l 28 331 l 15 357 q 22 407 17 394 q 57 429 31 429 q 85 404 85 429 q 75 368 85 396 q 67 324 67 340 q 67 292 67 311 q 65 249 67 274 q 64 204 64 224 q 64 174 64 186 q 86 74 64 74 q 104 110 93 74 q 133 215 124 190 q 165 331 153 278 q 181 431 178 383 q 200 500 185 489 q 271 456 271 496 q 267 467 271 486 q 256 376 263 447 q 245 263 249 307 q 242 200 242 219 q 281 50 242 50 q 361 197 314 50 q 387 283 375 240 q 408 368 399 325 q 431 411 418 411 q 442 390 442 411 m 222 714 q 194 735 211 721 q 158 769 178 749 q 106 807 131 807 q 79 779 88 807 q 67 758 72 758 q 60 783 60 758 q 96 846 60 838 q 168 810 119 851 q 192 783 179 797 q 222 764 206 768 q 231 763 225 763 q 278 815 246 763 q 282 820 281 818 q 283 822 283 822 q 289 800 289 818 q 269 738 289 764 q 232 711 250 711 q 222 714 228 711 z "},"":{"ha":343,"x_min":-47,"x_max":392,"o":"m 392 399 q 356 254 392 338 q 271 181 324 181 q 222 197 264 181 q 215 163 219 182 q 206 119 211 143 q 185 65 194 88 q 169 32 176 43 q 101 -12 142 -12 q 0 194 0 -12 q 22 372 0 326 q 22 369 22 368 q 21 382 22 372 q 19 397 19 392 q 19 407 19 404 q 28 426 21 419 q 33 447 31 433 q 42 485 36 461 q 89 532 51 532 q 164 501 125 532 q 215 439 204 471 q 226 238 226 406 q 261 222 246 222 q 333 276 310 222 q 363 386 344 297 q 379 411 368 411 q 392 399 392 411 m 182 193 q 179 231 182 208 q 171 282 176 253 q 163 333 165 311 q 160 369 160 354 q 162 400 160 379 q 164 431 164 421 q 119 479 164 479 q 68 349 90 479 q 47 178 47 236 q 108 28 47 28 q 149 83 124 28 q 182 193 182 156 m 79 714 l 15 751 q 7 756 13 753 q -8 765 1 760 q -47 808 -47 788 q -19 838 -47 831 q 26 817 10 843 q 38 806 29 814 q 60 785 46 797 q 94 742 94 751 q 88 722 94 736 l 79 714 z "},"":{"ha":343,"x_min":0,"x_max":392,"o":"m 392 399 q 356 254 392 338 q 271 181 324 181 q 222 197 264 181 q 215 163 219 182 q 206 119 211 143 q 185 65 194 88 q 169 32 176 43 q 101 -12 142 -12 q 0 194 0 -12 q 22 372 0 326 q 22 369 22 368 q 21 382 22 372 q 19 397 19 392 q 19 407 19 404 q 28 426 21 419 q 33 447 31 433 q 42 485 36 461 q 89 532 51 532 q 164 501 125 532 q 215 439 204 471 q 226 238 226 406 q 261 222 246 222 q 333 276 310 222 q 363 386 344 297 q 379 411 368 411 q 392 399 392 411 m 182 193 q 179 231 182 208 q 171 282 176 253 q 163 333 165 311 q 160 369 160 354 q 162 400 160 379 q 164 431 164 421 q 119 479 164 479 q 68 349 90 479 q 47 178 47 236 q 108 28 47 28 q 149 83 124 28 q 182 193 182 156 m 311 808 q 272 765 311 788 q 263 760 269 763 q 247 751 257 757 l 183 714 l 176 725 q 168 742 168 735 q 203 785 168 751 q 215 797 207 789 q 236 817 224 806 q 283 838 253 843 q 306 825 300 835 q 311 808 311 815 z "},"":{"ha":343,"x_min":0,"x_max":392,"o":"m 392 399 q 356 254 392 338 q 271 181 324 181 q 222 197 264 181 q 215 163 219 182 q 206 119 211 143 q 185 65 194 88 q 169 32 176 43 q 101 -12 142 -12 q 0 194 0 -12 q 22 372 0 326 q 22 369 22 368 q 21 382 22 372 q 19 397 19 392 q 19 407 19 404 q 28 426 21 419 q 33 447 31 433 q 42 485 36 461 q 89 532 51 532 q 164 501 125 532 q 215 439 204 471 q 226 238 226 406 q 261 222 246 222 q 333 276 310 222 q 363 386 344 297 q 379 411 368 411 q 392 399 392 411 m 182 193 q 179 231 182 208 q 171 282 176 253 q 163 333 165 311 q 160 369 160 354 q 162 400 160 379 q 164 431 164 421 q 119 479 164 479 q 68 349 90 479 q 47 178 47 236 q 108 28 47 28 q 149 83 124 28 q 182 193 182 156 m 271 714 q 249 735 263 714 q 238 752 244 742 q 225 776 232 763 q 192 799 211 799 q 150 776 172 799 q 139 765 146 772 q 125 752 132 758 q 112 742 118 746 q 101 740 106 739 q 94 757 92 744 q 139 814 99 776 q 196 851 178 851 q 240 801 206 853 q 278 726 275 749 q 271 714 279 721 z "},"":{"ha":343,"x_min":0,"x_max":392,"o":"m 392 399 q 356 254 392 338 q 271 181 324 181 q 222 197 264 181 q 215 163 219 182 q 206 119 211 143 q 185 65 194 88 q 169 32 176 43 q 101 -12 142 -12 q 0 194 0 -12 q 22 372 0 326 q 22 369 22 368 q 21 382 22 372 q 19 397 19 392 q 19 407 19 404 q 28 426 21 419 q 33 447 31 433 q 42 485 36 461 q 89 532 51 532 q 164 501 125 532 q 215 439 204 471 q 226 238 226 406 q 261 222 246 222 q 333 276 310 222 q 363 386 344 297 q 379 411 368 411 q 392 399 392 411 m 182 193 q 179 231 182 208 q 171 282 176 253 q 163 333 165 311 q 160 369 160 354 q 162 400 160 379 q 164 431 164 421 q 119 479 164 479 q 68 349 90 479 q 47 178 47 236 q 108 28 47 28 q 149 83 124 28 q 182 193 182 156 m 222 714 q 194 735 211 721 q 158 769 178 749 q 106 807 131 807 q 79 779 88 807 q 67 758 72 758 q 60 783 60 758 q 96 846 60 838 q 168 810 119 851 q 192 783 179 797 q 222 764 206 768 q 231 763 225 763 q 278 815 246 763 q 282 820 281 818 q 283 822 283 822 q 289 800 289 818 q 269 738 289 764 q 232 711 250 711 q 222 714 228 711 z "},"":{"ha":343,"x_min":0,"x_max":392,"o":"m 392 399 q 356 254 392 338 q 271 181 324 181 q 222 197 264 181 q 215 163 219 182 q 206 119 211 143 q 185 65 194 88 q 169 32 176 43 q 101 -12 142 -12 q 0 194 0 -12 q 22 372 0 326 q 22 369 22 368 q 21 382 22 372 q 19 397 19 392 q 19 407 19 404 q 28 426 21 419 q 33 447 31 433 q 42 485 36 461 q 89 532 51 532 q 164 501 125 532 q 215 439 204 471 q 226 238 226 406 q 261 222 246 222 q 333 276 310 222 q 363 386 344 297 q 379 411 368 411 q 392 399 392 411 m 182 193 q 179 231 182 208 q 171 282 176 253 q 163 333 165 311 q 160 369 160 354 q 162 400 160 379 q 164 431 164 421 q 119 479 164 479 q 68 349 90 479 q 47 178 47 236 q 108 28 47 28 q 149 83 124 28 q 182 193 182 156 m 225 769 q 190 718 225 718 q 151 736 168 718 q 135 776 135 754 q 149 806 135 790 q 178 821 164 821 q 225 769 225 821 m 118 768 q 83 717 118 717 q 44 735 61 717 q 28 775 28 753 q 42 804 28 789 q 71 819 57 819 q 118 768 118 819 z "},"":{"ha":833,"x_min":74,"x_max":760,"o":"m 418 567 q 363 590 386 567 q 340 644 340 614 q 363 699 340 676 q 417 722 386 722 q 470 699 447 722 q 493 644 493 675 q 470 591 493 615 q 418 567 447 567 m 74 385 l 760 385 l 760 318 l 74 318 l 74 385 m 418 -18 q 363 5 386 -18 q 340 58 340 28 q 363 113 340 90 q 417 136 386 136 q 470 113 447 136 q 493 58 493 89 q 470 6 493 29 q 418 -18 447 -18 z "},"":{"ha":401,"x_min":-24,"x_max":447,"o":"m 103 196 l 103 178 q 164 28 103 28 q 204 83 179 28 q 238 193 238 156 q 235 235 238 211 q 228 286 233 258 l 103 196 m 221 325 q 217 353 218 342 q 215 369 215 364 q 217 400 215 379 q 219 431 219 421 q 175 479 219 479 q 124 349 146 479 q 114 290 118 317 q 107 242 110 264 l 221 325 m 56 204 q 78 372 58 328 q 78 369 78 368 q 76 382 78 372 q 75 397 75 392 q 75 407 75 404 q 83 426 76 419 q 89 447 86 433 q 97 485 92 461 q 144 532 107 532 q 219 501 181 532 q 272 438 263 469 q 276 413 275 431 q 279 368 278 396 l 339 411 l 360 382 l 281 325 q 282 283 282 306 q 282 238 282 263 q 317 222 301 222 q 389 276 365 222 q 418 386 400 297 q 435 411 424 411 q 447 399 447 411 q 411 254 447 338 q 326 181 379 181 q 278 197 319 181 q 271 163 275 182 q 261 119 267 143 q 241 65 250 88 q 225 32 232 43 q 157 -12 197 -12 q 56 161 64 -12 l -4 117 l -24 146 l 56 204 z "},"":{"ha":383,"x_min":-47,"x_max":432,"o":"m 269 15 q 217 61 239 15 q 192 133 211 69 q 171 84 182 110 q 149 31 160 58 q 83 -12 124 -12 q 26 29 47 -12 q 10 104 10 64 q 11 176 10 133 q 15 275 13 218 q 31 432 21 417 q 54 443 38 443 q 79 431 68 443 q 90 406 90 419 q 85 374 90 392 q 80 352 82 360 q 76 342 78 344 q 62 223 67 288 q 57 83 57 158 q 83 22 57 22 q 122 57 104 22 q 135 84 129 71 q 146 111 140 97 q 192 292 176 183 q 195 310 193 294 q 201 351 197 325 q 206 385 204 371 q 208 411 208 400 q 208 456 208 443 q 207 464 208 469 q 235 497 211 500 q 275 475 275 497 q 267 452 275 468 q 258 424 260 436 q 255 392 258 418 q 244 319 251 367 q 236 249 239 281 q 233 192 233 217 q 274 60 233 60 q 354 207 311 60 q 404 390 371 267 q 421 411 410 411 q 432 394 432 411 q 385 200 432 346 q 269 15 326 15 m 79 714 l 15 751 q 7 756 13 753 q -8 765 1 760 q -47 808 -47 788 q -19 838 -47 831 q 26 817 10 843 q 38 806 29 814 q 60 785 46 797 q 94 742 94 751 q 88 722 94 736 l 79 714 z "},"":{"ha":383,"x_min":10,"x_max":432,"o":"m 269 15 q 217 61 239 15 q 192 133 211 69 q 171 84 182 110 q 149 31 160 58 q 83 -12 124 -12 q 26 29 47 -12 q 10 104 10 64 q 11 176 10 133 q 15 275 13 218 q 31 432 21 417 q 54 443 38 443 q 79 431 68 443 q 90 406 90 419 q 85 374 90 392 q 80 352 82 360 q 76 342 78 344 q 62 223 67 288 q 57 83 57 158 q 83 22 57 22 q 122 57 104 22 q 135 84 129 71 q 146 111 140 97 q 192 292 176 183 q 195 310 193 294 q 201 351 197 325 q 206 385 204 371 q 208 411 208 400 q 208 456 208 443 q 207 464 208 469 q 235 497 211 500 q 275 475 275 497 q 267 452 275 468 q 258 424 260 436 q 255 392 258 418 q 244 319 251 367 q 236 249 239 281 q 233 192 233 217 q 274 60 233 60 q 354 207 311 60 q 404 390 371 267 q 421 411 410 411 q 432 394 432 411 q 385 200 432 346 q 269 15 326 15 m 311 808 q 272 765 311 788 q 263 760 269 763 q 247 751 257 757 l 183 714 l 176 725 q 168 742 168 735 q 203 785 168 751 q 215 797 207 789 q 236 817 224 806 q 283 838 253 843 q 306 825 300 835 q 311 808 311 815 z "},"":{"ha":383,"x_min":10,"x_max":432,"o":"m 269 15 q 217 61 239 15 q 192 133 211 69 q 171 84 182 110 q 149 31 160 58 q 83 -12 124 -12 q 26 29 47 -12 q 10 104 10 64 q 11 176 10 133 q 15 275 13 218 q 31 432 21 417 q 54 443 38 443 q 79 431 68 443 q 90 406 90 419 q 85 374 90 392 q 80 352 82 360 q 76 342 78 344 q 62 223 67 288 q 57 83 57 158 q 83 22 57 22 q 122 57 104 22 q 135 84 129 71 q 146 111 140 97 q 192 292 176 183 q 195 310 193 294 q 201 351 197 325 q 206 385 204 371 q 208 411 208 400 q 208 456 208 443 q 207 464 208 469 q 235 497 211 500 q 275 475 275 497 q 267 452 275 468 q 258 424 260 436 q 255 392 258 418 q 244 319 251 367 q 236 249 239 281 q 233 192 233 217 q 274 60 233 60 q 354 207 311 60 q 404 390 371 267 q 421 411 410 411 q 432 394 432 411 q 385 200 432 346 q 269 15 326 15 m 257 714 q 235 735 249 714 q 224 752 231 742 q 211 776 218 763 q 178 799 197 799 q 136 776 158 799 q 125 765 132 772 q 111 752 118 758 q 98 742 104 746 q 88 740 92 739 q 81 757 78 744 q 125 814 85 776 q 182 851 164 851 q 226 801 192 853 q 264 726 261 749 q 257 714 265 721 z "},"":{"ha":383,"x_min":10,"x_max":432,"o":"m 269 15 q 217 61 239 15 q 192 133 211 69 q 171 84 182 110 q 149 31 160 58 q 83 -12 124 -12 q 26 29 47 -12 q 10 104 10 64 q 11 176 10 133 q 15 275 13 218 q 31 432 21 417 q 54 443 38 443 q 79 431 68 443 q 90 406 90 419 q 85 374 90 392 q 80 352 82 360 q 76 342 78 344 q 62 223 67 288 q 57 83 57 158 q 83 22 57 22 q 122 57 104 22 q 135 84 129 71 q 146 111 140 97 q 192 292 176 183 q 195 310 193 294 q 201 351 197 325 q 206 385 204 371 q 208 411 208 400 q 208 456 208 443 q 207 464 208 469 q 235 497 211 500 q 275 475 275 497 q 267 452 275 468 q 258 424 260 436 q 255 392 258 418 q 244 319 251 367 q 236 249 239 281 q 233 192 233 217 q 274 60 233 60 q 354 207 311 60 q 404 390 371 267 q 421 411 410 411 q 432 394 432 411 q 385 200 432 346 q 269 15 326 15 m 225 769 q 190 718 225 718 q 151 736 168 718 q 135 776 135 754 q 149 806 135 790 q 178 821 164 821 q 225 769 225 821 m 118 768 q 83 717 118 717 q 44 735 61 717 q 28 775 28 753 q 42 804 28 789 q 71 819 57 819 q 118 768 118 819 z "},"":{"ha":333,"x_min":-133,"x_max":410,"o":"m 406 -126 q 353 -119 374 -121 q 324 -117 333 -117 q 239 -137 301 -117 q 240 -160 239 -146 q 241 -190 240 -175 q 242 -220 242 -206 q 243 -243 243 -235 q 39 -561 243 -561 q -23 -549 6 -561 q -72 -515 -51 -536 q -105 -464 -93 -493 q -117 -401 -117 -435 q 8 -210 -117 -300 q 197 -121 107 -140 q 176 111 197 28 q 162 78 171 97 q 140 32 153 58 q 83 -12 117 -12 q 17 33 39 -12 q -1 118 -1 69 q 11 315 -1 186 q 14 356 13 335 q 17 397 15 376 q 53 460 26 460 q 74 440 76 460 l 58 299 q 50 201 53 243 q 47 131 47 160 q 83 18 47 18 q 174 226 119 18 q 186 324 178 261 q 206 479 194 386 q 243 515 210 514 q 265 497 265 517 q 236 361 265 465 q 226 265 229 335 q 225 79 224 196 q 229 -46 225 39 l 232 -107 q 253 -102 239 -106 q 286 -93 267 -99 q 349 -82 331 -82 q 410 -114 410 -82 q 406 -126 410 -121 m 201 -151 q -3 -267 79 -185 q -75 -415 -75 -337 q -67 -458 -75 -437 q -46 -496 -60 -479 q -13 -522 -32 -512 q 26 -532 6 -532 q 164 -431 117 -532 q 201 -251 201 -350 l 201 -151 m -110 33 q -39 174 -85 33 q -10 269 -24 218 q 18 379 4 321 q 38 411 26 411 q 49 390 49 411 q -6 179 49 347 q -101 -3 -67 -3 q -133 10 -133 -3 q -125 26 -133 21 q -110 33 -117 31 m 225 769 q 190 718 225 718 q 151 736 168 718 q 135 776 135 754 q 149 806 135 790 q 178 821 164 821 q 225 769 225 821 m 118 768 q 83 717 118 717 q 44 735 61 717 q 28 775 28 753 q 42 804 28 789 q 71 819 57 819 q 118 768 118 819 z "},"":{"ha":246,"x_min":-22,"x_max":478,"o":"m 140 -242 q 97 42 140 -67 q 42 99 61 60 q 25 -236 25 -104 q 28 -295 25 -264 q 36 -361 31 -326 q 83 -462 54 -462 q 126 -364 110 -462 q 137 -296 133 -326 q 140 -242 140 -265 m 251 329 q 260 443 260 422 q 288 453 269 453 q 324 433 324 453 q 316 402 321 422 q 304 351 311 382 q 278 136 278 225 q 319 43 278 43 q 367 113 339 43 q 413 254 368 114 q 428 307 419 276 q 446 378 436 338 q 465 411 454 411 q 478 392 478 411 q 429 199 478 357 q 383 63 393 85 q 317 1 356 1 q 253 51 274 1 q 236 139 236 90 q 238 164 236 157 q 236 161 236 163 q 188 74 221 101 q 133 44 171 58 q 172 -214 172 -115 q 125 -486 172 -406 q 90 -497 118 -497 q -18 -233 -22 -497 q 78 897 -10 331 q 121 907 89 907 q 163 890 143 907 q 115 765 128 839 q 67 452 86 594 q 42 192 49 310 q 94 147 71 188 q 122 82 100 139 q 199 157 163 71 q 221 222 208 179 q 251 329 233 265 m 364 768 q 329 717 364 717 q 290 735 307 717 q 274 775 274 753 q 288 804 274 789 q 317 819 303 819 q 364 768 364 819 z "},"":{"ha":246,"x_min":-22,"x_max":571,"o":"m 407 896 q 319 539 350 735 q 293 285 293 382 q 296 245 293 269 q 304 186 299 221 q 429 769 429 421 q 407 896 429 874 m 140 -242 q 97 42 140 -67 q 42 99 61 60 q 25 -236 25 -104 q 28 -295 25 -264 q 36 -361 31 -326 q 83 -462 54 -462 q 126 -364 110 -462 q 137 -296 133 -326 q 140 -242 140 -265 m 264 104 q 133 44 206 50 q 172 -214 172 -115 q 125 -486 172 -406 q 90 -497 118 -497 q -18 -233 -22 -497 q 78 897 -10 331 q 121 907 89 907 q 163 890 143 907 q 115 765 128 839 q 67 452 86 594 q 42 192 49 310 q 94 147 71 188 q 122 82 100 139 q 254 140 192 78 q 250 238 250 167 q 256 381 250 304 q 272 549 261 457 q 333 853 297 746 q 381 947 340 947 q 471 826 471 947 q 442 500 471 671 q 346 190 407 301 q 313 144 326 154 q 339 75 313 118 q 390 28 365 28 q 521 303 442 28 q 528 336 524 317 q 540 382 533 356 q 558 411 546 411 q 571 390 571 411 q 515 174 571 336 q 388 -19 451 -19 q 264 104 313 -19 z "},"":{"ha":279,"x_min":-51,"x_max":286,"o":"m 171 517 q 140 438 140 469 q 143 419 140 431 q 188 324 149 392 q 228 336 201 332 q 265 336 254 342 q 285 315 281 329 q 275 310 286 313 q 251 311 276 311 q 233 310 239 313 q 223 298 225 303 q 214 278 221 293 q 260 174 249 221 q 263 68 275 110 q 233 11 254 39 q 183 -18 208 -18 q 136 9 158 -18 q 107 68 114 36 q 101 110 101 85 q 167 296 101 197 q 126 368 147 333 q 101 444 101 415 q 153 561 101 481 q 240 817 240 699 q 238 846 240 832 q 203 876 228 876 q 149 808 178 876 q 129 757 138 781 q 117 711 121 733 q 38 61 56 400 q 37 44 38 54 q 35 21 36 35 q 22 -112 28 -46 q 11 -247 17 -179 q -15 -506 -12 -506 q -51 -496 -50 -506 q -40 -355 -51 -497 q -4 76 -28 -212 q 0 133 -1 101 l 29 458 q 54 634 40 554 q 86 781 68 714 q 200 946 132 946 q 237 934 221 946 q 263 905 253 922 q 278 867 274 888 q 281 825 282 846 q 171 517 281 693 m 186 253 q 132 119 132 196 q 135 96 132 110 q 186 14 154 14 q 231 110 231 14 q 226 153 231 133 q 186 253 221 182 z "},"":{"ha":342,"x_min":128,"x_max":214,"o":"m 150 308 l 144 314 q 137 316 143 315 q 128 319 131 317 l 128 342 q 136 347 136 342 q 133 353 136 350 q 128 358 129 356 q 129 380 128 368 q 133 406 131 392 q 153 408 149 413 q 158 406 156 406 q 164 408 161 406 q 189 397 174 408 q 214 389 199 397 l 206 328 q 211 317 206 322 q 206 308 208 311 q 203 303 204 304 q 183 306 186 303 l 150 308 z "},"":{"ha":158,"x_min":-54,"x_max":214,"o":"m -53 635 q -47 652 -54 639 q -39 675 -40 665 q -35 688 -42 681 l -31 692 l -28 693 l 47 693 q 54 690 47 693 q 68 686 61 686 q 85 697 75 697 l 93 682 l 106 697 q 128 688 119 697 q 154 699 139 699 l 168 699 q 183 697 175 697 q 194 692 188 692 q 207 699 203 692 q 214 696 211 699 l 214 689 l 179 649 l 179 635 l 165 635 q 153 636 157 636 q 149 636 149 636 l 147 639 q 132 642 142 647 q 122 640 128 640 q 108 636 115 639 l 107 638 q 88 642 100 653 q 78 639 85 639 q 64 640 69 639 l 53 649 l 42 639 q 2 638 26 639 q -54 636 -22 638 l -53 635 z "},"":{"ha":414,"x_min":-47,"x_max":374,"o":"m 333 286 q 292 157 292 207 q 344 51 292 81 q 369 22 369 36 q 339 0 369 0 q 267 51 292 0 q 254 90 258 65 q 251 115 253 97 q 247 161 250 132 q 228 135 239 150 q 204 103 218 121 q 104 25 147 25 q 68 49 92 25 q 18 -168 36 -54 q -1 -325 17 -169 q -25 -375 -8 -375 q -44 -347 -47 -375 q -15 -108 -33 -221 q 28 104 3 4 q 117 307 56 210 q 229 421 188 421 q 247 406 247 421 q 238 388 247 399 q 192 326 218 364 q 132 235 167 288 q 94 117 94 161 q 124 85 94 85 q 217 174 158 85 q 283 300 267 249 q 356 406 318 406 q 374 385 374 406 q 333 286 374 360 z "},"":{"ha":596,"x_min":-36,"x_max":557,"o":"m 557 88 q 483 -11 557 22 q 351 -39 424 -39 q -4 43 153 -39 q -36 83 -36 60 q -21 104 -36 97 q -8 92 -17 101 q 17 68 1 83 q 110 40 24 61 q 333 11 228 11 q 483 97 483 11 q 444 164 483 147 l 125 301 q 29 468 29 343 q 144 826 29 593 q 272 938 201 938 q 422 874 354 938 q 499 729 493 810 q 503 638 501 682 q 506 551 506 594 q 475 468 506 468 q 443 515 443 468 q 431 736 443 615 q 392 836 424 789 q 307 893 354 893 q 167 713 239 893 q 103 468 103 556 q 128 381 103 422 q 196 324 154 340 l 444 219 q 557 88 557 171 m 244 1207 q 267 1188 251 1208 q 277 1168 271 1179 q 290 1147 283 1157 q 306 1129 297 1136 q 325 1122 315 1122 q 367 1146 340 1122 q 376 1155 369 1149 q 390 1168 382 1161 q 414 1182 407 1185 q 421 1165 424 1178 q 376 1107 417 1146 q 319 1069 336 1069 q 274 1121 308 1069 q 238 1196 240 1171 q 244 1207 235 1203 z "},"":{"ha":229,"x_min":-35,"x_max":186,"o":"m 153 114 q 133 25 153 67 q 63 -22 108 -22 q -10 13 21 -22 q -32 57 -32 35 q -21 86 -32 83 q -11 64 -11 86 q 40 11 13 11 q 104 119 104 11 q 76 265 104 167 q 47 353 61 315 q 33 303 42 333 q 13 233 24 274 q -24 186 -1 186 q -35 189 -26 186 q 22 496 22 404 q 58 533 22 533 q 99 507 99 533 q 97 493 99 503 q 92 472 94 483 q 87 451 89 461 q 85 433 85 440 q 118 271 85 381 q 153 114 153 165 m 7 850 q 29 831 14 851 q 40 811 33 822 q 53 790 46 800 q 69 772 60 779 q 88 765 78 765 q 129 789 103 765 q 138 798 132 792 q 153 811 144 804 q 176 825 169 828 q 183 808 186 821 q 139 750 179 789 q 82 713 99 713 q 36 764 71 713 q 0 839 3 814 q 7 850 0 846 z "},"":{"ha":308,"x_min":121,"x_max":188,"o":"m 121 938 l 188 938 l 188 460 l 121 460 l 121 938 m 121 235 l 188 235 l 188 -242 l 121 -242 l 121 235 z "},"":{"ha":833,"x_min":74,"x_max":760,"o":"m 74 392 l 760 392 l 760 311 l 74 311 l 74 392 z "},"":{"ha":419,"x_min":65,"x_max":432,"o":"m 286 581 q 228 536 258 561 q 161 479 197 511 q 303 499 258 499 q 345 497 318 499 q 413 489 372 494 l 418 482 l 343 418 q 246 433 286 428 q 179 438 206 438 q 71 403 119 438 l 65 408 q 124 462 92 435 q 192 519 156 489 q 336 693 329 631 q 265 750 333 750 q 150 704 206 750 q 136 697 140 697 l 131 697 q 188 761 131 713 q 335 821 257 821 q 405 800 378 821 q 432 749 432 779 q 286 581 432 685 z "},"":{"ha":419,"x_min":88,"x_max":401,"o":"m 263 622 q 310 626 308 626 q 390 563 390 626 q 250 411 390 476 q 136 360 207 364 l 119 360 q 88 382 89 360 q 140 422 117 407 q 192 400 163 400 q 271 436 231 400 q 313 511 313 474 q 284 565 313 544 q 211 585 256 585 q 142 574 186 585 l 139 576 q 188 622 169 601 q 299 656 261 619 q 326 715 326 681 q 305 764 326 744 q 251 783 283 783 q 168 747 219 783 l 165 750 q 310 825 233 825 q 375 804 349 825 q 401 754 401 783 q 263 622 401 694 z "},"":{"ha":419,"x_min":139,"x_max":356,"o":"m 281 431 q 222 401 246 415 q 188 375 199 388 l 182 378 l 269 746 l 147 664 l 139 675 l 161 690 q 238 742 192 710 q 346 819 283 775 l 356 810 q 281 431 301 601 z "},"":{"ha":681,"x_min":61,"x_max":638,"o":"m 257 389 q 215 368 233 378 q 183 349 197 358 l 249 590 l 157 540 l 153 553 q 238 599 199 576 q 310 646 278 622 l 317 642 q 283 507 297 569 q 257 389 268 444 m 61 4 l 618 635 l 638 619 l 79 -11 l 61 4 m 490 76 l 478 11 q 418 -18 453 1 l 442 76 l 303 76 l 300 83 q 510 271 331 128 l 528 285 l 532 283 l 497 110 l 583 110 l 540 76 l 490 76 m 367 107 l 451 107 l 476 229 q 396 158 425 186 q 357 117 367 131 l 367 107 z "},"":{"ha":681,"x_min":60,"x_max":639,"o":"m 185 339 l 183 339 l 242 585 l 150 535 l 144 544 l 196 575 q 242 602 213 585 q 311 646 271 619 l 317 642 q 283 504 297 567 q 261 389 269 442 l 185 339 m 60 4 l 621 632 l 639 615 l 76 -11 l 60 4 m 465 100 q 426 75 451 92 q 365 32 401 58 q 504 54 444 54 q 522 53 507 54 q 567 51 538 53 l 569 46 l 526 0 q 479 8 503 6 q 432 10 456 10 q 303 -6 379 10 l 299 0 l 321 17 q 374 56 347 36 q 428 94 400 75 q 515 186 515 161 q 453 221 515 221 q 368 200 410 221 l 365 203 q 497 269 442 269 q 557 254 533 269 q 581 215 581 239 q 465 100 581 175 z "},"":{"ha":681,"x_min":56,"x_max":636,"o":"m 233 515 q 313 467 313 503 q 258 397 313 431 q 147 364 206 364 q 108 378 118 364 q 147 404 128 397 q 201 392 178 392 q 260 436 260 392 q 189 486 260 483 q 172 484 182 485 q 149 481 163 483 l 146 486 l 182 515 q 278 574 278 525 q 238 604 278 604 q 158 586 204 604 l 153 593 l 213 638 q 267 646 247 646 q 340 606 340 646 q 233 515 340 572 m 56 6 l 617 636 l 636 619 l 75 -11 l 56 6 m 481 63 l 469 -1 q 440 -15 454 -7 q 411 -32 426 -22 l 408 -31 l 431 61 l 286 61 l 283 68 q 299 86 290 78 q 317 104 307 94 q 402 178 351 136 q 521 274 453 221 l 528 269 l 488 94 l 576 94 l 529 63 l 481 63 m 436 188 q 378 140 401 160 q 343 107 354 119 l 349 93 l 439 93 l 467 213 q 454 202 461 208 q 436 188 447 196 z "},"":{"ha":833,"x_min":104,"x_max":729,"o":"m 415 304 l 151 32 l 104 81 l 369 351 l 104 622 l 151 671 l 415 399 l 682 671 l 729 622 l 463 351 l 729 81 l 682 32 l 415 304 z "},"":{"ha":558,"x_min":-82,"x_max":540,"o":"m 540 883 q 513 763 524 815 q 496 675 501 711 q 479 511 485 600 q 474 315 474 422 q 476 240 474 285 q 481 136 478 196 q 489 -42 489 17 q 421 -261 489 -158 q 233 -376 343 -376 q 56 -332 178 -376 q -82 -236 -82 -281 q -46 -211 -82 -211 q 47 -275 -33 -211 q 182 -339 128 -339 q 425 65 425 -339 q 423 156 425 101 q 415 286 421 211 q 344 106 368 147 q 201 -3 283 -3 q 50 89 97 -3 q 13 274 13 161 q 17 375 13 314 q 28 519 21 436 q 44 765 44 683 q 43 792 44 774 q 42 818 42 810 q 67 861 42 861 q 135 814 78 861 q 128 775 135 806 q 120 748 122 758 q 117 733 118 738 q 87 498 97 611 q 76 276 76 385 q 189 31 76 31 q 335 168 265 31 q 415 439 396 289 q 437 647 426 535 q 454 893 447 760 q 493 918 456 919 q 540 883 539 917 m 442 1164 q 403 1121 442 1143 q 394 1115 400 1118 q 378 1107 388 1113 l 314 1069 l 307 1081 q 299 1097 299 1090 q 333 1140 299 1107 q 346 1153 338 1144 q 367 1172 354 1161 q 414 1193 383 1199 q 436 1181 431 1190 q 442 1164 442 1171 z "},"":{"ha":229,"x_min":-76,"x_max":154,"o":"m 154 114 q 135 25 154 67 q 64 -22 110 -22 q 3 0 29 -22 q -26 24 -25 24 q -44 -3 -31 24 q -69 -29 -58 -29 q -76 -21 -76 -29 q -62 22 -76 -11 q -37 101 -46 65 q 1 278 -14 196 q 22 435 15 361 q 23 474 21 453 q 29 521 25 494 q 58 533 35 533 q 100 507 100 533 q 98 493 100 503 q 93 472 96 483 q 88 451 90 461 q 86 433 86 440 q 119 272 86 381 q 154 114 154 167 m 106 119 q 78 268 106 164 q 49 353 61 325 q 19 231 36 297 q -18 85 3 164 q 3 39 -18 65 q 42 11 24 11 q 106 119 106 11 z "},"":{"ha":276,"x_min":-18,"x_max":325,"o":"m 142 -19 q 29 75 90 -19 q -7 51 -1 51 q -18 60 -18 51 q 0 96 -18 74 q 13 114 8 107 q 18 124 17 121 q 4 238 4 178 q 10 381 4 304 q 26 549 15 457 q 88 853 51 746 q 135 947 94 947 q 225 826 225 947 q 175 414 225 615 q 140 298 160 353 q 97 193 121 243 q 64 124 93 179 q 92 63 64 99 q 144 28 121 28 q 275 303 196 28 q 283 336 278 317 q 294 382 288 356 q 313 411 300 411 q 325 390 325 411 q 269 174 325 336 q 142 -19 206 -19 m 161 896 q 74 539 104 735 q 47 285 47 382 q 49 244 47 268 q 57 190 51 221 q 153 472 117 307 q 183 769 183 619 q 161 896 183 874 z "},"":{"ha":333,"x_min":-133,"x_max":410,"o":"m 406 -126 q 353 -119 374 -121 q 324 -117 333 -117 q 239 -137 301 -117 q 240 -160 239 -146 q 241 -190 240 -175 q 242 -220 242 -206 q 243 -243 243 -235 q 39 -561 243 -561 q -23 -549 6 -561 q -72 -515 -51 -536 q -105 -464 -93 -493 q -117 -401 -117 -435 q 8 -210 -117 -300 q 197 -121 107 -140 q 176 111 197 28 q 162 78 171 97 q 140 32 153 58 q 83 -12 117 -12 q 17 33 39 -12 q -1 118 -1 69 q 11 315 -1 186 q 14 356 13 335 q 17 397 15 376 q 53 460 26 460 q 74 440 76 460 l 58 299 q 50 201 53 243 q 47 131 47 160 q 83 18 47 18 q 174 226 119 18 q 186 324 178 261 q 206 479 194 386 q 243 515 210 514 q 265 497 265 517 q 236 361 265 465 q 226 265 229 335 q 225 79 224 196 q 229 -46 225 39 l 232 -107 q 253 -102 239 -106 q 286 -93 267 -99 q 349 -82 331 -82 q 410 -114 410 -82 q 406 -126 410 -121 m 201 -151 q -3 -267 79 -185 q -75 -415 -75 -337 q -67 -458 -75 -437 q -46 -496 -60 -479 q -13 -522 -32 -512 q 26 -532 6 -532 q 164 -431 117 -532 q 201 -251 201 -350 l 201 -151 m -110 33 q -39 174 -85 33 q -10 269 -24 218 q 18 379 4 321 q 38 411 26 411 q 49 390 49 411 q -6 179 49 347 q -101 -3 -67 -3 q -133 10 -133 -3 q -125 26 -133 21 q -110 33 -117 31 m 311 808 q 272 765 311 788 q 263 760 269 763 q 247 751 257 757 l 183 714 l 176 725 q 168 742 168 735 q 203 785 168 751 q 215 797 207 789 q 236 817 224 806 q 283 838 253 843 q 306 825 300 835 q 311 808 311 815 z "},"":{"ha":496,"x_min":32,"x_max":429,"o":"m 422 357 q 400 230 413 289 q 369 119 388 171 q 285 -3 328 -3 q 229 32 254 -3 q 206 101 206 68 l 208 389 q 151 433 164 433 q 133 413 135 433 q 135 379 135 417 q 101 186 121 289 q 58 -35 82 83 q 32 -18 32 -36 q 41 14 32 -7 q 51 42 50 35 q 110 461 82 189 q 88 549 88 515 q 122 618 88 618 q 151 564 151 618 q 149 526 151 551 q 147 488 147 500 q 206 442 147 472 q 265 372 265 411 q 263 322 265 353 q 256 246 261 290 q 247 119 244 164 l 243 107 q 282 33 243 33 q 343 147 304 33 q 381 269 367 218 q 400 353 394 319 q 415 411 393 411 q 429 396 429 411 q 427 393 429 403 q 422 357 425 383 z "},"":{"ha":932,"x_min":-17,"x_max":975,"o":"m 793 747 q 772 843 793 793 q 707 904 744 904 q 579 524 635 904 q 726 601 679 560 q 793 747 793 657 m 461 146 q 110 281 267 281 q 43 236 43 281 q 118 94 43 174 q 308 3 203 3 q 367 14 339 3 q 415 44 394 25 q 449 89 436 63 q 461 146 461 115 m 492 382 q 496 449 496 433 q 472 447 488 449 q 442 442 457 444 q 411 437 426 439 q 388 435 396 435 q 328 456 328 435 q 343 482 328 467 q 389 471 358 471 q 503 494 456 471 q 549 753 540 719 q 678 974 604 974 q 817 847 742 974 q 853 785 851 789 q 867 717 867 756 q 818 628 867 681 q 739 560 785 590 q 669 520 711 542 q 572 475 628 499 q 570 449 571 464 q 567 414 569 433 l 657 453 l 672 417 l 560 369 q 545 274 554 328 q 525 154 536 221 q 624 90 574 124 q 725 19 674 57 q 803 -35 771 -14 q 853 -65 835 -56 q 975 -92 913 -96 q 921 -114 961 -114 q 754 -46 857 -114 q 588 63 649 24 q 508 111 526 101 q 478 58 493 79 q 453 25 464 36 q 269 -37 388 -37 q 74 49 167 -37 q -17 239 -17 136 q -9 268 -17 253 q 10 295 -1 283 q 35 315 21 307 q 65 322 50 322 q 290 278 164 322 q 365 247 319 267 q 474 197 411 228 q 486 317 475 208 l 488 339 l 406 303 l 389 338 l 492 382 z "},"":{"ha":276,"x_min":-99,"x_max":325,"o":"m 161 896 q 46 322 46 517 q 142 554 99 404 q 183 769 183 693 q 161 896 183 874 m 0 251 q 25 556 0 372 q 88 853 51 746 q 135 947 94 947 q 226 808 226 947 q 182 535 226 689 q 132 396 160 458 q 71 282 104 333 l 168 324 l 183 288 l 43 228 q 88 69 43 131 q 144 28 118 28 q 275 303 196 28 q 283 336 278 317 q 294 382 288 356 q 313 411 300 411 q 325 390 325 411 q 269 174 325 336 q 142 -19 206 -19 q 36 67 76 -19 q 1 210 6 129 l -82 174 l -99 208 l 0 251 z "},"":{"ha":647,"x_min":-31,"x_max":653,"o":"m 653 758 q 603 711 653 736 l 594 707 q 231 333 556 688 q 122 197 196 296 q 39 60 39 82 q 92 43 39 43 q 240 60 136 43 q 333 74 293 69 q 400 78 372 78 q 513 69 451 78 q 599 40 599 58 q 564 18 599 18 q 543 19 556 18 q 517 23 531 21 q 492 26 504 25 q 471 28 479 28 q 405 24 443 28 q 318 13 367 19 l 178 -8 q 149 -15 167 -10 q 104 -26 131 -19 q 32 -42 51 -42 q -14 -15 3 -42 q -31 36 -31 6 q 51 197 -31 74 q 126 301 89 253 q 199 390 163 350 l 411 632 q 525 778 525 763 q 475 796 525 796 q 117 746 296 796 q 74 711 72 733 q 42 733 42 711 q 113 792 42 768 q 261 825 154 804 q 434 854 365 844 q 535 864 503 864 q 617 835 582 864 q 653 758 653 806 m 244 1207 q 267 1188 251 1208 q 277 1168 271 1179 q 290 1147 283 1157 q 306 1129 297 1136 q 325 1122 315 1122 q 367 1146 340 1122 q 376 1155 369 1149 q 390 1168 382 1161 q 414 1182 407 1185 q 421 1165 424 1178 q 376 1107 417 1146 q 319 1069 336 1069 q 274 1121 308 1069 q 238 1196 240 1171 q 244 1207 235 1203 z "},"":{"ha":381,"x_min":-87,"x_max":406,"o":"m 393 -94 q 321 -83 356 -83 q 258 -92 289 -83 q 269 -177 265 -147 q 272 -212 272 -207 q 231 -408 272 -319 q 83 -524 178 -524 q -36 -476 15 -524 q -87 -364 -87 -431 q 207 -72 -87 -200 q 122 38 190 0 q 65 6 86 6 q 17 40 17 6 q 88 75 17 76 q 183 218 157 154 q 218 424 218 300 q 157 519 218 519 q 83 474 118 519 q 49 393 56 435 q 36 351 42 351 q 19 374 19 351 q 47 478 19 411 q 138 565 85 565 q 229 524 196 565 q 263 421 263 483 q 138 60 263 219 q 207 11 188 32 q 250 -62 228 -12 q 356 -50 310 -50 q 406 -76 406 -50 q 393 -94 406 -89 m 235 -204 q 232 -151 235 -176 q 224 -103 229 -126 q 50 -204 131 -124 q -33 -382 -33 -290 q -7 -458 -33 -428 q 65 -487 19 -487 q 199 -383 153 -487 q 235 -204 235 -300 m 71 851 q 93 832 78 853 q 103 813 97 824 q 117 791 110 801 q 133 774 124 781 q 151 767 142 767 q 193 790 167 767 q 202 799 196 793 q 217 813 208 806 q 240 826 233 829 q 247 810 250 822 q 203 751 243 790 q 146 714 163 714 q 100 765 135 714 q 64 840 67 815 q 71 851 61 847 z "},"":{"ha":232,"x_min":-131,"x_max":411,"o":"m 376 903 q 398 892 385 903 q 411 874 411 882 q 354 796 411 857 q 238 646 303 743 q 92 407 172 549 q -89 0 -72 119 q -103 -12 -92 -12 q -122 -1 -114 -12 q -131 24 -131 11 q 36 388 -104 133 q 143 572 93 489 q 238 719 193 654 l 308 822 q 376 903 363 897 z "},"":{"ha":279,"x_min":-8,"x_max":286,"o":"m 171 517 q 140 438 140 469 q 143 419 140 431 q 188 324 149 392 q 228 336 201 332 q 265 336 254 342 q 285 315 281 329 q 275 310 286 313 q 251 311 276 311 q 233 310 239 313 q 223 298 225 303 q 214 278 221 293 q 260 174 249 221 q 263 68 275 110 q 233 11 254 39 q 183 -18 208 -18 q 136 9 158 -18 q 107 68 114 36 q 101 110 101 85 q 167 296 101 197 q 126 368 147 333 q 101 444 101 415 q 153 561 101 481 q 240 817 240 699 q 238 846 240 832 q 203 876 228 876 q 149 808 178 876 q 129 757 138 781 q 117 711 121 733 q 38 61 56 400 q 19 1 36 1 q -4 24 0 1 q -4 76 -8 38 q 0 133 -1 101 l 29 458 q 54 634 40 554 q 86 781 68 714 q 200 946 132 946 q 237 934 221 946 q 263 905 253 922 q 278 867 274 888 q 281 825 282 846 q 171 517 281 693 m 186 253 q 132 119 132 196 q 135 96 132 110 q 186 14 154 14 q 231 110 231 14 q 226 153 231 133 q 186 253 221 182 z "},"":{"ha":0,"x_min":0,"x_max":0,"o":""}}}
